<mxfile host="65bd71144e">
    <diagram id="6m1VFReYQq_apQ0weh_n" name="payment">
        <mxGraphModel dx="974" dy="506" grid="1" gridSize="10" guides="1" tooltips="1" connect="1" arrows="1" fold="1" page="1" pageScale="1" pageWidth="850" pageHeight="1100" math="0" shadow="0">
            <root>
                <mxCell id="0"/>
                <mxCell id="1" parent="0"/>
                <mxCell id="2" value="Chain" style="rounded=0;whiteSpace=wrap;html=1;verticalAlign=top;align=left;" parent="1" vertex="1">
                    <mxGeometry x="220" y="410" width="390" height="350" as="geometry"/>
                </mxCell>
                <mxCell id="10" value="2. pay gov token" style="edgeStyle=none;html=1;" parent="1" source="3" target="2" edge="1">
                    <mxGeometry relative="1" as="geometry">
                        <Array as="points">
                            <mxPoint x="460" y="260"/>
                        </Array>
                    </mxGeometry>
                </mxCell>
                <mxCell id="14" value="1. get gov token" style="edgeStyle=none;html=1;" parent="1" source="3" target="13" edge="1">
                    <mxGeometry relative="1" as="geometry"/>
                </mxCell>
                <mxCell id="3" value="User" style="shape=umlActor;verticalLabelPosition=bottom;verticalAlign=top;html=1;outlineConnect=0;" parent="1" vertex="1">
                    <mxGeometry x="337.5" y="50" width="30" height="60" as="geometry"/>
                </mxCell>
                <mxCell id="4" value="web2&amp;nbsp;service" style="rounded=0;whiteSpace=wrap;html=1;" parent="1" vertex="1">
                    <mxGeometry x="250" y="240" width="140" height="60" as="geometry"/>
                </mxCell>
                <mxCell id="13" value="dex or cex" style="ellipse;whiteSpace=wrap;html=1;aspect=fixed;" parent="1" vertex="1">
                    <mxGeometry x="550" y="50" width="250" height="250" as="geometry"/>
                </mxCell>
                <mxCell id="21" value="" style="group" parent="1" vertex="1" connectable="0">
                    <mxGeometry x="400" y="510" width="175" height="112" as="geometry"/>
                </mxCell>
                <mxCell id="20" value="Pool" style="rounded=0;whiteSpace=wrap;html=1;verticalAlign=bottom;" parent="21" vertex="1">
                    <mxGeometry width="170" height="100" as="geometry"/>
                </mxCell>
                <mxCell id="19" value="" style="group" parent="21" vertex="1" connectable="0">
                    <mxGeometry x="15" y="10" width="160" height="80" as="geometry"/>
                </mxCell>
                <mxCell id="16" value="Gov&lt;br&gt;token" style="rounded=0;whiteSpace=wrap;html=1;" parent="19" vertex="1">
                    <mxGeometry width="70" height="60" as="geometry"/>
                </mxCell>
                <mxCell id="18" value="Original&lt;br&gt;token" style="rounded=0;whiteSpace=wrap;html=1;" parent="19" vertex="1">
                    <mxGeometry x="70" width="70" height="60" as="geometry"/>
                </mxCell>
                <mxCell id="24" value="swap gov to Orifinal token" style="edgeStyle=none;html=1;entryX=0;entryY=0.5;entryDx=0;entryDy=0;" parent="1" source="23" target="20" edge="1">
                    <mxGeometry relative="1" as="geometry"/>
                </mxCell>
                <mxCell id="26" value="burn Original token" style="edgeStyle=none;html=1;entryX=0.5;entryY=0;entryDx=0;entryDy=0;" parent="1" source="23" target="25" edge="1">
                    <mxGeometry relative="1" as="geometry"/>
                </mxCell>
                <mxCell id="23" value="protocol" style="rounded=0;whiteSpace=wrap;html=1;" parent="1" vertex="1">
                    <mxGeometry x="250" y="460" width="100" height="40" as="geometry"/>
                </mxCell>
                <mxCell id="25" value="" style="shape=image;verticalLabelPosition=bottom;labelBackgroundColor=default;verticalAlign=top;aspect=fixed;imageAspect=0;image=data:image/png,iVBORw0KGgoAAAANSUhEUgAAAgAAAAIACAYAAAD0eNT6AAAABHNCSVQICAgIfAhkiAAAAAlwSFlzAAAOxAAADsQBlSsOGwAAABl0RVh0U29mdHdhcmUAd3d3Lmlua3NjYXBlLm9yZ5vuPBoAACAASURBVHic7N13mJTV9cDx78z23ntnd1l2l96bKM0GiiIqxC7ELrZoNLH3EvWnxh41RaOxxpooGFtQUBABaQLSOyywsGzf+f0xQBDYOufO+87M+TzPPnmCy7mXLfOeueUcUEr5o37AY8APwC6gHtgETAduBnpaNzWllFJKSesMTANcbfhYAty27+8opZRSykeNBSpp28P/0I+ZwPlAhLcnrZRSSqmOGwHU0LGH/8EfFcAjQIl3p6+UUkqp9krGvb/v6cP/4I8m3OcFjvPiv0MppZRS7fAEsg//Qz++A04BHN76BymllFKqZbFAFWYTgP0fC4BfAUFe+ZcppZRSqlkT8M7D/+CPZcCFQLAX/n1KKaWUOoJ78X4CsP9jCXA6ujWglFJKed1fsC4B2P/xFTDQ9D9UKSXLafUElFIescO776HA18CfgXRrp6KUaitNAJTybeutnsA+DuA8YDlwOxBq6WyUUkopPzce67cAjvQxHxhg8N+tlFJKBbRYYA/WP/CP9NGAu6pglLF/vVJKKRXAHsP6h31LHz8Do4z965VSSqkAlYH3igF19KMJeBaINPQ1UEoppQLSH7D+Id+Wj0VAL0NfA6WUUirgJAO7sP4B35aPOtw3BfQWklJKKSXgDqx/uLfn4yMg0chXQimllAogccA2rH+wt+djDXpdUClLaFcvpfxH7b7/HW3pLNonDjgH2A3MsnguSimllM+KBDZg/Tv7jnw8j1YQVEoppTrsaqx/mHf04z9AgvyXRCmllPJ/UfjeWYCDP5YBJeJfFaWUUioA3I31D3JPPrYDR4t/VZRSSik/lwZUY/2D3JOPGuA06S+MUkop5e+ewfqHuKcfDcCF0l8YpZRSyp91wv0Atfoh7ulHE3CN8NdGqYCndQCU8l87gB5AqdUT8ZADOA53MvOVxXNRSimlfMIIrH8HL/lxr+yXRymllPJPDmA5wg/isBCnlUnArbJfIqUCk24BKOX/YnCvBIgZMyiZC07M5Mv5O2lsckmGbovhuG84zPD2wEoppZQvSQfqEXwXHhMZ5KqdPsL17bP9XSW5kVasAjQBl0p/oZQKJLoCoJT/2wP0Q7C6Xl29ixG9ExnSLZ7JY7LYvbeBb5dUSoVvCwdwIrAe+N6bAyvlLzQBUCowVAGTJAOmJoQyum8SIcEOThiQTK/iGP49azs1dU2Sw7TEAYwB5uAuH6yUagen1RNQSnnFv3BfCxTz0cxtv/j/Jw9J4dtn+1NeECU5TGuCgNeAXt4cVCl/oAmAUoGhHvhQMuDClVWs3lzziz8rzo5k5tP9OWN4muRQrYnG/W/L9eagSvk63QJQKnA4gTMkA/YqjqFHUcwv/iw0xMmEo9OICg/iP9/vwOWdSwIxwEjg70CtV0ZUysfpCoBSgeNj3A12xHy7+MgH/xwOuH5SHh8+0JPoCK+9z+iOOwHQ1zWl2kB/UZQKHHuA6ZIBv128q8X/flz/JD5/rA+pCaGSw7ZkDHCLtwZTypdpAqBUYHlXMti8FXuorW/51H+fklj++8e+FGRESA7dkltxXxFUSrVAEwClAsvnksHq6puYu2x3q59XnB3J10/1o1dxTKufK8AJvAwUemMwpXyVJgBKBZYVwFbJgM2dAzhUemIonz3Wh2N6JkgO35wE4C0g3BuDKeWLNAFQKrC4gFmSARet2tPmz42LCuajB3sxvJdXkoAewAPeGEgpX6QJgFKB5xvJYD9vqG7X50eEOfng/p4c1T1echrNuRL3wUCl1CE0AVAq8FiaAABEhgfx/v096VsSKzmVI3EALwJerUyklC/QBECpwLNAMtjqzTU0NLa/2k9cVDD/eqiXN0oHpwLPmR5EKV+jCYBSgWcb0PrR/TZqaHSxZnPH6gslx4Uw7eHeFGdHSk2nOScDU0wPopQv0QRAqcC0WjLYqk3t3wbYLyMpjGmP9CbNfLGgh4AM04Mo5Ss0AVAqMK2SDLZjd4NHfz8vLZy37+5BWIjRl6R44DGTAyjlSzQBUCowrZIMtnuvZwkAwOCucTx3fanAbFp0OjDO9CBK+QJNAJQKTBWSwSr3NorEOfe4DK49w3hX36eAONODKGV3mgAoFZg8f8t+kMoquXAPXlrMCQOSxOIdQSZwp8kBlPIFmgAoFZhEEwCJLYD9gpwOXr2tG6V5Rq8HXgaUmRxAKbvTBECpwCSaAEiLiwrmjTu6ExFm7CUqGPetAKUCliYASgUmmU37fcJDgyTDAVBeEMV9FxWJxz3IicCxJgdQys40AVAqMCVLBgsPNfNSMvW0XMYMEp3qoR7FvRqgVMDRBECpwJQuGczUUr3DAS/+tsxkkaAy4EJTwZWyM00AlApMogmAqRUAgNSEUJ6/oRSHw9gQdwDGaxErZTeaACgVmEQTgJR4s2V8TxqcwsUnZ5sKnw5cbCq4UnalCYBSgScI6CwZMDctXDLcET14STFZyWGmwt8ARJgKrpQdaQKgVODpBohess/zQgIQExnEQ5cVmwqfjnYLVAFGEwClAs8AyWDhoU7jWwD7TRqZzojeiabC3wSYz2SUsglNAJQKPP0kg+WmhZs8oHeYJ68pIdRM18AM4AITgZWyI00AlAosDmCkZMAehTGS4VrVJTeK68401jDoRrQugAoQmgAoFVj6APmSAft1iZUM1yY3n1Ng6txBLnCKicBK2Y0mAEoFltOkA/Yv9X4CEBkexF1TCk2Fv8JUYKXsRBMApQLLqZLBnE4HvYq9uwWw369GpZvqGHg00N1EYKXsRBMApQLHUKBEMmC3TtHERlmzZR7kdHD7BZ1MhddVAOX3NAFQKnBcLR3wxIFJ0iHb5fRj0uhZZGQF4mzA2n+cUoZpAqBUYMgFxkkHPXGg0U59rXI4MLUKEIFeCVR+ThMApQLDFQhfb0uICWFgWZxkyA45eUiKqZsIk00EVcouNAFQyv+lApdKBz2+fxLBQV6sANQMhwNuPc/IKkAXoK+JwErZgSYASvm/m4Fo6aDnHJchHbLDxgxKpiTXSEffs00EVcoONAFQyr/lARdJB81MDuPYfsZq8rebwwGXjjPSLngSWhlQ+SlNAJTyb3cB4j10zx6dTpDT+uX/g51/QibREUHSYVOBY6WDKmUHmgAo5b+OwsAStsPhftjaTVxUMOea2ZbQbQDllzQBUMo/hQBP427+I2p03yRTFfg8dsX4HBOdCccB1pQ7VMog3dtSviAY6An0ApKBemAtMBNYbeG87OwaoNxE4N9MzDMRVkRpXhSj+iQybXaFZNhI4HjgDcmgSllNEwBlZ1HAb3AfYmtuzfkb4CHgHW9Nygd0Am41EbhnUQyj+9rn8N+RXHRStnQCADAWTQCUn9EtAGVXQ4DFwO00//AHGAS8Dfy7lc8LFE7gBdzJkzg7v/vfb8ygZBP9CU4AxE8YKmUlTQCUHZ0EfArktOPvHAfMQ3u5Xw4cYyJwaV4UE0emmQgtKiLMybghKdJhU4D+0kGVspImAMpuugOv0bGra8m4twKew9A7YJsrAu43FfyuyYW2u/rXnEmj0k2EHWsiqFJW0QRA2YkTeBH3oStP/BqYQ2CVcQ0G/ornX7sj6tcllvHDUk2ENmJUn0SS40Kkw2oCoPyKJgDKTsYCfYRilQBfAzcSGD/nt+E+D2HEfRcVmbheZ0xIsIPTjhZPWLrj7qqolF8IhBdG5TvOF44XAtwHvAdY37bOnKOBm0wFP/WoVEb2sffJ/yOZNNLINsDxJoIqZQVNAJRdOIBRhmKPAb4FSg3Ft1Ii8DKGTqhHhDl55IpiE6GNO6p7PKkJodJhh0oHVMoqmgAou0jHbLW1zsAs/O+WwJ8AI11wAH77q3zy0yNMhTfK6XQwSn7l4ijpgEpZRRMAZRfeOLUfg7tmwB34x8/+JcCppoIXZUVyw6R8U+G9wkDRonwMJlxKeZM/vAgq/1DlpXEcuKvk/RPfru9eDjxiKrjT6eDFG8uICPPtl4hj+yWZOLyo2wDKL/j2b7fyJxuBnV4c7yTgc8D+lW0OFw68Chhbm596Wg5HdY83Fd5rMpPDKM+Plg6rCYDyC5oAKDv5wcvj9Qb+i7t2vi95GOhmKnhxdiT3TCk0Fd7rRvfTcwBKHYkmAMpOvrNgzCJgBu5Og75gDHCpqeBOp4MXfltGZLj/lL0f3TdJOmRX3LcvlPJpmgAoO7EiAQD3DYTPMFRDX1AO7mp/xkryXD3BP5b+D3Z0j3hCQ0Rf6pzIFaxSyjKaACg7sSoBAHehoH9h8FS9h4KAVzD4zrMkN5K7pxSZCm+ZyPAgunUSPwfQXTqgUt6mCYCyk1XAVgvHDwdeB8ZbOIfm3ILBvecgp4OXbiz3+VP/zelbIn7hw9gZDKW8xT9/25Uvs3IVANxNdV7FXo1fjgJuNjnAzecWMKjcf6sl9y2JlQ6pCYDyeZoAKLuxOgEACAXexB513xMwWOoXYGi3eG4+t8BUeFvo10U8ASjHnSwq5bM0AVB2M9/qCewThjsJGGLxPP6EwQ50CTEhvHJLV4KDfKjVXweUF0RLb2+EAb7ZJEGpfTQBUHaz2uoJHCQK+AjoZ9H452L4PMJT13QhNy3c5BC2EBzkoGeRngNQ6mCaACi7WWn1BA4Ri/t2gLePx2cBj5kc4KKTspg40hcLIXaMgXMAXaUDKuVNuoel7KYCqMT94LWLJOA9YBCwywvjOYAXAGMX8svyo3j0is6mwttSD/kVAG8nAE7c1St7AMlAE7AG+Gbf/yrVLpoAKDtahf3uWZcCr+G+HdBoeKyLgONMBQ8PdfLqrd38qtpfWxRlibdO8NbJyVhgKnAZkNHM58wEHsLd7VKpNtEtAGVHdjoHcLDjgT8YHqOT6TH+cFkx3QvFC+PYXlF2pHRIY4czDzIMWADcRfMPf4CBwFvAh2iZYtVGmgAoO1pl9QRacDUwxVBsJ/ASYOzpfMpRKVx2So6p8LaWmRQmveqRiNmW0icBn9C+RONE3L0tAudwh+owTQCUHW22egKteAr3OzNpVxuKC0BOajgv3FCGw79v/DXL4YDCTPFtgDzpgPv0wF2QKqwDf7cL8C7uehZKNUsTAGVHe62eQCtCgL/jPhwopRC4WzDeLwQ5HbxyS1cSY0NMDeETirJ8YhvAibv+Q5QHMQbgLh+tVLM0AVB2VG31BNogC/eLtJTHAPG3p/vden6B33X564iibPEvsYkE4CSgr0CcG7GuhoXyAZoAKDuqsnoCbXQK7hP7nvoVMEYgzhEd3TOB35/j36V+26pY/iCgiS2A84XiBAMv0rFtBBUANAFQdmT3LYCDPYJ7z7WjEvbFMCIpNoSXb+5KkDNAN/4PkZMqXvVQOgFwAscIxusK3C4YT/kRTQCUHflSAhAFvELHD1zdhcET209e04XsFH0DuF9KnPgZiGzheCXIF4C6HpktBeVnNAFQdlRj9QTaqTdwZwf+XlfgYuG5HDBxZBpnjtDbYAdLiRc/GJ8gHM/EgzoIeBqDHSWVb9IEQNmR6FvWgowI8tONna/b71raXxr2UQxV48xICuPJqz3ZmfBPBhIA6Xfrpt6p9wUuNRRb+ShNAJQdiRZXyUkN518P9STJ7BW4EOBJ3HX822IcMMrERBwO+NMNpQF/5e9IIsKcREeIvhGWTgAGCsc72N20XE1QBRhNAJQdiVbCiwp30iU3ivfu6yndE/5Qw4Cz2/B5IRgs9ztlTBYnDkw2Fd7nCa8CROP+fkqIwb2dZEoc8LDB+MrHaAKg7Eh0BSBq3zu+wV3j+Nvvu5quhPcQrb8rnIKh9sIFGRE8fHlgdflrr5R48ZURqVWAIZhv0DYJGGl4DOUjNAFQdiS8AvC/Jd/Tjk41fSc+DffJ/uZEADebGNjpdPDSjWXEROpZr5bY+BzAcKE4rfk/9ECgQhMAZU+yKwCHNIC544JOjB1sdIn8UqBnM//tSiDTxKBTxmRydE/pQ+n+Jz5a/E22VAJwslCc1nQFfu2lsZSNaQKg7Ej0oNKhh76cTgcv39zVRF34/YI48rXAOOAGEwOmJ4bywCXFJkL7nfBQ8Zc9iQSgFM8KSrXXnbh/HlUA0wRA2ZHo/nhm8uG3CuOignnllq6EBBs7EDCWw+uwX4lsA6EDHptaYuKdrV8KDbZlAnCKQIz2SMHQVpTyHZoAKDsqlAzWXPnX/qWx3HGB6FAHcwB3HPT/I4GpJgY6rn8SZwzXgj9tFSa/AiBxqMDbCQC4E1JjvwDK/jQBUHYTA6RLBmyp/vtvf5XHMeb2zU/gf/e6J+N+1yUqJNjBo1foqf/2CAsRf9nzNGA21nTtCwMetGBcZROaACi7EX9HkpvWfALgdDr402/LiAw3dij6Dtz3xK8zEfyyU3IozfOkbXzgMZAAePrDcwptLyAlbTzu+hUqAGkCoOxGdP8/LMRJaivXvgozI7jjgk6Swx7sWOBxDLSNTY4L4bbztc1ve4WFij9rPX0dPV9iEh641+LxlUU0AVB200syWE5qeJsK/1x9ei59SmIlhz7YJSaC3nJeJxJitNxve9lsBaA/0EdqIh00BPd2lQowmgAouxksGawsv23L48FBDp66povpKoFi8tMjuPjkLKun4ZMM3ALwJKCR5LAD7sK6bQhlEU0AlJ2E4H5HJKZXcdtrCvUvjeVXo0TPHxpzx4WdTLyTDQj1jS7pkB1dAYgHzpSciAf6AKdaPQnlXfoKouykJ+7rcmK6F7avqvB9FxWZPBAoorwgirNG+0aiYkf1DU3SITv6A3Mewj/vHroTfSYEFP1mKzsZIh2wZ1H7qgrnpIZzzem50tMQ9ftzCghy6mptR9XVi68AdOR11Il9lv/3K8fdLEgFCE0AlJ0MlQwWGxVMQUZEu//etWfkEhtlz6p6nTIjtOiPh+rkVwA6ko2djndL/7bVbZjvSKhsQhMAZRfhuK/MielZFNOhQ32JsSFcOT5HcipifjMxT9/9e6i2XjwBqG7n5zuBW6UnIaQY668lKi/RBEDZxSiEuwAO69HxEu3XnJFru7a6aQmhXHCCkUaCAcXAFkBVOz//DKBMehKCbsZ9IFf5OU0AlF2Mlw44ondih/9uUmwIvx5rr2t2l56SbaKTXcCpk18BaE8CEIR93/3vlwdMtHoSyjx9NVF2EIxwL/TwUCeDyj3rdnr5qTm2WW4PCXbYLiHxVQbOALQnATgTd+tfu7serQvg9zQBUHZwNMJtcgd3jff43XKnzAjGDk4WmpFnxg1NOWJbY9V+1bWWJQCRwD3SgxvSDTjR6kkoszQBUHZwlnTA4b1kOvzZ5TDgZafYYx7+oKKyXjpkWxOA3wH50oMbdIPVE1BmaQKgrGakGtpx/WUWFEb0TiQ/vf1XCSV1zok02bI44GyXTwD2tuFzioHfSA8McP2kPOKjjdzcGwYMMhFY2YMmAMpq4tXQclLD6SvU2MfhgHOOs7bq3lmj032mR4Ev2LZLPAHY04bP+T9AfA8nLiqY351dwNTTjBWv+q2pwMp6mgAoKzmAi6WDnn5MqugD89zjMix9AE8aqWV/Je3Y7fUVgNMwtJ9+1YRc4qODufr0HOLMFK86Cd84tKg6QBMAZaWjMfDiMuEY2Up5RVmRDCzz7EZBR/XrEktxtp3Kxfu2hkYXu6oapMO2dAYgFXhKekCAmMggrprgPhuSEBPClacZOSfixH0jQPkhTQCUla6QDpidEmbkYX3qUaniMdtC3/3LqqisxyVbB6gSaGlJ4U+4kwBxl5+aQ2Ls/+r1XHO6sRLWZwF6B9UPaQKgrFKOgfajE45JM7JcP25oinzQNjjtaGsSD39l4ADgphb+20W4l9DFRYUHce0Zv9z3T4wN4YpTjawChAJXmwisrKUJgLLKLRj4+Tvv+AzpkID7JH5pXpSR2M3pXhhNblq4V8f0dwYSgI3N/Hkh8Afpwfa7flIeKfGhh/35tWcaK2E9BfDuL4AyThMAZYVS3N3QRA0si2t3+9/2OMnLRYFOHGiPIkT+ZOvOOumQm4/wZxHAPxDubbFfdkoY10/MO+J/S4oN4dJx2SaGjcdAvQ5lLU0AlBWMvPu/6GSz25Qj+3S8t0BHjB2kCYC01ZtqpEMeaQXgSaCP9ED73X9xMZHhzb/Lv2pCLqEhRl7ap6Llgf2KJgDK28pwd0MTFRcVzBnDZU//H2pot3jCzLywHiYxNoSBHvYyUIdbu0U8ATh0BeBq4ALpQfYbUBbHr0a1fDA0MzmMiSOM/C6U4y4OpPyEJgDK2x7G3RFN1Fmj04lq4V2RhMjwIAZ46TrgsB7xtmlE5E9WbxZPAA4+BDgCeEh6gP0cDnj0is5tOuR66AFBQeI3d5R1NAFQ3nQicLx0UKfTYeoO9GG8VZJ3SNd4r4wTaNaYSwBKgddxd7Y04pxjM9rc4bJHUYypLatTgEwTgZX3aQKgvCUYeNBE4FOPSqFLrncOKA8okykx3JqjumsCYIKhFYBM4F8Id7Q8WHpiKI9e0bldf8fQKkAwcL6JwMr7NAFQ3nIF7j1Ecb9p5kS0Cf1LzW8BRIQ56VVs7jZDoKqubTJxC6Aa+Agw+kP45DVdflH0py1OGJBMWb6RxHgK+uzwC/pNVN6QCtxqIvDwXgleLdObHBdCQYbZ7oADSuNMneIOaGs210hXAQR4CeghHvUgZwxPY/yw9heEcjjg6tONrAIUACNNBFbepa8yyhseB4xsnv/2V/kmwraoXxez2wB9DccPVGvkbwAADDQRdL/kuBD+eHVJh//+OcdmkJpweMEgAVNMBFXepQmAMu1k4EwTgQeVx3Fcf2Pbrs3qWhBtNH73QrPxA9WqTdVWT6Hdnr629IgV/9oqPNTJxWbqY5wCWFMfW4nRBECZFIehTmgA915UZCp0iwztqx7QvZMmACYsXdNa1157uXRcNhOO8bwXxJQxWSaulIYCZ0sHVd6lCYAy6SEMdRE7YUCS167kHcpkAhAS7PB6z4FAsWjVHqun0GbdOkXz8OXtO/XfnNy0cI7tZ+RK4Dkmgirv0QRAmTIaQ/uEDgfcPcWad/8AxdmRxg7pdcmN0gOAhixe7RsrANERQbx5Z3ciwuR+Di46yUh/gF5ANxOBlXfoK40yIQn4M4bqhp8xPI3ena27Jhcc5CA/3UyXvvICffdvQlVNI6s3+8YZgGeuK6VzTqRozLGDk8lIChONuY+uAvgwTQCUCU9hqFpYRJiT+yza+z9YnqE2vZ0yZF/4ldvi1VUmrgCKu+aMXM4a3XKt/44IDnJwwQlGfiXPwkBpb+UdmgAoaVMw0Oxnv5vOKjB+D78t8tLNzCHP0MpCoFu0qsrqKbTquP5JPHhJsbH4U8Zm4pQ/DJgJDJcOqrxDEwAlqRh41FTwTpkRXD/Je1X/WmJqBcDU1kKgW7LG3glAeUEUr9/ejeAgcw2gCjIiGNnbyMFZ3QbwUZoAKCnhwGuAsTts/3dlZ8JD7fEjm2soAchLs351wx/ZeQUgJT6U9+/rSWyUsT5CB/z6JGM1ATRz9UH2eDVV/uD/gN6mgo8dnMxJg+1TdyTNQHU1h0O3AExZvNqeCUBUeBDv3tvDa9ta44akmKgMGAscJx1UmacJgJJwDnCxqeCxUcE8dU0XU+E7xJPqbM1Jjgu1zQqHP6mqaWTFevvdAAgNcfLWXd3b3OJXasyzDRwyBE43EVSZpa82ylPlwNMmB3jg4iJyUu31zthEffXkuPZ1e1NtM2dpJY1N9roC4HQ6+Ovvyi0pZT1xpJEE4GRA9698jCYAyhMxwJuAscvrw3okcJGZfUuPmHhYt7fdq2qb73/abfUUfsHhgKeu6cKZI9IsGb9fl1gKM8Wf1THAsdJBlVmaAKiOcgB/BYytzUeEOXn++lITV5c8Fh7qJCpc9vpzYowmACbMXlpp9RQOcDjg8aklphr0tNmZI3QbQGkCoDruFtynf425Z0qReEU0SdERsglAkm4BGGGXBMDpdPD0taVcMT7H6qkwcaSR1YeTASPlBpUZmgCojjgJuM3kAMN6JHDVBOtfKFsinQDoGQB5lVUNLFtn/QFAp9PBn24otfyd/37dOkWbKDsdgxYF8imaAKj26gL8DYM/O4mxIbxyS1dbLv0fLCZS9t52nBfugQea75ftpsniA4ChIU7+9vtyU6V4O+zM4Ua2AU4yEVSZoQmAao8E4J+A0XtLT1/bhewU+68kSq8AhGkXQHGzl1i7/B8TGcQH9/fkV6OMPGw9YugQ4kkYagKm5OkrjmqrYOB1oMTkIOcdn8EZw605Hd1e0nf2Q4L1dVOalfv/6YmhfP5YX0b3TbRsDi3pnBNpoqtmDtBTOqgyQxMA1VaPAaNMDtAlN4o/Xm2vgj8tka7bHqorAOLmLLXmCmBZfhQznuxnadvqtjB0G0C3AXyEvuKotrgCuMzkABFhTv5xezfxZXWTgoXfsYfqCoCo6tomft7o/QOAJw1O4Zun+tFJ/q69uDOGp+KQ/7EbKx5RGaEJgGrNsRjs8LffY1NL6F5orI+QEboCYG8bttd69QCgwwG/O7uAf97T3SuNfSTkp0fQtyRWOmwfIFk6qJKnrziqJaXAP3Dv/xszaWQ6vx5rj+tR7SGdAOgZAN8VFxXMm3d2555fF9r+9sqhxgwSf1Y7MbxdqGRoAqCakwi8C8SbHKRLbhTPXOc7+/4HixW+BpiglQBFZSaFmVjePkyv4hhmP9+f8cNSzQ9mwFj5BAC0LLBP0ARAHUkI8DZQbHKQhJgQ3r+/h88slx4qM1n2qmJmkv2vPvqSiDAn5fnmtpUcDrhyfA5fP9WPoiz7VqxsTe/OsWTI/+wdh14HtD1NANSRPA0cbXIAp9PBK7d09ekXzj6d5fZOYyKDKMn13a+FXZ06LMVI3Ly0cKY/0pvHryrx+RbODgecOFC8K2Em0FU6qJLl2z+5yoRrgcmmB7l7ciEnDPB+K1RJx/ZLJFKoIdDx/ZN9qhBQdW0TS9ZUMWdpJT+t3Ut9g73a4WFFzQAAIABJREFU7e538cnZ4g/oyWMymf/SQEb0tuf9/o4wcA4AYLSJoEqOb669KlPGAA+aHmTCManceFa+6WGMiwwP4pKTs3jk9TUexXE44Lozc4VmZU5tfRN/n76Jlz7awKzFldTVNx34bxFhToZ2i+fCE7M4fXgqQTY5CJeVHMbvzi7g1hdXeBwrIymM568vNfWwtNSoPkmEhTipPeh7KuAY4BHJgEqWPX5LlR10BWYA4neCfjFIQTTfPN3Pp+77t6Sisp7Sc79hy466Dsc4a3Q6L99s79XSz3/YwUUPLWbZur2tfm6PohheurGMXsX2KILT2ORi7G9/4N/fbu/Q3w8OcnDF+Bxuv6CTX/drOO43c/nku459jZqxE0gCRLMKJcc/XoWVp1KA/wBGC5YnxITw6aO9SU/0n8NuEWFBDC6P4+Vpm2jswJ3zbp2ieeeeHrauAfDChxs48/YFbNtV36bP31xRx98+2URpXhSleeId59rN6XBw2tFpzF+xh5/Wtp7AHGx4rwTeu7cn5xyX4fN7/a3ZtrOej2UTgHDcN4k2SQZVcjQBUGHAh0APk4M4nQ7euqs7A0qN9hGyRG5aOP27xPLBN9uoqWv7m52BZXF8cH9PkmLte/3vna+2cM49C9ud3NQ3uHj7yy0UZ0fSrZP1BZ5Cgh1MHJlOUmwIsxZXUl3b8vepvCCK568v476LikhNCPXSLK0VGebkmffWS4ddDMySDqpk6BaAegk43/QgD1xSzA2T8kwPY6nl6/dy7R+X8f7XW1v8vMjwIK49I5ffn1Ng63eVW3bUUXruN1RUtu2d/5EEOR28eGMZ5x6XITgzz+ze28irn27ivRlbmb9iD1t31hHkdJCfEc7AsjjOGJ7GqD6JPlfQx1NNTS7STvmyzSs9bfQOMF4yoJITWD/h6lA3AA+YHuT8EzJ56cYy08PYxndLKnnz881Mn1PB+q217NjTQFpCKF1yIxkzKJkzhqeZuHct7uonfuKxNz074Aju1Z/nflPK5DGZArNSJk24dT5vfbFFMuQ2IBWw5zWRAKcJQOA6GXd2bvQt6FHd45n+SG9b73Grw1XXNpE67gv2VDeKxHM6Hfz5pjLOOdY+KwHqcE/9cx2XP7pEOmw5sEg6qPKcvioHpu7AKxj+/nfKjODtu+19wE0d2X8X7BR7+IN7efnC+xdJv7tUwob3SjARdoCJoMpz+soceJJxv/M3ejIrJjKIf97Tg+Q4+x5wU82bv2K3eMyGRheT7lzAh99sE4+tZJTmRYmXuEYTANvSBCCwhAPvAZ1MDhLkdPD6Hd1tcfpbdczWnaIHwQ6ob3Bx+m3z+Wr+TiPxleeO6Sm+CqAJgE1pAhBYngIGmR7kkSs6c3x/3y7zG+hM3k6orm1i3O/msWhVlbExVMcdLZ8AdAWsLwihDqMJQOC4DLjA9CCTx2Qy9bQc08MowxIN1ybYsbueY6/7nrVbaoyOo9pvYJl4rY5goI90UOU5TQACwyDgUdODjOqTyDPXlZoeRnlBRpL54jfrt9Uy9sYf2FXVYHws1XblBVEmSnUPlA6oPKcJgP9LA94AjL6il+RG8vod3QgO0pul/sBbdQrmr9jD6bfOp6FRr4nbRZDTQb8u4i1BdAXAhjQB8G/BwD+ALJODJMSE8N69PUmI0RP//iI90Xvlb6fNruC6J3/y2niqdQPktwGMlhpXHaMJgH/7A3C0yQFCgh28cUc3OudEmhxGeZm3+xM8/tZanpWvQ686yEDPjiJAXyRsRhMA/zUOmGp6kMenljCyT6LpYZSXRUd4v+3tlY8t4bO5O7w+rjrcwHLxBCAI6CYdVHlGEwD/lA28gOFSz1eOz+GScdkmh1AWCQl2EOblCo71DS4m3DqfVZuqvTquOlx6Yih5aeHSYXUbwGY0AfA/wcCrgNGL+Mf2S+KRKzqbHEJZLDbK+6sAFZX1TLzjR+rq295WWZnRX34bQBMAm9EEwP/cCgw1OUBJbiT/uF1P/Pu70GBrvr+zFu3imj/qoUCrdS8Ur+SpCYDNaALgX4YDvzc5QFJsCB/c35P4aO+/O1Te5bAwv3vqn+t4+ZON1k1AmSjl3VU6oPKMJgD+IxF4GYPf05BgB2/c2Z2iLD3MGwgcVmYAwKWPLGHZur2WziGQGVgBiAPSpYOqjtMEwH88DmQaHWBqial2oUodZk91IxPvWKDnASySnx5h4hyIHhyyEU0A/MPJwFkmB5h6mp74DzT1DdY/eL//aTc3Pbfc6mkEJIcDuhaI9/ApkQ6oOk4TAN+XCDxjcoBhPRL4w2WauAeaqppGq6cAwKNvrOHf3263ehoBycA5AE0AbEQTAN/3BJBhKnh6Yiiv3tqVEItOhCtruFywt8b6FQBwz+XC+xdRUVlv9VQCjiYA/k0TAN92CvArU8FDQ5y8dVcPMpO90xhG2UdNXRONTfZp0LNxey1TH19q9TQCjiYA/k0TAN8VCzxtcoCHLytmcFfxYiDKB1Tstt+77VembeLtL7dYPY2AYuDGTwGgXcNsQhMA33UbBq/UnH1sBleMzzEVXtncpu21Vk/hiC59ZAlbd9ZZPY2AkZEURmR4kGTIYNylypUNaALgm8qAK00FL82L4tnrupgKr3zA5h32fMhu2VHHtU8us3oaAcPhgE4ZEdJhc6UDqo7RBMA3PYahZbSwECev3tpVOutXPmZThT0TAICXP9nItNkVVk8jYBRmiScAedIBVcdoAuB7TgNGmQr+wCVF9CiKMRVe+YjVm2qsnkKLLnposW2uKfq7wkzxBED3Fm1CEwDfEgE8bCr4iQOTmXqars4pWL7e3iV4V22q5q6/rLR6GgGhUP4goL7I2IQmAL7lNxhaPktPDOWlG8ssbQCj7MPuCQDA/72xhg3b7HlY0Z8U6RaA39IEwHfEA9eaCOxwwJ9vKic1IdREeOWDlq+vtnoKraqtb+KxN9dYPQ2/V6CHAP2WJgC+4xrcSYC4C0/M5Lj+SSZCKx+0YVutz1Tde3fGVqun4PcMFALTa4A2oQmAb0gArjIROCMpjIcuLTYRWvmouct2i8YLcjo4ushMF8mla/ayxaZXFv1FVHiQdFfAGNznmZTFNAHwDdfi7qUt7o9Xl5AQo4W51P9IJwCdkiL4yzldiQ4zc7V0ixYGMi4jSXx7MEU6oGo/TQDsLxGYaiLwaUenMn5YqonQyof9sFw2ASjPiCYvMYJ7TjKz0lRbZ4+mRf4sI1F8G0ATABvQBMD+rsVd919UQkwIT1ylfTnU4b7+cZdovPIMd0OZK4blMLhA/hhLTmq4eEz1SxlJ4gmAvvOwAU0A7C0KuMxE4Ht+XWjil1r5uOXr97JRuA9A130JgNPh4IWzygkPkXvZSU0I1dsrXqBbAP5JEwB7Ow/3AUBRJbmRTBmTJR1W+YGv5u8Uj9k/73/HV7qkRXHr8YVisU8/Jk0slmqergD4J00A7MuBoYY/D1xcTEiwVvxRh/tynmwCkBQVQkHSLw98Xz8qn945nu9qBTkd/HpspsdxVOvSEnUFwB9pAmBfIwDxlnxHdY9n3FD93VOHc7ng42+3i8bslxd3WHXJYKeDP5/dlQgPtwImj8nUvhVeEid7DRBAC4/YgCYA9nWhdECHA73zr5o1d9lu8f3/g5f/D9YtM5rHJ5R2OG6fklgevrxzh/++ah8DCUC0dEDVfpoA2FM8cKp00NOPSWNAmZFyAsoPfDRzm3jMYYXNH2GZMjiLJ07vQpCzfdtRfUpi+eD+nkRHaMtqb4mL1gTAH2kCYE8TEa6U5XQ6uP2CTpIhlZ95/2vZsrphwU4Gd2r52t8Vw3L55PI+lKW3/jwIDXa6rpqQ0zjjyb6ky+9JqxbERmoC4I/Ev6tKxETpgOOGpFCaFyUdVvmJlRur+W5JpWjMgflxbdrnH9E5kXk3DeKf87fw2pxNfLNyJxt2ubcigp0O+ubGMqokiUuG5jiy+oV8TQhHiU5UtUpXAPyTJgD2kwHyL3A3nZ0vHVL5kdc/24zLJRtzROfENn9usNPBhJ5pTOjpvtZXXd9EY5Pr8PLBq8mnS1MD+trlVXoGwD/pFoD9nI7w92Vot3j6dREvJqj8yGufbhaPeXxZcof/bkSI88i9A+rIoZZZHkxLdUBwkIPIcNEzF7ocaQOaANjPOOmAl56i3TdV8xaurBKv/58WE0rfXENJ5xpnBqANALwsRvbQpa4A2IAmAPYSAwyVDJiWEMqEo7Xolmrenz5cLx7zhLJknIcWAJBSTSfqdBXA24SLh+kKgA1oAmAvIwHR481njU4nVLD2uvIvtfVN/O3jjeJxx3Y1XGxqtTMVED61oFoSEiz6OqJ3OG1AD9LYy/HSAc8+NkM6pDrEpoo61m+twel0kJ0SRkq871xRe/vLLWyvrBeNGRUa5NH+f5tUU0g93xFCP7MDqf2Cg0RXAPRdiQ1oAmAvwySDlRdE0atYS6WasHBlFU+8vYb3Zmw7rHpeQUYEpx6VwpWn5ZCfLlrOQdyT76wTjzm2awpRoV54g7fJ6SRHjwJ4i4H+IUFAo3RQ1XaahdlHCsK1/08bpp3SpFXVNHL5o0vofuFMnn1v/RFL567cWM0jr6+h81lfc8sLK6hvsOdK9beLK5mxQL7735m908VjHtEO+uDiZ+8MpoRXAECfP5bTb4B9DMHdAVDM2MGGl2EDzNaddQy/ag5P/XMdTU2tP9TrG1zc/deVjPntXKpq7PdG59E3VovHjA0P5gTTy/8H2+6UX8JQRyR8BgD0HIDlNAGwj4GSwTKSwuhbonf/pezYXc/o6+Z2qFretNkVTLrjxzYlDd6yZnMNb36+RTzumb3TCffmodON9MHFHu8NGLh0BcD/6DfAPnpIBhvVJ/GwNqyqYyqrGjj++rnM8+Cu/Ptfb+WZ9+Sv23XUA39fRUOjfEJywcBM8ZgtchFFDXO9O2hgamfPprbQFQCLaQJgH90lgw3r0XITFtU2e2saGXvjD3y72PM6+be9uIK9NtgKWLe1lhc+3CAet0taFIMKLPi52+jQ3vJeUCd/lkWfPxbTb4A9pACib52G9Wi+Datqm5q6Jk75/Ty+mi9zUG7brnreMLDs3l73vbyS2nr50/OTB2WJx2yTPY4yGl0/WTN44KiT/5mRvX+q2k0TAHsQPf2fHBdC55xIyZABp6nJxXn3LmTa7ArRuB/N3CYar73WbK4x8u4/OiyIKYMtLDm9I2iTdYMHhroG8QTg8Cs0yqs0AbCHQslgPYr07r+nbnxuOa9/Jt8gZ8HP1p5X+93zy428+79wYBbxERaWFdlCOdBg3QT8X22d6BZAPVoDwHKaANhDJ8lg3Tppnw1PPPPuOh56Vf6KHMDPG6otuw0wZ2klrxro+ud0OLjy6FzxuO3SQBINzLN2Ev5NeAVA3/3bgCYA9iCaAHQt0ASgoz6auY0rH1tqLH5tfRMbttcZi9+S659eZiT5OLlbCkUpNthy2u6otnoK/kz4DECNZDDVMZoA2INowf6CjHDJcAFj4coqzrx9gZHrcQdbudH7z6l3vtrCZ3N3GIl9zfA8I3HbbaujO/pgMUb4FoCuANiAJgD2IFo6ze715+1oV1UD42+Zx55q89uSi1dXGR/jYFU1jVz9hJlD8n1yYhlWZJMbJ03EUufQbQADXC6kr7BqomYDmgDYg1jv1P0d6VTbuVxw3r0L+WntXq+MN3+Fdw8C3vWXlazZbOb19rqR+UbidliFXi0zYU91o/TKmK4A2IAmAPYgVsgkNjKIUG+WYvUD972yknf/u9Vr481f0fGKgu21aFUVj76xxkjs8oxozuhls4ZTFc4y9HS5uB27xfMq72TbqkX6pLBe6L4PEQkxIVKhAsK02RXc+oJ3G8p9/9Nur3QIbGxyMeXBRSYKuABw99giggzUh/VIgyuRRteP4C68VFGpCwISdu4Rv2Fp5kCKahcLL+6qfURP7CXE6Le0rXbsrufC+xfS6OVreVU1jcxdtpv+pWabNT3yjzV8s3CXkdj98+IY1y3VSOyO2rK7jhe+Wc8rD20sWL5x74F6B+GhTvp1iWXc0BQmj8kiPlp/R9qrQn4FYLt0QNV++ptgPdEN+4gw7a/RVr9+aDHrtlqzFfnfBTuNJgBL1+zltpdWGIt/38nFtmk21eRy8eD0Vdz78Up21zYA/OILW1PXxFfzd/LV/J3c+/Iq7rywE5efmmPNZH3Uzt3iKwAy9bWVR3QLwHqiCYDdVmTt6s//2sBbX1hXl/+r+eZWQBsaXVxw/0Kqa80s/Y/uksSIzolGYrdXVV0jpz7/Aze9t2z/w79FFZX1XPF/SznnnoXGtkb80c494isAsjW2VYdoAmA90fVnh13eltnYyo3VXGXoWlxbfTqnwtgD6JYXVhhb+nc44J6xRUZit5fLBRe+spD3FrT/AOfLn2zkoj8sNjAr/7RDfgVAEwAb0ATAetaUhQtQLpd76b+yytqy8bv3NvLFPPlV0I+/3c6DhsoYA5zZO51+eXHG4rfH41+s4fXvO94D6C//3sjLn2wUnJH/2rxD/GVKEwAb0ATAeqJra3boN29nf/tkI5/Oscdrzwdfy1493LyjjvPvW2is10BMWDB/OKXESOz22lndwF3/9vyMw43PLtffmTZYt1W8joQ9fgkDnCYA1hM9hVa5VxuiNaeisp7fPLXM6mkc8ME3cq2BG5tcTLpjAZsqzC0o3TGmkKx4exSZeuW7jWyv8jx3Xr+tlve/trZFsy/YsE38sKxeA7QBTQCsV4NgG1Orl7bt7IZnlrF1p312XH7eUC22V3/3X1caq/UP0D0rxvqOfwd5/0e5A5zvzfBeEShftV4+AbDuBK46QBMA67kQzIZ37G7AZU23WVubsWAnL360weppHEZiTu9/vZU7/7JSYDZH5nDAk6eXEmyjKybz1suVU/Z2aWZfZOC67DrpgKr9NAGwB7H9sNr6Jrbtss+7XLu44ZlltkyMXvt0k0cNiBatquKcu83t+wOc1z+ToYXxxuK3V5PLxdY9cj/jG7ZrWfqWVFTWS5+TqAA067IBTQDsQfRAjFXFbezq7S+38PWPZq7FeWpPdSNvfr65Q393y446TrxhLrsMbvukRIfy4CmdjcXvCAcOQoLkViPCtHdGiwwkSPru3yb0J98eOvYEaIaBE7s+q6HRxe+eX271NFr0zHvr2/13auubOPXmeaw21OVvv2cmlpISLdaqQoTDAekxcocRM5PtcbDRrgy8oVgrHVB1jCYA9iB6cXv5umrJcD7thQ83sHSNvRuPzVq0i4+/bXtpdJcLpjy42Piqxjn9Mxnfw2bd/vYZ3EluS2JIV3vUNbCrFevFf380AbAJTQDsQTQBWLS6SjKcz6qrb+Luv3q3019H3fHnts/zt88uM17AJichnMcndDE6hidO6S7XiGjc0BSxWP7op7WaAPgrTQDsQTYBWKXnawBenrbJZ85DfLOwbasA9728iocMVvoD9xL7cxPLiI+wb6+w8T1SKUuP9jjOgLI4hveyR18Du9IEwH9pAmAPone4Fq6ssuWJd29qanLxh9fMPCgzYsNwGui5cPtLLa8CPPf+en7/J/PnGS4/Kpfjy5KNj+OJIKeDR8aXePR9CAl28NiVnW3T1dCulq0TTwD0EKBNaAJgD0sBsXs2u6oaWC6/b+dT3puxjcWGtkKenVTGyBL5d40zF+3i1U+PXNv+9c82c9kjS4wndj2yYmx36r85x5UmcZcHjYken1rCgDLd/29JXX0TqzaJHzQ1V7RCtYsmAPawFxDdrJ65yJ7X3rzlwVdXGYl7ao9UTuqawkVDso3Ev/aPP7Fzzy+v9b31xRbOvvtHGg3e9QeIDQ/mjck9iPCha3G/O7aAZyeWtatIUWiIk+evL+WScWa+h/5kxYZq6Z+7vcAayYCq43znN93//SgZbNaiSslwPmXe8t1G2uFGhQYdOBg3rlsq6bHy18c2VdRx7R//16r49c82M/GOBdQ3mN/TeeGscopTIo2PI+2iIdl8cXU/BhW0fjNgRO9EZj7djyljs7wwM99nYPn/J8BMH2zVbvY95RN4fgROlQr2zUL5VrO+4k8fmin5e93IfLLjwwEICXJw6dBsbvvI8450h3rpXxs4fkASjU0uzr1nIQ2N5h/+Vx2Ty4Se9rzy1xaDC+KZcU1/Zq7aybsLtjJ3bSXrd9XiABJig3cdMzAhbtyQFPqUxFo9VZ+yRP4K7RLpgKrjNAGwj7mSweYt30NFZT2JsSGSYW2vuraJV6Z1vEd8c9Jjw7h+ZP4v/uzyYbk8OH0VVXXy7WSnPLiIvTVNxpf9AQbmx/nMvn9LHA4YVBB/+EpAmGMnJY262d8B85bvlg6pCYCN6BaAfcyUDNbY5OI/3wdex823vtjMjt2et4k91K3HdyI6LOgXf5YUFcKUwWaWknfvbfTKwz8zLow3JvcgNMiPXwrqXBnosnOHzF2mCYA/8+Pfep+zEVglGfCT79peXc5f/Pnf8gVysuPDuXDQkR/0147IJyzYN3+NIkODePeiXge2NfyWi1C0/Wy7VdU0mqgBoAmAjfjmK5f/+kYy2LTZoj2GbG/brnq++EF+1eP6Uc0/5HMTwrnY0I0AkxwO+Ms5XembGyB74o2ObVZPwdfMX7FHehWqCfchQGUTmgDYi2gCsGpTdUD1On9vxlbxA3Mp0aH8enDLD/ibj+9ETJhvHae5e2yxTx/6a7dGl/hatr8zsPy/BtBGJTaiCYC9fCYd8K0vAmfl08S/dfKgrFbvxadEh3LdyDzxsU05t38mN40usHoa3lXjqLN6Cr7mB/kEQPSqs/KcJgD2shD3WQAxb38ZGAnArqoGps+R3fIIcjq4eGjblvevH5lPQVKE6PgmjCpJ4vlflQVe+Vv5c6F+b85P4rVE5kgHVJ7RBMBeXMA0yYA/rtxj4iCP7UyfXUFdvexB7xPLkslPbNtDPTI0iMds3D0P3Ffk3r2op3+f+G9OvcO39mgsVlvfxMKV4qW0NQGwmQB8JbC96dIBX/uP/L14u/lsrvzhv3MHZLbr80/qmsKpPeTa1Eoqz4jmg0t6ERka1Pon+6Nal3zZRj/27eJKaoUTamC2dEDlGU0A7GcawneW//rvjX7fHfDzH2SX/+Mighlb3v4+8Y9P6EJCpL2KL+UnRvDxZX1ItNm8vKrBEWX1FHzJjAXilUTXI7y9qTynCYD9bEK4KNCKDdX8V/4X2ja27Khj0SrZ5crxPdII70BTnOz4cJ6dWCY6F0/kJoTzn6l9yYoP8DfAda4Aue8oY8aP4q8XuvxvQ5oA2NM70gH/8m8z9fHt4PMfdoivcIzr1v53//ud3iuNyc0UDvKm7Hj3w98XDica1+hovVOQAsDlgq9/FG+m9Z10QOU5TQDsSTwBeOPzLeyplq9ZbwezhFsfhwU7GVmS5FGMxyZ0oUuadavO2fHhfH5VXwqTfa+7nxFNRKLlgNtk4Sp3HxFhugJgQ5oA2NMKYL5kwMqqBl7+xD+34OYJFzs6uijhsLr/7RW1r8yuFfvu+YkR+vA/nAMtQtMm/51vZLtQEwAb0gTAvt6UDvjkO+ukQ9qCdMey4Z0TReJ0To3krSnebbTTJS2Kr67ppw//I3G5aqyegi+YIb/8vxrtxWBLmgDY199w1wUQ8+PKPXw5z786BK7dUsO2XbLLlUcVJojFOqY4kWcneedQYHlGNP+Z2tf/m/t0mEMTgFa4XPCf78V7iHwhHVDJ0ATAvlYBM6SD+tsqgHSvg7Bgp3iDnPMHZPLwqSWiMQ81uksSM67pT0ZsgJ/2b1mt1ROwuwU/72HDNvEvkyYANqUJgL39TTrg219uYdUm/9kKXSpc5bB7VoyR9r7Xjsjj0fElRkrwThmcxYeX9CYuQovdtciF9gNoxcffGmkh/rmJoMpzmgDY2xsIv2tpaHTx8D/WSIa01GrhZKZbRrRovINdPTyPp8+Uq8PvcMBtJxTy/KRyQoICrbh/B7j0a9Saj78TTwDWAj9LB1UyNAGwtx3Au9JBX/xog/i+uVXWbJHd1i03mAAAXDwkm1fO695qh8HWRIQ4ef3CHtx+YqHQzAKAPv9bVFXTaOIGgHiHUyVHEwD7e0Y64N6aRp54a610WEus3iSbAJSlm7+7P6lPOl9e3b/D1flyE8L54qp+TOiZJjwzFcg+n7vDRP1/3f+3Md00NCMR6A5kAWlANhCFezl/L1C57+MnYBHQ0sm8z4HFQKnkBJ98Zy3XT8ojOsK3m8Os2SybAOS1sfufp/rmxvLd9QM57U/z+GZl2991HVeaxMvndic5OoDr+neYv3fE8IwF+//ZQBlQAsQAsbhfJ0OBKtyvi5tx9xGYD4hfTwh0mgDISABOAIYCRwHltG/BcS3wJfAf3M2ADn577sK9CvCYyEz32V5ZzxNvreWms/Mlw3pVfYOL7cIVy/ISvXeFLiM2jK+u7seTX63lvk9Wsqmy+eMe+YkR3DGmkHP6ZRo5SBgQXLLXav3Nv+UTgDX8cv8/BxgNjACG7fv/beXC/WbpK+C/wEe4t0iVB/SlpOOCgeOB84CTAMn7V0txJwLTce+hOXFnw6Lr04mxIax8bQixUb6ZB27bVU/KyXIrjMnRIWy9b7hYvPaoa2zi48Xb+eynCpZv3cue2kZiwoMoS49meOdERpUk4tQnv2fKG38iyNHZ6mnY0Y8r99DtfNEeZAD/BP4CjNr3IXkXthZ4f1/8fwMNgrEDhm++8lsrBpgKXIl7ed+Ekn0fV+D+wf4Wd7YrmgBUVNbz2JtrueW8AsmwXrOrSvZ3PjkqVDRee4QGOTmpawonde14EyJ1uCaXi3U7a2lodMHGxsj8zAicTk2kDvX2l0YK9Z2y78OEMGDCvo/NwOP7PmQLg/g5TQDaLhK4HLgBSPbiuMHAYFPBH3l9NVeelkN8tO/9KOzaI5sAxOs9er/Q5HLxwY/beG7GOv778w6Mi6SeAAAgAElEQVR2VR/4OcmOjghiYFkcU8ZmcepRKYR6eBvDX7z95Varp+CJNOAe4GrgQeAp3GetVCv0p79tfoW7Qc+DePfhb9zOPQ08/I/VVk+jQ3bukd3/T7CgcY+StXhTFQP+MItxz83lw4VbD374A7CnupHpcyqYeMcCek6eJd5J0het2FAt3k/DIinAQ8ByYJLFc/EJmgC0LAv3PtMrQLrFczHm0dfXmCj/adzeGtkrS1Ghvn0jItBNX7qdvg/NZPaayjZ9/uLVVQy9YjavfrrJ8Mzs7e0v/K5PTwbwd9w1VDItnoutaQLQvCnAQmCs1RMxraqmkVtfXGH1NCwXpHvDPmvWql2c/Oxc9tY1tuvvNTS6OOfuhXz4zTZDM7M/Q/v/dnAy7tfwC62eiF1pAnC4cOBF4HkgzuK5eM2f/7WRBT8H9vkZLafrm2obmrjwlYVUd7CITWOTiwvuX8SWHYHXKmD9tlpmLfbrbZB44AXgZdznuNRBNAH4pRzcd0wvsHoi3tbY5OLGZ5dbPY12kb4V59Brdj7p6a/WsmiTZ8nr1p11PnsWpr227qzjtU83M/mBRQy85NtAKY90Fu6iRO2pPeD39Njz/xwFvAmkWj0Rq3w0cxtXPb6UMYOSOap7AhFhgZUf1jaIl0FVhrlc8Mx/ZVpc/+nDDdx+QaHf/dxX1zbx1fwdTJ9TwbTvKpi3YnegPPQP1Q+Yjfvq4FcWz8UWNAFwOxF4C/fyf0B7/K21PP7WWsJDnQzpFs+oPomM6ptI7+IY292fDhJesm/v/rGy3srt1SzdUiUSq6KyntlLKzmqe7xIPKs0Nbn4ftlups+uYPqcCmYs2ElNnSa3+6QCHwOnAf+yeC6W0wTA/YPwd9z1p9U+NXVNfDqngk/nVHDTc5AUG8KI3u5kYHTfRAoyvFMzvyXSfQw0AfA9c9e17cR/W81e4psJwMqN1UybXcH02RX85/sK8RLZfiYCd5XCicA7Fs/FUoGeAJwNvIR+HVq1vbKeNz7fzBufbwagMDNiXzKQxPBeCSTGev8OfZxwCePKGq0m6mt+2iJb70W6uqQpFZX1fDZ3B9Nmb2f67ApWbKi2ekq+JhR4HXcp979bPBfLBPKDbyLuOtL+teHnJSs2VLPivfU8+956gpwOeneOOZAQDO4aR5gXKqxJJwBbhQsLKfNWVcg++JpsujleW9/E1z/uYvrsCqbN3s73P+2mscmec/UhwcBfgXrgDYvnYolATQCGAX9GH/4iGptcfLekku+WVHLfy6uICHMypGs8o/omMqpPIr0MnR+QbmK0ZbfvFUMKdKu2yyYAKXH22Qn8eUM10+e4l/U//m47lT6yOuFjgnBfEdyOuxtrQAnEBKAM9/6PZPc+dZDq2ib3C9ccd/vu1ITQA4cJR/VJJCdV5qxlbGQQDodcl/fq+ib21DYSHaYVAX3F6ooa0XjZqda9LKzbWntgSf/TORVsDsC6BBYJxb0CMBRYbPFcvCrQEoAM3H2kE6yeSCDZsqOOv0/fxN+nu0uudsqM+EVCkBDTsfMDTqeD1PhQ0RfKNTuqKUuPFounzHG53N8vSdkp3rsIVFXTyDcLdx04rf/9T5WBej3PDhJxPxsGAQFTGzqQEoAQ4G0gz+qJBLqfN1Tz3Ib1PPf+eoKDHPQvjWVUnyRG90tkQGkcIcFt3y7ISQ0XTQBWbtcEwFds3l3b4ep/zclOMbcC0NDoYuai/+3jf7u40t2mWNlFPu7r4MfgPhfg9wIpAbgfGGj1JNQvNTS6+PrHXXz94y7u/MvPRIYHMbg87sDqQO/OsS1W/MtJDWf2UrmrYKu2yy4pK3NWCS//hwQ7SEuQPQNw8D7+tNnb2SncwlqJGwzcDfzW6ol4Q6AkACcD13h70LDQEPqXFlBWkEVKXAwOp4MtOypZ+PN65ixdRXWt7vEdam9N4y/OD2QmhzGqj7v2wKi+SaQn/vIFOkd4z3b5Nm0j7itWC98AyEkN9/iw6qaKOqbP3n7gob/eB7tseltEaDA9CjIoykgkIzGGhsYmduypZuGaLfy4ejPVdV5Pmq4HvgQ+9PbA3hYICUAe7rv+Xitj1zknnfHH9GXs4J7ERB55T7G+oZF5y9cwc+EKZi5czsKVG2hq0mpdh9qwrZa/fryRv368EYCuBdGM7udeHTi6Z4LYgcL9Fm0M7IZIvkT6BkBhZvuLW1XVNPLlvJ0HDu/9uHKP7uO3wul0UJqdQr/iLPoWZdEtP42QoCNfyKquq2f6Dz/z1jcL+Wn9dm9N0YH7ingvYK23BrWCvWq7ynPizuSGeGOwpLhorj3zeMYM7tHuxjKVVdV8t3glMxcuZ+bCFazZ7LUfdp8VGuIkIzGU1ZvlloIz48JYf/fRYvGUOZNfWciLM9eLxbt0XDZPXdulxc9pbHIxe0mlu67+7Aq+WbiLOuFzCP4oJznO/cAvzqJPYQYxEe1buXO5YPq8FTzzr+/YuGO3oVke5kvc5wH8NqXz9xWAS/HCw9/hcHDGiP5cOWF0s+/4WxMbFcHIvmWM7FsGwIZtO/atDqxg1qIV7NytS9OHqqtvEn34A2zYVcuOvfUkRHq/sqFqn3nrZR8ERdlH7ha7bN3eA0v6//m+Qvfx2yA+Kpy+RZn0Lc6iX3EWGQkxHsVzOGB0z0KGluXxxAczeXfWYm+stAwDLgKeNT6SRfx5BSAbWAjEmhwkPDSE2yefygkDuxsbo8nlYunqjQe2C+b+tJraen0RMuWzqX05pjjR6mmoFjQ0uYj5zafUCL77fvfeHpw8JIVtu+r5dN85lOmzK1i1ScvstiY0OIgeBen02/fAL85MwmmwvfZXi1Zzx6ufsbfW+GH9Xbhrx2wwPZAV/DkBeBf34T9jMpLj+b+pZ9ElL8PkMIepratn7rI1zPxxOTMXrWDp6o22LWHqix4Y15kbRuVbPQ3VgkWb9lB+z9eiMSeNTGfp2ip+WL6HJi2z2yKnw0FxZtKBB373/DTCQry7oLxiUwU3vPSJN7YE3gHGmx7ECv6aAEzAcG3n/IxkXrhpCslx1t8Z37l7L7MWrTiwZbBh2w6rp+TTJvRM443JPayehmrBa3M2MenP862eRkDJSIg5sI/ftyiT+Cjru6dv372XK5/9kFVbdpoe6jTcdWT8ij8mAOHAUiDX1AC5aUm8cNNkUhOM7i502LqtFe6zA/s+dlXpEmZ75CaEs/rOYVZPQ7XgpveWcf+0lVZPw69FhIbQNS/1wGn9LtnJVk/piHbsqWbqcx+xYlOFyWHWAZ0Bv3ox9ccE4AbgAVPBs1MSeeF3k0lPjDM1hKimpiYWrtxw4HbBvOVrqG/QvvetKUqJZFRJEqO7JDK8OFEPBdrMmGe+56OF26yehl8JCXLSNS/twLJ+aXaKkSZeJlTsqeaiP77Lhgqj2wG/AR42OYC3+cZ3t+0SgeUYqvUfExnO32+/lNy0JBPhvaK6to45S1e5zw8sXMHy9Vtw6fmBFgU5HfTJiWV0lyRGlSQyuFM8oc3cW1bekXPLl6zbqVUbPeFwQKe0xAMP/J6dMogI9d2LYau37OTip96jcq+x4ksVQCFgfL/BW/wtAfgDcJ2JwE6HgyeuPYeh3TubCG+Zbbv2MGvf6sDMhSvYskOurK6/igoNYlhRAqNK3AlBt8yYFssVK1nbq+pJvvEzq6fhk1LiouhXlLVvLz+TpJgjX330VXN/3shVz39EQ6Ox2gwPADeaCu5t/vSylQcswX0GQNzU00czeaz/F4j5ef0WZu47UDh78UqqarSUaWvSYkLdyUCXJEaXJJEVr52mTVi/s5bpS7fzzvwtvDt/i9XT8QmRYSH0LsygX5H78F5Bmv83Qv37F/P544ezTIWvxn0WYJ2pAbzJnxKAp3AX/hE3sm8ZD18xqd3V/XxdY2MT81esPVB/YMHP62g0l1n7jdL0qH3nB5I4pjiBmDDfXVa10u7aBj5ftoPpS7Yzbel2Fm+qsnpKthfkdFKWk0L/zu4HftfcVIKcgbVd5XLBjX/5hK8WrTY1xBPAVFPBvclfnmjJwGpAfD0rISaKd+6bSkJMlHRon1NVXct3S1YeOD+wcuNWq6dke8FOBwPy4/adH0hiQH4cwT5ysMrbGppczFq1i+lLtzN96XZmrtxFg97Hb1Vearx7Wb9zFr07ZRAVLtvR0BdV7q3lrEfeZHulkQqqVbhvmRm9duAN/vJKdDtwm4nAD10+kWP7dzUR2udt37WHOUtXMWvhCr6av5TNFXp+oDVRoUEMKohnVEkio7ok0Tu75XbH/u7nbdUHHvjTlmxnZ7VWuGxNfFQ4vQsz6VecxYDO2aQnWF+LxI5mLF7D9S99bCr8LbjbBvs0f3jpicD97j9FOvAxvbrw2NVnS4f1WwfXH5ixYBlV1Xp+oDVpMaEHDhSeWJ5Mdrz1xVVM2rqnzr2sv3Q7Hy/eLt7S1x+FhQTTPT/twH38kqzkgE4a2+P2Vz/jk7nLTYTeAuTj43UB/OHH6BLgaROBH7zsTEb0KSMkOMhEeL9W19DAvGVrDtwuWLRK2x23xuGAbpkxjN53u2BYUQKRob79s7e3rpEvl+9g+tIKpi3dzoINu7VdbiucTgclWcn033c9r1temr4GddCOPdWc+eDr7KmpMxH+IuB5E4G9xR8SgMVAyz08PRARFkqfknwGlhcyoLyQ4uy0gDsMKGFXVTXfLf7ZnRD8uJy1W3x++8y4sGAngwriD9Qf6JMTS5DNzw80NrmYs7aS6UsrmL5kO1+v3EltgyZ+rclKiqVfcRb9i7PoXZhJbKTeJJHy6pcLeOKDmSZCLwR8en/Y3q8mrRsMzPDmgAkxUfQrLWBAeSFDuhaTkRzvzeH9xradu/n+p9XMWriCz39YwradXuvx7bOiw4IYmP+/8wN9cuxRivrgffxPl1ZQsdd4hzafFxcZTp+izANFeDITPWuXq5rX0NjE2Y+8yZqtu0yEHwB8ayKwN/h6AvAc8GsrJ9ApM4UB5YUMKi+ib2kBUeGaubdXk8vFktUbD9wu+GGZtjtui4L/b++8o+Oqrr79aNSb1Wx1yeqyJctdLnQwHUIIoSaEJIQ0khdS3iSkkeTlg5BOSSEJgUASWiCYFoNtMGBsy5IsNxVLmlEf9Wr1kTTz/XGlkVw1ks7VvXd0nrXuWlhlz2Yk3bPvOXv/fhH+znHDSzLCiQicH7nijv4R3qvoZMcxZdGv7jD0Mei84OPlycqkaHLTY8lNjycjTl27XMmJfFBcw/ef3aFG6CdQafx8PjDyb6A/ikezbh7BTSYTyxKj2ZSdxsbsVNZlJsmzu1kwYXe8f1x/4Ji0O3aJrOggPpazhEszwzkvJQw/bzHz36N2B4etvew81sEbxW3sq+6RPw8XiA0Pdj7hb8pMIMBX+klohcMBX3h8K8cahI8u9wAxGLQZ0MgFwKeBf2qdxNlYFOjPlRtzuPHiDWQmRmudjmHp6u1XioFSC3nFFpo63EaKWzX8vU2cnxrGpeP6A6viglx+4rQ7HBy29inb+sc62G3pYnBEnuNPR1RoEBsy4pyqe3qwy5VMouIuwG3AC2oEVhsjFwA7gEu1TsIVTCYTt27ZyD03XYa/rxTpmCu1ze1OdcL80mr6BqUpzHQsCfJhS2a488ggMezExamua8i5pf9ueSdtfap0TbsVQX4+rE2NVVT30uJIXGIMh9CFisMBn33kFcxNwhuQ3wGuFB10PjBqAbAEaAIMtb++On0pf/j2Zwjyl08GorDb7RRXW539A4fN9YyOSbvj6ciIVOyOAXaWd1DRqopimlvhNWGXmxbLhox4Q9nlShTeKqzgwZc+EB12DIgCOkQHVhuj/vZ+Fvi71knMhvXLkvnrfXfKBiCVGBiycaC82qk/YG5o0ToliYFJiQ5TzvHT4liTGoO/jzzHNzK20TGuf/A5uvuF7xreAfxDdFC1Meoq9DLwSa2TmC3fuPkKPn/N+VqnsSBo7+51FgP7Ssxy3FByViIWBTgFeHLT4ohY5F52uRL489sFPPPeIdFhXwZuEh1UbYxYAPgCbYBhB2cXBfrzzm+/Q4A07Zh3LNZWpRgoNnOgvJoBdRTCJAbB38ebNakxzkV/IdjlLnSau/q48eEXRE+y9KIcTRtK/9yIBcCVwDatk5grP/7cx7nx4lyt01jQjI6NccRcz75x/4Liaml37O54mkwsT1jiVN3LTozEy3Nh2eVK4Ot/fpMiS5PosFeiNAQaBiMalX9M6wREsL/UIgsAjfHy9GRtZhJrM5P42g1b6BscIr+0mv2lSkNhTVO71ilKBJC4JMQ5j782NZYgufO24LlybboaBcDHMFgBYMQdAFW1/+eLhMhw3vzVt7ROQ3IWmjq6x8WILOwvtdB5vF/rlCQuEBbkz/opMrtRodIuV3Ii/UM2rn3gX6IVR8sx2NpktAIgAuX832h5n0JESBDvPXaf1mlIXMThcFBR3+zsHzhYUcuQTWre6wE/by9WJkc7z/HTYiKkXa5kWu57ZgcfltSIDOkAolGsgg2B0Y4ANuMGiz8gHQUNhoeHB5mJMWQmxvDZq87DNjrKoYo69pWY2V9ioaymUcrjzhMmDw8y4hY7z/FzkqLwkZLbkhlyXlai6ALAAzgXeFVkUDUxWgFwrtYJiCIperHWKUjmgI+XFxuyUtiQlQI3KfoDRyz1TnfDKqthHgIMwVRd/XVpsYQESDEtydw4d3kiJg8P0YW7LABUZLPWCYgiJyVe6xQkAgnw82FTdiqbslO59+bLaWjrJK9YkSvefbhCHhfMkEUBvqxLnTzHj4vQh/WxxH0IC/JnecISSuqEFuuGEngxUgHgDbhN2/zV56zSOgWJSvT0D1JW00RZTSNlNU1y8XcBby9PcpZGOc10MuMWS5ldierkpseJLgDWAH6AIQxKjFQArAaEynJ99ROX0NXbP+8jXxeuWUZGgnQHdBcm+gEmDIpkP8D0eHhAanSEco6fEceq5Gj8vI10O5K4AzlLo0SH9AaWAwdFB1YDI/3FrRYZzMPDg09ffg7B42eJ8zXyFeTvx//edpUqsSXzw9SJgLwSC0XlNfIp3wWiQgNZnxbHhox41qfFEhbkr3VKkgXOiqWRavQBrEAWAMJJFxksMSrCufgDxESEcv0F67j+gnWqjXz5eHnxi7tvJjEqYs6xJPNLc2eP03FQagK4RqCfD2tTY8a79eOlXa5EdwT7+7I0MpTqli6RYVeIDKYmRioAMkQGW5Ecd8bPnTzyNTwyyuHKuY18hQUH8quv3ULu8pS5pi6ZB/oGhygoqyavRKoCuoqXp4nsxEhn415WwhI8TVJmV6JvcpKiZAFgAITuAGTPoAvf1/vEka/uvgHyS6ucRwYNbZ1n/l4fb647bw1fv+FSQoOls5hemfAFyCu1kFcsfQFcJTkqbIrMrrTLlRiH9uMDFFRaqRG7+IOBCgCjtNmagH6U7kohPPOjL7E6PVFIrPrWTgrLqimtsdLe04enyYMloYtYmZbAOTnphATKs049MuEMmFdipvCYdAZ0hYjgANanx7IhPZ7c9DgWS7tciUEYtI1QZGmioNJKQaVV9FP/VByAPwZwBjRKAZAEVIsKZvLwYN9f7sdPPq0sKNq7e52Ne3klZtq6e7VOSff4+3ixOmXyHD8lWtrlSozBmN1OaX2bc8EvqWtldP529VIQuGaphVGOAISe/0eEBMnFfwEwZBvhUGXd+FGNmbLaJhxyPO+smEweZMRGsD5N2dZfnRyNt5TZlRiExs5e54JfUGmld1Czh/AEZAEgjDN37M2CmIhQkeEkOsFut3Osrpm88WbNovJabKNC3b7ckqkyu7npcQT7+2qdkkTiEt39QxRZGimotLK/ooHmrj6tU5rAEFKvRikAhK7YUeFSVtRdqG1ud27rF5RV0TtgCAEuTQkN9Bu3y1XO8aPDpF2uxDi09vSz7UAl7x6uwtLcgU439WQBIBChB4/R4XIe2ah09fYrW/qlyqLf1N6tdUq6x9fbi1VJUawfP8dPiw3HJN0oJQZjaGSUv20/wAu7ixmz635CJ0brBFxhQRYAUfIIwDAM20Yoqqh1Nu5V1DVLmd1pUOxyJ8/xVyVHS7tciaHp6B3gm09uw9x05pFrnRGsdQKuYJQCQOwRQJg8AtArdoeDY7VNigBPsYVDlbUMj8hz/OmICQsmd9xIZ11aLKGB0i5X4h70D9n42hNvUtfWo3UqM8EQ52pGKQCE7gD4+/qIDCeZI9a2Luc5fn6phe6+Aa1T0j3B/r6sS40hN0M5x4+XdrkSN+U3W/cabfEHWQAIRWgBIMeatOV4/yD5ZVWKrn6JhbqWDq1T0j3eniZykqKcZjrLpF2uZAFQVt/G20WVWqcxG+QRgECECorLAmB+sY2OcsRcz75xM53Smkbs+m/i0RTFLjec3PQ41qfFsTolBn8fo/y5SiRieH73Ua1TmC2BWifgCka5owg9BJYFgPo0tHU6n/D3HK2kXztBDsMQHuTvVN3bvCyByBBD3EMkElWwOxzklddrncZsMUSnslEKAKFm696esgAQTUvncadz3v5SCx09uhHk0C0Bvt7jdrnKOX5SpJxOkUgmqG3tpm/QsP4chuhcXpAFgIecgZ4z/YPDFByrdnbrVze1aZ2S7vE0mchOXDKuuBdPdqK0y5VIzsRxY+8aCl2z1MIoBYDQaqqnX3aZz5SxMTtHLPXObv2jVfXSLtcFkiJDp9jlxhLgKz0oJBJXMPj9RRYAAhH6ZvbIMTOXqGpsc27rF5ZV0z9k6Ip8XggP8lca99Lj2JAexxJ5ji+RzIo4Y4+2ygJAIEIF3nv6BkWGcxvae/rYX2ohb7xbv7XruNYp6Z4Ju9wJ1b3U6HDkCZNEMnciQ4IICfCjx5j+Hoa4eRqlAGgSGUwKzShIu9yZI+1yJZL5wcMDLspJ4rX9x7ROZTY0a52AKxilAGgUGayrt19kOMNgt9spqW50busfNtcxMjqmdVq6Jz5ikXKOnxHPutQYaZc7D/QP2SiyNFFotlLZ1Eldazdjdgchgb5kxC0mNy2Oy9ak4udtlFuYZDbceG42bxSUY7cb7sHEEF3RRvnrEVoAVDe1iwyna+paOpxGOgVl1Rzvl8cf0xEa6Me6tFhy0+LIzYgjJswQol6GZnTMTkldKwWVVgoqrZTWt53W8a1nYIi6th52HrLwp2353HnZWj65OVseu7gpqdHh3LApi5f3lqj2GiYPDzxNHoyIbTpsFRlMLYxSAFhFBqusN8TuzKzo7h0gv8zCvmKlW7+xvUvrlHSPj5cnq5Kjnap7GXER0i53Hqhu6XIu+EWWJgZtM+ub6u4f4rdb97LvWD0PfuZSuRvgpvzPtRs5Zm2nuLZFWMzY8GBno+66tFi+8NhWGjt7hcVHFgBCEboD0NbdS3ffAKFBASLDasLwyCgHK2rZX2JhX4mZ8tomaZc7DSYPD9Jiw9mQHs/69DhWJUXhKxcP1enoHaCwspH8ygYKKq20HxfTi7PvWD33PbODX33+Crw9pa6Cu+Ht5cnvvnAlP/jHTgoqZ/csGOzvq+zqjS/6UycM+odsNHUJXfwBakUHVAOj3PWsKNKKwh7LzA0trF+WLCrcvGF3OCivbXIq7hVV1DI8wyenhUh0WJBTgGe9tMudF4ZGRjla00JBpZVCs5Vyaztq1ab5FQ088+5B7rp8nTovINGUQD8ffveFq3hpTzFP7SyaViHQ28uTnKWRTpXNs5lnmZs7Rf9e2gFDdC4apQDoB2oAYSt2WU2jYQqApvZu9k2R2e3ulVMM0xHk78O61FinCE/C4hCtU3J77HYHZQ1tzm394toW0eeqZ+Ufuw5x1bp0o8+PS86AyeTBrefn8PGNy9hxyEJ+hRVLcyfdfUP4eHsSGx5MVkIkuemxrEp23TzrcLXwI+FawBA3aaMUAAAHEFgA7D5cwWeuPFdUOKEMDNk4Yql3jueV1gg9AXFLPE0m0mPDneN5a1Ji8JLbwapjtyuGLW8XVZJX0aCpdvvImJ3X9h/j7qs3aJaDRH38fby5bsMyrtuwTEi8gxahU+YAZaIDqoXRCoAbRQUrqqihf3CYQB2MdI2MjnHYXOc8xy+plna5rpASHcaG8S0+aZc7/xypaeEXr+ymukU/jaY7DllkASBxmaGRUY7UCN8BkAWAChwQGWxkdIw9Ryu5fMMKkWFdZqpd7t6jZvoGDal2Na9MtcvdlJlAVKiU2dWKV/aW8rvX9uqu4bSlu4/ewWGp1SBxiX3H6hm0CTfuKxQdUC2MVAAUiQ74/sFj81YAtHX3sm9cYnd/iZl2aZc7Lf4+E3a5yrZ+clSY1ilJgK15Zfxm6x6t0zgjjZ29ZMbJAkAyPbuOVqsRdrcaQdXASAVAB1CNwD6AHfnFfPvWK4kICRIV0kn/0DAHjtUoi36phSqrIcZCNcXTZCIrYYlzwc9OjJTn+DqjuqWLR9/I0zqNsyItliWu0N0/xAfFNaLDWhCsW6MmRioAAHYhsACwjY7ywrv7+doNW+Ycy263c6yumbwSM/tLLBwor5Eyuy4QGx7sXPBz0+Pk1q3O+cN/8xkeEb5lKpSQAPk7JJme1/OPqXGPNszTPxivAHgHuFNkwJfe289d116Ar8/Mfdqrm9qc5/j5ZVX0D0q73OkIC/JnfVosGzLiWZ8WJ8/xDURNazf7jtVpncZZiQoNkhbMkmkZtI3y749UkRf+UI2gamG0AmAnMIrAvLt7B3jh3f189qrzpv3ajgm73PFFv7mzR1QabouftxerkqPZkDFhlxshddsNSl55vWpCPqI4d3mi1ilIDMCLu4/SIV5PZRR4U3RQNTFaAdAJvA9cKjLon7fu4qpNK4kMO1FAZMg2woHyGmfjXkV9i7TLnQaTyYPMcbe2DRlx5CyNkna5bkJxrb77WEweHtx8njZTPRLj0NjZyz92HVYj9HsYxAVwAqMVAAD/RnAB0D80zEnzoeUAACAASURBVI/+8gp//N87KK9rdnbrH66swzaq7/NOPRA3YZebHse61FgWyTNYt+T4gL6PuG48N5vEJVLxUXJm7HYHD/37wxkbT7nIi2oEVRMjbsYuBhoA4auMv68Pg8PaKZkZhZAAP6exRm56HLHh0i53IfC1J97kYJVw1TQhLE9Ywp+++jF85G6T5Cz87vV9/PujYjVC24BoQD+qWC5gxB2AdmArcIvowHLxPz0+Xp7kJEWxYXzBz4hbLO1yFyBxEYt0WQCsTIri15+/Ui7+kjPicMCTOw6otfiDcvZvqMUfjFkAAPwFFQoAiYKHB6TFRDitM1cmR0uvdQnpMeFap3ACPl6efG7LGj590SppAyw5I8cHhvnN1j3sOGRR82UeUTO4Whj1Mc4DOAzkaJ2IuxAVGuTc0l+fFktYkL/WKUl0RmtPPzc89Lym8r8TTaaXrU7lyrXp0tZZckZauvvZdqCClz4qprtfVan1AsCQBhRGfaxzAL8E/qF1IkbF38eLFUujxhf8ODLjFsvxPMlZiQwJ5OKVybx7uGpeX3eiyXRDehxrZZOp5AwMjYxytKaFgkorhWYr5db2+Rpb/e28vIoKGLUACAGGEKwJ4M54eZrITox0nuMvT1giJVMlM+arV21g37F6BoZV6aIGZJOpxDXsdgdlDW0UVFopqLRSXNvCyNi8u6iOjl8hgOGEYYzyzOcJrEYZ/7sUuADw0TQjAzBVZndDRjxBfvItk8ydD0tq+MGzO4UdBfh4ebIyKZrc9FjZZCo5K42dvc4Fv6DSSq9+1FfHgEMoYnU7USSBdZPcmdDzX1kKkwv+5SgVluQshAX5s0ba5UrmgfeLa/jpc+9hm4WW+kST6cRu1KrkaHxlk6nkNHT3D1FkaaSg0kp+hZWmrl6tU3KVAWAvkwVBEcrRta7QUwEQCVyIsuBfBSRom47+8fP2IidJnuNLtKGurYdfv7qHQvP05mcTTaYb0uNYnx4nm/ckp2V4ZJQjU87xK6wdmjadCqQV+AClGNgG1GubjoKWy0UAcA6TT/lrNc5H95hMHmTERrA+TXlyWp0cLWV2JZpzrKGddw9bOFLTQkt3H0Mjo4QH+ZMaE87qZGVHSir0Sc5EY2cvH5XWsqesjsPVzbPaVTIgVUzuDmxHo/6B+VxwTz7HPx8V1PzcDWmXK5FI3ImO4wMcrmmmoNLKnrI62o8LN+UxGif3D3yIoiyoOmoXAIHAx8evK5Dn+NMSGujH+vQ4p5lOVGiQ1ilJJBLJrOkdHOaApYmCigYKKq00dBzXOiW90w28A7wGvA70q/VCahUAGcA3gU8Bi6b52gWN77hdbu74op8eK+1yJRKJcRkZs3O0poVCs5X8igaOWdux293iHF8LeoDnULQGzKKDi15qkoAHUWR65eH0aTB5eJARF0Fuejy56bGsTIqWGuYSicSwOBxgae50Nu4dqmpi0CZdVAUzBjwP/AioFRVUVAHgDfwA+B4gNWRPYuo5/rq0WEICZAe0RCIxLm09/eRXWikcn8fv7BvUOqWFwiDwMPBzYM5qXCIKgBXAs8AaAbHcgkUBvqxNjXXOOcdFyFMQiURiXAaGR5zz+AWVVmpau7VOaaFzELgdKJ1LkLkWALcAf0Np9luweJpMpMeGO8fz1qTE4CXdySQSiUGx2x1UNHZQaFYW/ENVTVrI7ErOziDwFZQH8FkxlwLgPuChOcYwJB4ekBodMb6tH8vqlBhplyuRSAxNTWu3co5faeWApVFVvweJMBzAT4AHZvPNs128fwz83yy/15BEhgRO2uWmxxEu7XIlEomB6ewbdC74BZVWWntUmzaTqM/jwL3MUG54NgXAT1EqDrdG2uVKJBJ3QkO7XMn88Dhwz0y+YaZL2n0o3Yduh6fJxIrESNanKwI8WdIuVyKRGBi73cExa/t4414DR2tbGVkYMrsLme+jTAm4xEwKgCuAt3Cj+f7kqLBx1b1Y1qbGEuDrrXVKEolEMmsaOo47O/UPmBv1ZJerSxYF+nO8361GGMeAq1H8BabF1QIgGSgEwmeZlG5IjQ7ntgtzyE2LY0nIgh5ekEgkBqe7f4gD5kYKzMpZfmOnYexyNSPQ35cLVmXy8fPXsjE7lfbuXvJKLDy77SMqG1q0Tk8EHcB6oGa6L3Sldd0feAU3WPwB6tt7iAoJkou/RCIxHLbRMY7UNJNf4XZ2uarh4eFBRkI0m1eksSk7lfXLkk9wUY0MW0RU+CJqmzs0zFIoEShr9rnA0Nm+0JUdgJ+jnP27DX7eXjzyxatZmRSldSoSiURyVho7e53b+nnl9XI8zwUWhwSxNjOJjdmpXLAqk8iwM4uxHbU08OVfPk3/kNsdlzyIIh18RqYrANKBo7ihbW+Qvw9/+PK1pMdGaJ2KRCKROOnoHeBwtbTLnQn+vj6sSktgY3Yqm7LTyEqKden7Khta+MJDT9LjXn0AE9iAVcCxM33BdAXATmCLyIz0xJKQQJ6653oiggO0TkUikSxQ+gZtHBiX2S00W6lr69E6Jd3j5enJqrQENmWnsjE7lZyUeEwznNpq6+7l1p/8kfZut+6b2AlcdqZPnq0AuA3FhtCtWbE0ij98+ZoTzoQkEolELcbsdiobO50yuwermhiVMrvTEr8k3Lngn5OTRpD/7E3VRsfG+OIvnqaovEZcgvrlFuCl033iTAWAF1CJYu/r9ly/aTnfveE8rdOQSCRuSlVzF/mVDU5dfWmXOz2LQ4PZlJ3K5myleW9xaLCw2D97aiv/+aBQWDydUw1kAKf80p1pCuAWFsjiD7A1r4zMuMV8fOMyrVMxDCOjYxytbaHQ3EhFYwcN7T2MjtkJ8vchM24xuWlxXJiTjLc0RZIsQDr7BjlU1eRs3GvpljK70+Hn483q9ETnOf7ypTF4qCC/+uK7+xfS4g/KGP+NwAsnf+J0764HUASsVjOjtVnpXHleLsnx0URHhDNks1Hb1MrB0kp27iuipaNLzZc/BW8vT56653pSo91i2lE4DgdYmjvGu5EbOVTVxNDI2Z9iIkMCuevydVybmzlPWUok2jBoG6HI0uTs1q9umd/7lxHx9DSxIjl+fMFPZVVaAl6e6h7Fltc1c/vPnsA2Or87MFERYVy6eS1rstJJio3C19ub5o5Oqhua2bY7n4NlZrVTKALWnfzB0xUAVwBvq5VFWmIcD9zzOTbknPlp2+5w8H7+If7y0lsUFJerlcqpucVE8Ld7rpdPreO09vQ7b2iFlVY6+2bXKXtxTjI/ue1ifGSfhcRNGLPbKa1vc/59lNS1ynN8F1gavZjNK1LZmJXGhqzkOZ3jzxTb6Cif+smf5lXsZ0POMr508zVcmLsK01l2M/YfOcb9jz+Nua5RzXQuB3ZM/cDpMtoBXKrGq192zjp+d9/d+Pv6uPw9O/cV8eCf/0VdU6saKZ3C7Ret4u6rN8zLa+mN/iEbRVVNFFRYKTBbqW3tFhb7vKxEHvrMZXjJ4kpiUOraepzn+EWWJvqHbFqnpHvCFwWyMSvV2bwXExGqWS6/feFtntn20by81tLYKH745U+zZdMal79nYGiYb/z8D7ybd1CttN4Brpz6gZMLgDigDhB+l77i3PX8/sf3nLUKOhMDQ8P8/C/P8dxb74lO6xRMJg/+8JVrWZUUrfpraY3d7qCiscPZjXyoqokRFZ9ivnTFej63xfU/CIlES7r6Bik0N5Jf0UCh2SrP8V3A18ebtRlLnap7GQnRqpzjz5QD5TXc9fO/zYtq4u0fu5T7vnjbjB50Jxiz27n7/x5l574iFTLDDsQDTRMfOPkn8w3gd6JfNSttKS/99v5ZvSFT+fc7H/Djx/7OiMrnNwmLQ/jntz7plqOB1S1div+3WXmKmU9VMR8vT57735uIDRfXzSuRiGJoZNQpwJNfYcXS3CHtcqfB5OHB8qRYNo53669KT8TX2xWF+fljeGSUT/7gMepbO1V9HW8vLx68904+efn5c4ozMDTMLd96gFJLraDMTuBe4LGJf5xcAOwDNol8NR9vL177/QNkJMULiXegpIIv/+wRunrUFW/48pW5fPYSVfsg5wWHA47UNrPtQCX7jtXT1qPtU8wdF6/mK1flapqDRAJKr1GFdXIH7HB1MzZplzstE+N5F65exoasFEKD9C2k9uetu/jjq++q+hohQYH88f572LQqS0g8c10j133tRwzbhD+g7UXxCABOLACWoswLCt2v+eYdn+Trn75eZEiqGpr43Pd/ibW1XWjcqfh5e/H8d24iKjRItddQG3NTBw+/vJvS+jatU3ESFRrEqz+4Tes0JAuUxs5e8iuUc/wDlkaOD7id/rtwQgL92ZCVwqbsNDZmp5IQaZxJqcb2Lq7//mNqLKRO4qMW8/RD3yUlPkZo3Eee/Q+P/+tVoTEBB8qIfx2cuNh/G/i1yFdaHBbCrr//hgA/8VYCtY0t3Prt/0drp7hGtZO5KCeZhz6jSj+k6rxTZOb/vfQBY3b9dSa//dM7WBTgdvYSEh1yfGCYA5ZG56Iv7XKnx8fLi1XpiWxeMTmPP1OZXb3wzcee470DparFj4oI44Xf/IjEmEjhsfsHh7j4c9+mo/u46ND/C/wGThQCEq75/6WbrlFl8Qely/KZn3+P277zIN3H+1R5jfePVlNotrI+LU6V+Gqx/aCZB158X7c2oY2dx1kUsETrNCRuyMjoGEdqWpRz/EorFdZ23f4d6AXFLjeKjdlpbM5OZW1mEn4+3lqnNWf2FZtVXfzDQoJ59uHvqbL4AwT6+/HFm67h4b8+Lzr0Fk4qADyZci4gggA/X2664kKRIU8hIymev/7sW3zqOw+p1hj4xLYC/vr1OHTQyOoSjZ29/OrVPbq+6Zk8jPk0IdEfDody1DUxj3+4unlagSoJRIeHOAV4NmWnEb4oUOuUhOJwOHj85R3Tf+Es8fH24q8/+xZpieo+HN585YU8+uwrDA4LHTk9B2XNH5soAFYDZzZMngXXXXwOi+ahOWRtVjo//dod/PDRp1SJX1rfxkdltZyftVSV+KL5w1v7dT+fHBwwt2kQycKmpbtvUqDK3EjXLAWqFhKB/r5sWJ7iXPSTY9x7B25X0TFKqq2qxf/Z1z/HmuVpqsWfICQokI9dvJmX3v5AaFhgJXBwogAQ/qj+sYuFDhOclVuvvphicw3Pq6QT8Je3Czl3eeKsNAzmk8bOXj4oqdE6jbMSERxATJgcA5S4zqBtlOLaFqddbrm1XY7nTYPJZGJZYrSzcW9dZpJbjjWfDofDwRNb1ev6v/1jl3Lzlerubk/l2ouEFwAAFzClANgsMnJYSDC5K+ZX//3+r36GotJKyqvrhce2NHfyQXENF+ckC48tkn3H6rHb9X1n3JQpZhxU4r6MjtkpqWslf/wpv6y+TZfNrHolNCiA393zKdZmJmmdiiZszy+mvK5ZldjLkhP44Zc/rUrsM7Fp5TLCQoJFj75vBh6dKACyRUa+cP1KPFU2dTgZH28vfv2dL3PDPT9VpR/g6Z1FXLQiWde9AEdr50/jejZ4eMAt5+donYZEh1S3dDkb9w5amhhUcWzL3enuG+ALDz/F/9x4KXdec4HW6cwrDoeDP7+2S5XY3l5e/OZ7X8VnnoWOPD09uWBdDq+9t1dk2GxQmgC9AaGHGfP99D9BVupS/uf26/nt318WHtvc1MkBi74nAnr6h7RO4axcsz6TtBjjzBBL1KPj+AAF4wI8+ZVWOo4PaJ2SW2G323n0pe309g9x782Xa53OvJFXYsFiVcc35ht33MCy5ARVYk9H7opM0QVAOuDlhbL4C535WK9RAQDwlZuvZduH+ZRV1QmP/dJHxbouANTU8Z8ryVFhfPPjQk+aJAZi0DbCQUuTc9GvapZ2ufPBU299SHpCFFdvXqV1KvPCv7YLXSSdZKUt5Ys3XaNKbFfIzRG+pvoCqV6AGO3CcUIXBZGaIFYRaSZ4enpy/92f4VPfeQiH4E6hvWX1NHQcJz5C6MCEMGLDgymyaJ3FqSRHhfHYF6/G3w1miyWuYbc7KGtoUwR4zI0U17ZIu1yN+PXz27hw9TIC/d1bfKu2uZ09RyqFx/Xw8OAnX70DTw3FkFITYgkJCqSnT6iU+/KJHQBhpCfGae7+tCFnGddetIk3du0TGtfucPDvPSV88zp9Psmm62x73dNk4pbzV3DX5evw05lBiEQ8dW09FJoVI50iSyN9Oh9HXSh09PTxyvsF3HHVeVqnoirP7diniv7JdRdvZv2KDOFxZ4KHhwdpS+M4UFIhMmy6FyDU9zZFw6f/qXz/rtvYufeAaAEF/ltYwVevytXlgnbBimQefSNPcxGgpMhQtqxK5Zr1GUSHGddLQXJ2uvuHnM6S+RVWWrrVUeSUzJ239h126wJgcNjG6x8dFB7X39eH7911q/C4syElPkZ0ARDlBUSJjJgs2BBhtkQtDuNT127hb69sExq3f8jGh8U1XL5GfRGImRIVGsgF2Ut5v7hmXl83PMif3PQ41qfHkZseR2SIe6mKSRSGR0adMruFZisV1g7Ni02Ja1TUtzBkG3ELid/TsbOwhAEVdpxuv+4yoiLChMedDcnxQp/VASK9AKGSUPFRi0WGmxNfvvlann/rPQaGxDp+vV1k1mUBAHD3NRvZX9HAoE09OVQ/by9Wp8SQO77gp0aH63o8UjI7JuxyCyobKKhs5EiNtMs1Kna7HWtbF6lx6ujWa81bew8Ljxng78eXNGz8O5n4aOHqjZHCdwDCQ/TTIBcRuojbr7uUv7z0ltC4+ZUNdBwfIGKR/nyw4yMW8YObLuT+594VppZmMnmwLG7x+IIfT87SyAWjKrbQ6Dg+wOGaZgoqrXxUVifH89wIdxVTauvuZX9plfC4n/34ZYSH6Ee1NHyR8FwivYAIkRHDFunrzPcLN1zF3199B5tAgxC73cH2QxZuu0CfojZbVqUwarfz0EsfzHo0MD5ikfMJf11aLMFu3kG8UOkdHOaAudE5j2/tEG496nZM2OUmRoVTUFZNXUuH1im5RHCAn9YpqMKbew5hF1zc+Pp4c+cNVwmNOVfCxBcji70Aoc4soTorABaHhXDtRZv5z47dQuNuP2jWbQEAcMWaNFKjw/nFK7spqZteGCMkwI/16bHkpiln+bHh+ql8JeIYGR3j6LiufkGllWPWdt3LR2uNh4cH6fFRbFqRxqZxXf2pZ+mN7V3klVjYV2whv8xCd6/+dk0C/X2JDg/ROg1V+O8+8dv/1118jq6e/gHCgoWvrT4TSoDCCPDT35Pi56+/QngBUG5tp7mrT9dd7mkx4fz16x/ncHUzOw5ZOFLTTEt3P0O2EUIC/UiPjWBNSgzr0+LIiIvQvdmRZHY0dvY6F/z9FQ26d4vUAxEhQazLTGJjdirnr8wkKvzMR5uxi8O44cL13HDhegAa2jrJK7Gwv8TCniOV9AvuQZoNF6zK1Hw8Ww2aOrqpqBev+//Z6/WnnujnJ9xF1dsLRQ5YGHpcRLLSlpK7IpOC4nKhcfeV1/OJTcuFxlSDVcnRrEoW3kEq0SmtPf2TdrmVVjqlXe60BPr7krssmU3ZaWxaMTe73Pgl4dx4UTg3XpTLsG2Eoopa9pdYyCu1UF7bpMnkxERx4m58cFDsPR1g48plLE9JFB53rqggROQtfAfAQ0O1pLNxy1UXCS8APiqtNUQBIHFv+odsFFU1UTh+jl/b2q11SrrH09NETkoCm1eksik7lZyUBDw9xd+7fH282bwijc0rlKmh7t4B9pdalCODEjNN7er/rM5bmcGGrBTVX0cLPjx0THjMm6+8SHhMEZjEr61eXoDQdm497gAAXHHueu5//O9CRwIPmBsZtI3i76M/USCJ+zJmt1Nc16qI8FRaKamTdrmukBK7RHnCz05l/fJkAjU4rgwNDuCKjTlcsVHpH6pr6RjvHzBTUFZF74BYQ6/FocH89AufEBpTLwwM2SgoqxYaM8Dfj8vP1eduiQprq5cXMAQIU24Zto3gq0OxiQB/Py47Z51QRyXb6BiFlVbOz14qLKZEcjqqW7qcqntFliYGhqVd7nQsDgliY1aqs3kvMkw/I8oTJEZFkBgVwc2XbMBut1NS3UheiZm8EguHzXWMzEF3YXFoMH/89mdZEqqvZjZR5JVYsAm2fr/inHW67GMDGB4R/jc/5AX0I7AA6B8cZFGQ/ubjAa7fcq5oS0WKqhplASARTkfvAIWVynhegdlKW49QExC3xN/Xh3WZSWzKTmVjdirp8VGGanwzmUzkpMaTkxrPF6+7iMFhGwfKa8grVgoCs7XVZYOzzSvS+Mmd1xMTEapy1tpRUCZ+9v/6S/Url9w3ILyXp88L6AOEyUP1D+rXk/6c1dkEBwbQ2y9uTOdwdYuwWJKFy6BtlENVTc7mvaqWTmFCTu6KyWQiKymWzeNP+KvSEt1KoMrf14fzVmZw3krFiKa9p4/947sDeSUWWruOn/L1G7JSuHXLRs7JSdci5XnlYGWt0HghQYFsXqXfnq6+fuEFQO9EASAuovgkheHl5ckF61fy1gd5wmJWNnYwaBuRVreSGTFhlzux4BfXtsxatGkhkRgVwcbsVDZnp5G7PJlFgf5apzRvLA4J4ppzVnPNOasBRQHP2tbF6NgYYcGBLI2OwMvTfQqgs9E/OEx5ndjxvwtyV+Kp4/dPhbW1b+IIQBgd3T0iwwlny6Y1QguAMbud4tpWctPjhMWUuCdT5/ELzVaOD2g/H653QoMD2LA8xbnoxy3RhzGLHlgSGuy25/vTcchcJ1z975KNq4XGE01bl/CJkV4voF1kxMZWfctiXjhe5Y2NiTM1OVLTLAsAySl09w9RaG50dus3dfVqnZJh8PPx5rZLN3HHVecRvki6S0pO5FCF2O1/T09ld1jPNLV1ig7Z4QXUi4zYKD5JoYQGB5GVmsjRCnHjI8W100vtStyfqXa5BZVWKhulXe5sGbKN8PR/d/PMto/IXBrD5uw0NmansiZjKb7ecux2oXPYLHTZIjt1KaHipXaF0tQm/OG6wQtoEBlR7zsAAOuzM4UWAFUtXcJiSYzF1G39vPJ6OZ4nGLvDQVlNI2U1jTz11of4+nizJj2RjdmpbMpOY9nSGN1qj0jUo7JB7Pl/bk6m0HhqoMLaWi+8AKi2NokMpwq5OZk8/erbwuK19fTTMzBEiJu6bUkmmWqXu6esjnZplzuvDNtGnF3wj7Jd9ggsQLp7B+g8LnYsNneF/guAaqtwz4MG4UcA5lorY2Njuu6mzF2hGGO4OlPrCtXNXaxOiREWT6IPBm0jFNe2Ohv3jjUIbZmRzJHu3gG25xezPb8YUHT4J3QANmanErKApgQWCqLNfzw8PFibpe+xydHRMarqhT9cN3gBQrspbCOjVFtbSEuMFRlWKOEhwcRFRtDQIu5mXtUiCwB3YGTMTvEUu9yyhjZpl2sgGto6efn9Tl5+vwCTyUR2cqxT/tfddAIWKhar2J6r+OglRITqTyVyKlUNTYwIVj0E6iYKAKFqgOU19bouAAAykxPEFgDNsg/AiDgcUNXS6VzwD1U1MWgT/ocm0QC73c5RSwNHLQ389fX3J5UCx4WD0uIiDaUUKFEwN4gVX8tMihcaTw3Kq8U2PQK9jPcA2IFSIFdU5JLKGq65YKOocKqQmZzAu3kHhcVr7JQjXkahraefAvOEXW4jHb3yHH8hMDhs46MjFXx0pAIY9woY3x3Qq1eA5FSs7WIftjKTE4TGU4MSc43wkIBjYp6mGIEFQGFJhahQqpGZJPaH3tojVFBRIpBB26hzW7/QbKXc2i5ldiW09/Tx1t5DvLX3EHBi/8DmFWkEy6ZeXdLcIVZsbllyotB4aqDCmnoUYGoBIIwj5VUMDtvw9/URGVYoyfHRQuO1SrMW3WC3O6ho7KDQPLmtL2V2JdNxcv/AssRoNo3rD6zLTJL9AzrhZA+EuSJ6LRDN0LCN4soa0WGLYbIAOCoy8sjoKEfKq9i4cpnIsEKJi1wsNF7foE16AmhIbWu3sq1fYaWoqon+IZvWKRmBiW4qYWZg7oLdbqe0ppHScf2BQH9fcpclO/sHkmOWaJ3igqRvcIj+IbES2rGREULjieZwuUWNBsATCoADKL0AJlHR8w6X6roACF0URICfLwMCf5naegZIXBIiLJ7kzHT2DToldgsqrXIHxjUGgN3AzvHr8PjHVwGXjl/nA/r089aQ/sFh3j94jPcPHgMgKnyRc7pgY1YqESH6VpFzF1o6xT79BwX4ExKkb6npvMNlokPaUdZ8ZwHQidIUkCPqFd7bf4h7P3ODqHCqEBsZgbmuUVi8zl5ZAKjF0MiEXW4jBZVWLM0d8hx/euxAEbADZcHfA5yu4j00fv0a8AXORSkGLgPWIvDBwF1o6TzOa7uLeG13ER4eHmQkRDkbCtdlJuEndwJVoUNwr5Xen/5BWUsFcxTogckCAOAjBBYAJeYaWtq7iFqsX2WuiNBFQgsAKQMrDrvDQYV18hz/cHUztlFxBk5uTBWTT/jvATPVDx0e/773gB8AQcAmJncI1gnL1E1wOByU1zVTXtfMs9s+wtPTRGbCZP/A+mVJC8amV21Eb/8vDtP3A1tLR5caEwAfTfzHyQXAV0W9gsPhYFfBIW696mJRIYUTHCh2p1POj88NaZc7K/qAPJQF/w2UkV7R8ScKCoAUJouBSwD9P0LNM2NjJ/YPBPj5sDI1welfkJWkb40UPTM4LLa3JzhA30qR7+UdFKpYO85pC4Ddol9lx94DC6oAkDsAM6NnYIgD5kbyK60UVlqlloJrDKNs5U8syhP9O/NFFfCX8cuEsiMwURCci3KEIJnCwJDtBP+CuCVhTnfDDVkphAbJlgtXGRR8jxW9Bohm+94DaoTdM/EfUwuAepQ/7hRRr7L7QDEd3cd1K7MouvobsskC4GzYRsc4UtM8fo7fQIVV2uW6gAM4wuQ5/m6UZj49YAcK8IPLqwAAEQFJREFUxq+fozQPns9k/8BKQErtnYS1rYuX3y9Qxg09PFi2NMY5XbA6Xdodnw3ROwBBOvaKaOvqYc/BEtFhq5ji/3Pyb9pbwP+IeqWxsTHe2LWPz33iClEhheIleK53aEQeAUzF4YDKxg6n6t7h6maG5XvkCvUoi/0O4F0mx/X0zgDwzvgFynjhFiYLAv1Lrs0zdodj8rjgTcXueG3G0nF1wjQyE6OlXPEUhkfEPmR5mfTbm/HGrn2MjQnve3pr6j9OLgDeRGABALD1vT26LQBEP3yaTLJZuqN3gMPVil3u3mP1tMnxPFfoB/Yxua1fhPLkb3RagefHLzixf+BSQL8dwhoxbBthX7GZfcVm4J0T7I7PWZFGrI6bqucD0cWQnmurV9/9aPovmjmvT/3HyQXABygmAcGiXu1oRTVlVXUsT9G/3OJc8TTp+LdJJfqGbBRZGsmvUBr36trEynS6KSNMNu7tBPKBhbA1MrV/wAtFfvwylGJgEyBn507iZLvjpdGLnbsDG7KSCfJfWHLF3gtkmqLUXEupWahRLyhr+4dTP3ByATAMbAc+KfJVn31tOz//5l0iQwphzC62d8rL0/13AEYn7HLNjeRXNEi7XNcpYXLBfx+lu34hM4qy67EP+D+UccOLmNwdyNYsMx1T29xObXM7L767H5PJxIrkOGf/wKq0BLcfNxT9/yd6DRDFM69tVyPsO8AJTRSn6zZ5E8EFwOu79vHdO28hLETYxoIQevvF9lJ5uekRQFVzlzKeZ7Zy0NLEoGx2dIUmJhf8nYA4wQn3pA/l3vPm+L9jOfG4IEajvHSL3W7niKWeI5Z6/vLaLgL8fFiXmex0N0yLj9I6ReGIfsjq7R8UGk8EnT29vPH+PjVCv3HyB05XAGwF/gQI21saGrbx/H93cfdt14kKKQTRBYC7mIV0HB8gf0Jm12yl47hems51TT/KEdpEt75Qg60FSCPw7PgFsILJZsILUHYMJFMYGLKx+3A5uw+XA7A4NNhZDGzOTmNxqL4ewGaD6Hvs8T799Sg9/9/3GBb/kDUIvHbyB09XAHSjNArcLPLVn31tO5+/4UpdOQSKLgAWBRhzBHrQNsJBS5Nz0a9uEeu37aaMoYy/TXTr53HS9ppEKMXj1yOAD0rPwET/QC7gHtW3QNq7e3lzzyHe3KNIyabGRSrFwIo01mUmE+Cnn3uxq4QI1kzoHdDXDsDA0DB/f/Wd6b9w5rzOuPzvVM40cPoPBBcAbV09/OvNndz1yatFhp0Tze1iF7rwIP3OlE7lFLvc6mZGpMyuK0yV2d0JyEpJG2wozUwfAj9GyhW7hMXaisXayr+27zOs3XH4IrHGPa0d+voT/ufrO+nsUUUQ7dnTffBMBcDbQDMg1Cj5iRff5LarLyFQB52rdoeDpraZyqSfnfBg/RYAU2V2Cyqt9A5KmV0XaAd2oSz224EaTbORnImT5YqjmRQkugaI0ygv3XKy3bG/rw+r0iblipcvjdGl/kD4IrEnPw0t7TgcDl38vw4MDfPkK/9VI3Qryi7lKZypABgFXgC+ITKLrp5enn1tB1+99WMiw86Kto5ubIJFaUJ1pCrV1TdIobnRueC3dC/0pnOXGETRyZ44xz/M/MrsSsTQDPx7/DJxqt2xfv5QdcLg8IlyxTERoePFgGJ3LPrJe7ZECC4AhoZttHcfZ4kOTIGe/s/bdHSLtTse53mU0eNTOJvm5F+BexEs5fnEi2/wycvPJzI8VGTYGWOpF9uU7e/jjb+PdhKeQyOjTgGegkor5iZpl+sCduAgk+f4e4AhTTOSiGbiZ3wQ+BVKc/NUu+M1SLvjU2jq6GbrhwfY+uGBcbvjaGf/wJqMpZrZHQf4+eDv6yNUEriqvknzAqC5vZMnXjylSV8EDuCJM33ybCtWKcrc4JUis+kbGOSXT77Ar7/7FZFhZ4xoi8XEJfP7CyTtcmdNE8pT/k6UkTM5nrewGEKRV34X+D6Km+ElTBYEydqlpk8Uu+MmyuuaeOY0dse5y5LxnEcNlMSoCMrrmoTFKzHXsHHlMmHxZsPDT77AgGCr43HeBo6d6ZPTPbI+guACAGDre3v51LVbWJuVLjq0y5Ra6oTGWxqp/o7GxDl+fkUDRZYmegbkw6oLdKF420+cEZu1TUeiMzqYPC4ASGVyuuASpFzxKZxsdxwaFMCGrBTnkUH8knBVXz8ldonwAkBL9h8p483389QK/9jZPjldAbAdZScgS1g6KBXlDx75G6/9/gF8NdpKOlhWKTRekgoFwPGBYQ5YGp2LvrTLdYlhFHW5iXP8AygjexKJK1jGrydQRgun2h2fg7Q7PoXuvhPliuOXhLNpxYRccQohgnujkmOWCI1XVCp2LZgJg8M27vvtkzjUOa89xqQx12mZrgBwoFQQZzxDmC2VtVZ++/eX+f6XbhMdelpqrM3UN7cJjSmiABgZHeNITYtTgKfc2i5ldqfHARxlcsH/EP3Y5UqMzRiKT0M+8BCK3fEFTB4X5CDtjk+hoa2Tl3d18vKuAkwmE8uXxrApe9zuOCMRH6+59Uolx4otAOqaWqlvaiUhJlJoXFf49dMvUdekmtnnY0xjKubKT+JZlFlb4aM0T/1nG1s2r2FDzvyev+w+IF6kLSV65tteDgdYmjvIr5g8x5eWwi7RwIl2uS3apiNZIAygnKm+Pf7vKBS744kjg3iN8tItdrudkmorJdVW/vbmB/j5eLM2M8lpaJSREDXjETw1JI53FxXzqWsuER73bOw9WMKzW1XR/AflHvnUdF/kSgEwCDwI/HGuGZ2M3eHg2798gtd+/wDh8+gTsH1vodB4oYF+JCx2rQmwpbufQrOypV9obqSrT19KVDrlOIqBzsSif8amFolkHmkBnhu/AJYxWQxcBCzSJi39MmQbYe/RSvYeVbbdwxcFsjEr1WloFB0+/X00OWYxoUEBdPeJ2+jbvqdwXguAlo4uvvmLP2FXb1TrIZTj0LPiaunlA5QDSXNI6IxsXLmcfzz8PTznwcmqub2T82//htA3/oLsJB7+7GWn/Vz/kI0iS5Nyjl/ZIO1yXWOUE+1y97Mw7HIl7oMXsJHJ/oFNuPbAtaBJilnM5vHpgg3LUwj0P33LxTce/Re7isqEva6nycTufz5CVIT6PZ9jY2Pc/r2HyT+q2nNMHZCOC9Lkrv5C2lAsO6fdUpgN+4+U8dBfn+fHX7ldjfAnsPXdPcKrrpVJk1tSo2N2SupanfP4pfVturWc1BllTJ7jv4/iXS2RGJVRFF2JPcDPgGBOtDsW2ljtLtQ0tVPT1M7zO/Pw9DSRkxKvTBdkpbJyit3xmoylQguAMbud19/byxdvukZYzDNx/++fUXPxB2XH3iWhhJkcvnihmHFkziYjV/jhlz/NnTcInzp0YhsZ5aLPfosWwfrPP7rlQvoGbRRUWimSdrmu0oxyfj+x6Fu1TUcimVfiONHuWKjsujsS4OfD+mXJbMpOI8jfl/uf/I/Q+DFLItj191/jPccmxbPxxItv8KunXlItPsrx6ErOoPx3MjPtYL0aeGumGbmKh4cHD957J7dcdZEq8V/47y5++KgqmxiS6elH6dCfOMcvZpoOVYlkgeDBqXbH+tDeXWA8/K27uOmKC1WJ/eK29/nho0+pNfI3wZVMM/o3ldmMsLwKXD+L73MJT5OJX/7vl7h+y7lC4/YNDHL5Xd8T/vQvOSNjQCGT5/h7kXa5Eokr+ACbmWwoXI+0O54XoheHs+PJXxAg2LDuubfe4/7H/6724r8V+MRMvmE2v1T7gS8Bqij4OBwOduw9QKC/n1ClwF899RIfFYkf/5OcgBl4EXgYuBv4PYoKXw1SjEcicZUxoBblb+dJlHnuAqATCEWRL5aoQN/AICMjY5y/LkdYzCdefIMH//yc2ov/EHAd0D2Tb5pNAdCNsnOg6szE7gNH6Trey7lrV+BpmpvO9IeFR3jgT/9U+wewEGlH0dN/BMU46gGUI6IypKmORCKKIZS/qbeAx4FngBKUEe1oFIEiiSAOl1tYk5VO4hyFgWwjo9z3uyf52yvbBGV2Vh4AXpvpN81WxcoXRWI1e5bf7zIrM1J47IdfJyF6dupPVQ1N3Hjvz+jp6xec2YJkiEkjnR3AIaRdrkSiJSZgNZP9A+ci7Y7nTOiiIF555Cckxc2uN9NcZ+Vbv3hivnwGilDGTGfcfT4XGcvVKMcBPnOI4RL+vj7c+5kbuPOGK2ekFVBWVcfnfvBL2rvk7P0ssaMs8hPn+B+hPHVIJBJ94o9SBEz0D6xG2h3PiiVhITzz8++RmZzg8vfYRkZ5+tW3efQf/2F4fqbBhlF6RGZ1vj1XHevvAr+YYwyXWRobxd23Xcf1l5yLl9eZCwG7w8E/39jJr556iYFBuRM9Q2qZHM17F2WbXyKRGJPFKHLFE+OGSZpmYzAC/f347hdu4VPXbsF0FsnioWEbb36Qx+P/fJWGlnm9Zd7HHNbguRYAJmAXytjKvBG6KIirzt/AuWuyWZGWxKJgZWLG2txO3pEyXty2C3OdtHl3kW6Un+HEoq+dNZZEIlGbdCaLgYuRdscukZYYxy1XXcTGlctIiotmdGyMnt5+jlZUse9wGf/9YL8Wx8y7UX6Gs26wFuFktRTlDEJdE2iJKGycaJdbiOzQl0gWIp4o28dT7Y5VP9KVCKEJxaq6aS5BRFlZbkFxyJJa1/qkislz/O2AbIqQSCQnE4BSBEwUBGuRdsd6ZBRlzf1Q60Sm8g0UZTd5aX81Ay+h6DW43sEikUgkkywBbgL+jNIbpPV9TV7Kdc/Zfmha8jTavzkL8ToOvI7yiyFNRiQSiRosR7nHvI5yz9H6vrcQr79O+1OaAaK3d3xRdIgvFBxXciKjQD6T5/h5SLtciUQyf3ihzJ5PHBdsRB4Bq80bwA0IvNercb4TiNIPcJ4KsRcyU8/xdzBDyUeJRCJRkUAU/wLZP6AO+1HO/Q2haBeOIiCj9XaJka9m4F/A54H4mb39EolEoinxwOdQ7mHNaH8/NfJ1BANO2UWieBNr/eYZ5eoHtgHfBlYhq2eJROIeeKB41H8b5R7Xj/b3W6Nc+Rhw8Z8gAsUGVus3UY/XhF3uwyhbZmL9JyUSiUSfeKHMsH8P5TjThvb3Yz1eHwKLZvke64YglKpP6zdTD5cZeAL4JAau6iQSiUQgYSj3xD+hKJFqfZ/Ww/UGbuTy6A08hfZv6nxf7UzO4yfP+V2USCQS9ycZ+CLwIso9VOv7+HxeduAh3NTA6Q7c+/xnhBO39eVYjEQikcyNbCaPCwbR/j6v1jUIfEbQe6ZbVgMVaP9mi7jswEHgl8DlSB9uiUQiURN/FKvjX6J40Iyh/Tog4joE5Ah8n3RNMPA4xvzh1QJ/A25FkcqUSCQSiTYsQbkXPwnUoP36MNNrBPh/LFATpk0oM45a/xDOdnUDrwJ3AxnqvA0SiUQiEUAGyr36P0AX2q8fZ7sOALnqvA3GwRv4OmBF+x+IA2Uk5QPgxygFiqd6/+sSiUQiUQlPlHv4j1Du6cNov744UHaRb8dNG/1miz/wLaCF+f+BHAV+B1yDMrYokUgkEvciELga5V5/lPlfZ2pQxJCk5stZ8EGxoNyB0mSnxg+iBWmXK5FIJAuZSObH7vij8deRU2EzJBVlV2A7MMTsfwC9wJvAvSgjJRKJRCKRTCUbZY14A2XNmO16Y0MxbfsfYOm8/h/MECPpzQeiWE6uGL+yUKSGQ8YvO0rTRzfQAZSgNFkUjf+3tMuVSCQSiSt4oRQE61CcDXNQ1pswIBSlv6CbyTWnDDg8fhUBx+c/5Znz/wGXLZWYkotVrAAAAABJRU5ErkJggg==;" parent="1" vertex="1">
                    <mxGeometry x="305.5" y="660" width="62" height="62" as="geometry"/>
                </mxCell>
            </root>
        </mxGraphModel>
    </diagram>
    <diagram name="check payment" id="z1TcdgwySzHgyh07MLWd">
        <mxGraphModel dx="914" dy="506" grid="1" gridSize="10" guides="1" tooltips="1" connect="1" arrows="1" fold="1" page="1" pageScale="1" pageWidth="850" pageHeight="1100" math="0" shadow="0">
            <root>
                <mxCell id="sAZEsEQ7PZzyUVMXOdmO-0"/>
                <mxCell id="sAZEsEQ7PZzyUVMXOdmO-1" parent="sAZEsEQ7PZzyUVMXOdmO-0"/>
                <mxCell id="sAZEsEQ7PZzyUVMXOdmO-2" value="Chain" style="rounded=0;whiteSpace=wrap;html=1;verticalAlign=top;align=left;" vertex="1" parent="sAZEsEQ7PZzyUVMXOdmO-1">
                    <mxGeometry x="220" y="410" width="390" height="350" as="geometry"/>
                </mxCell>
                <mxCell id="sAZEsEQ7PZzyUVMXOdmO-5" value="User" style="shape=umlActor;verticalLabelPosition=bottom;verticalAlign=top;html=1;outlineConnect=0;" vertex="1" parent="sAZEsEQ7PZzyUVMXOdmO-1">
                    <mxGeometry x="337.5" y="50" width="30" height="60" as="geometry"/>
                </mxCell>
                <mxCell id="sAZEsEQ7PZzyUVMXOdmO-6" value="3. check payment" style="edgeStyle=none;html=1;entryX=0.75;entryY=0;entryDx=0;entryDy=0;" edge="1" parent="sAZEsEQ7PZzyUVMXOdmO-1" source="sAZEsEQ7PZzyUVMXOdmO-8" target="sAZEsEQ7PZzyUVMXOdmO-17">
                    <mxGeometry x="-0.15" y="4" relative="1" as="geometry">
                        <mxPoint as="offset"/>
                    </mxGeometry>
                </mxCell>
                <mxCell id="sAZEsEQ7PZzyUVMXOdmO-7" value="4. Allow to use" style="edgeStyle=none;html=1;entryX=0;entryY=1;entryDx=0;entryDy=0;entryPerimeter=0;" edge="1" parent="sAZEsEQ7PZzyUVMXOdmO-1" source="sAZEsEQ7PZzyUVMXOdmO-8" target="sAZEsEQ7PZzyUVMXOdmO-5">
                    <mxGeometry relative="1" as="geometry"/>
                </mxCell>
                <mxCell id="sAZEsEQ7PZzyUVMXOdmO-8" value="web2&amp;nbsp;service" style="rounded=0;whiteSpace=wrap;html=1;" vertex="1" parent="sAZEsEQ7PZzyUVMXOdmO-1">
                    <mxGeometry x="250" y="240" width="140" height="60" as="geometry"/>
                </mxCell>
                <mxCell id="sAZEsEQ7PZzyUVMXOdmO-9" value="dex or cex" style="ellipse;whiteSpace=wrap;html=1;aspect=fixed;" vertex="1" parent="sAZEsEQ7PZzyUVMXOdmO-1">
                    <mxGeometry x="550" y="50" width="250" height="250" as="geometry"/>
                </mxCell>
                <mxCell id="sAZEsEQ7PZzyUVMXOdmO-16" value="is burning?" style="edgeStyle=none;html=1;entryX=0.5;entryY=0;entryDx=0;entryDy=0;" edge="1" parent="sAZEsEQ7PZzyUVMXOdmO-1" source="sAZEsEQ7PZzyUVMXOdmO-17" target="sAZEsEQ7PZzyUVMXOdmO-18">
                    <mxGeometry relative="1" as="geometry"/>
                </mxCell>
                <mxCell id="LXHdWAozkDrdev_-1lzV-0" value="burning" style="edgeStyle=none;html=1;entryX=0.179;entryY=0.983;entryDx=0;entryDy=0;entryPerimeter=0;" edge="1" parent="sAZEsEQ7PZzyUVMXOdmO-1" source="sAZEsEQ7PZzyUVMXOdmO-17" target="sAZEsEQ7PZzyUVMXOdmO-8">
                    <mxGeometry x="0.437" y="6" relative="1" as="geometry">
                        <mxPoint as="offset"/>
                    </mxGeometry>
                </mxCell>
                <mxCell id="sAZEsEQ7PZzyUVMXOdmO-17" value="protocol" style="rounded=0;whiteSpace=wrap;html=1;" vertex="1" parent="sAZEsEQ7PZzyUVMXOdmO-1">
                    <mxGeometry x="380" y="540" width="100" height="40" as="geometry"/>
                </mxCell>
                <mxCell id="sAZEsEQ7PZzyUVMXOdmO-18" value="" style="shape=image;verticalLabelPosition=bottom;labelBackgroundColor=default;verticalAlign=top;aspect=fixed;imageAspect=0;image=data:image/png,iVBORw0KGgoAAAANSUhEUgAAAgAAAAIACAYAAAD0eNT6AAAABHNCSVQICAgIfAhkiAAAAAlwSFlzAAAOxAAADsQBlSsOGwAAABl0RVh0U29mdHdhcmUAd3d3Lmlua3NjYXBlLm9yZ5vuPBoAACAASURBVHic7N13mJTV9cDx78z23ntnd1l2l96bKM0GiiIqxC7ELrZoNLH3EvWnxh41RaOxxpooGFtQUBABaQLSOyywsGzf+f0xQBDYOufO+87M+TzPPnmCy7mXLfOeueUcUEr5o37AY8APwC6gHtgETAduBnpaNzWllFJKSesMTANcbfhYAty27+8opZRSykeNBSpp28P/0I+ZwPlAhLcnrZRSSqmOGwHU0LGH/8EfFcAjQIl3p6+UUkqp9krGvb/v6cP/4I8m3OcFjvPiv0MppZRS7fAEsg//Qz++A04BHN76BymllFKqZbFAFWYTgP0fC4BfAUFe+ZcppZRSqlkT8M7D/+CPZcCFQLAX/n1KKaWUOoJ78X4CsP9jCXA6ujWglFJKed1fsC4B2P/xFTDQ9D9UKSXLafUElFIescO776HA18CfgXRrp6KUaitNAJTybeutnsA+DuA8YDlwOxBq6WyUUkopPzce67cAjvQxHxhg8N+tlFJKBbRYYA/WP/CP9NGAu6pglLF/vVJKKRXAHsP6h31LHz8Do4z965VSSqkAlYH3igF19KMJeBaINPQ1UEoppQLSH7D+Id+Wj0VAL0NfA6WUUirgJAO7sP4B35aPOtw3BfQWklJKKSXgDqx/uLfn4yMg0chXQimllAogccA2rH+wt+djDXpdUClLaFcvpfxH7b7/HW3pLNonDjgH2A3MsnguSimllM+KBDZg/Tv7jnw8j1YQVEoppTrsaqx/mHf04z9AgvyXRCmllPJ/UfjeWYCDP5YBJeJfFaWUUioA3I31D3JPPrYDR4t/VZRSSik/lwZUY/2D3JOPGuA06S+MUkop5e+ewfqHuKcfDcCF0l8YpZRSyp91wv0Atfoh7ulHE3CN8NdGqYCndQCU8l87gB5AqdUT8ZADOA53MvOVxXNRSimlfMIIrH8HL/lxr+yXRymllPJPDmA5wg/isBCnlUnArbJfIqUCk24BKOX/YnCvBIgZMyiZC07M5Mv5O2lsckmGbovhuG84zPD2wEoppZQvSQfqEXwXHhMZ5KqdPsL17bP9XSW5kVasAjQBl0p/oZQKJLoCoJT/2wP0Q7C6Xl29ixG9ExnSLZ7JY7LYvbeBb5dUSoVvCwdwIrAe+N6bAyvlLzQBUCowVAGTJAOmJoQyum8SIcEOThiQTK/iGP49azs1dU2Sw7TEAYwB5uAuH6yUagen1RNQSnnFv3BfCxTz0cxtv/j/Jw9J4dtn+1NeECU5TGuCgNeAXt4cVCl/oAmAUoGhHvhQMuDClVWs3lzziz8rzo5k5tP9OWN4muRQrYnG/W/L9eagSvk63QJQKnA4gTMkA/YqjqFHUcwv/iw0xMmEo9OICg/iP9/vwOWdSwIxwEjg70CtV0ZUysfpCoBSgeNj3A12xHy7+MgH/xwOuH5SHh8+0JPoCK+9z+iOOwHQ1zWl2kB/UZQKHHuA6ZIBv128q8X/flz/JD5/rA+pCaGSw7ZkDHCLtwZTypdpAqBUYHlXMti8FXuorW/51H+fklj++8e+FGRESA7dkltxXxFUSrVAEwClAsvnksHq6puYu2x3q59XnB3J10/1o1dxTKufK8AJvAwUemMwpXyVJgBKBZYVwFbJgM2dAzhUemIonz3Wh2N6JkgO35wE4C0g3BuDKeWLNAFQKrC4gFmSARet2tPmz42LCuajB3sxvJdXkoAewAPeGEgpX6QJgFKB5xvJYD9vqG7X50eEOfng/p4c1T1echrNuRL3wUCl1CE0AVAq8FiaAABEhgfx/v096VsSKzmVI3EALwJerUyklC/QBECpwLNAMtjqzTU0NLa/2k9cVDD/eqiXN0oHpwLPmR5EKV+jCYBSgWcb0PrR/TZqaHSxZnPH6gslx4Uw7eHeFGdHSk2nOScDU0wPopQv0QRAqcC0WjLYqk3t3wbYLyMpjGmP9CbNfLGgh4AM04Mo5Ss0AVAqMK2SDLZjd4NHfz8vLZy37+5BWIjRl6R44DGTAyjlSzQBUCowrZIMtnuvZwkAwOCucTx3fanAbFp0OjDO9CBK+QJNAJQKTBWSwSr3NorEOfe4DK49w3hX36eAONODKGV3mgAoFZg8f8t+kMoquXAPXlrMCQOSxOIdQSZwp8kBlPIFmgAoFZhEEwCJLYD9gpwOXr2tG6V5Rq8HXgaUmRxAKbvTBECpwCSaAEiLiwrmjTu6ExFm7CUqGPetAKUCliYASgUmmU37fcJDgyTDAVBeEMV9FxWJxz3IicCxJgdQys40AVAqMCVLBgsPNfNSMvW0XMYMEp3qoR7FvRqgVMDRBECpwJQuGczUUr3DAS/+tsxkkaAy4EJTwZWyM00AlApMogmAqRUAgNSEUJ6/oRSHw9gQdwDGaxErZTeaACgVmEQTgJR4s2V8TxqcwsUnZ5sKnw5cbCq4UnalCYBSgScI6CwZMDctXDLcET14STFZyWGmwt8ARJgKrpQdaQKgVODpBohess/zQgIQExnEQ5cVmwqfjnYLVAFGEwClAs8AyWDhoU7jWwD7TRqZzojeiabC3wSYz2SUsglNAJQKPP0kg+WmhZs8oHeYJ68pIdRM18AM4AITgZWyI00AlAosDmCkZMAehTGS4VrVJTeK68401jDoRrQugAoQmgAoFVj6APmSAft1iZUM1yY3n1Ng6txBLnCKicBK2Y0mAEoFltOkA/Yv9X4CEBkexF1TCk2Fv8JUYKXsRBMApQLLqZLBnE4HvYq9uwWw369GpZvqGHg00N1EYKXsRBMApQLHUKBEMmC3TtHERlmzZR7kdHD7BZ1MhddVAOX3NAFQKnBcLR3wxIFJ0iHb5fRj0uhZZGQF4mzA2n+cUoZpAqBUYMgFxkkHPXGg0U59rXI4MLUKEIFeCVR+ThMApQLDFQhfb0uICWFgWZxkyA45eUiKqZsIk00EVcouNAFQyv+lApdKBz2+fxLBQV6sANQMhwNuPc/IKkAXoK+JwErZgSYASvm/m4Fo6aDnHJchHbLDxgxKpiTXSEffs00EVcoONAFQyr/lARdJB81MDuPYfsZq8rebwwGXjjPSLngSWhlQ+SlNAJTyb3cB4j10zx6dTpDT+uX/g51/QibREUHSYVOBY6WDKmUHmgAo5b+OwsAStsPhftjaTVxUMOea2ZbQbQDllzQBUMo/hQBP427+I2p03yRTFfg8dsX4HBOdCccB1pQ7VMog3dtSviAY6An0ApKBemAtMBNYbeG87OwaoNxE4N9MzDMRVkRpXhSj+iQybXaFZNhI4HjgDcmgSllNEwBlZ1HAb3AfYmtuzfkb4CHgHW9Nygd0Am41EbhnUQyj+9rn8N+RXHRStnQCADAWTQCUn9EtAGVXQ4DFwO00//AHGAS8Dfy7lc8LFE7gBdzJkzg7v/vfb8ygZBP9CU4AxE8YKmUlTQCUHZ0EfArktOPvHAfMQ3u5Xw4cYyJwaV4UE0emmQgtKiLMybghKdJhU4D+0kGVspImAMpuugOv0bGra8m4twKew9A7YJsrAu43FfyuyYW2u/rXnEmj0k2EHWsiqFJW0QRA2YkTeBH3oStP/BqYQ2CVcQ0G/ornX7sj6tcllvHDUk2ENmJUn0SS40Kkw2oCoPyKJgDKTsYCfYRilQBfAzcSGD/nt+E+D2HEfRcVmbheZ0xIsIPTjhZPWLrj7qqolF8IhBdG5TvOF44XAtwHvAdY37bOnKOBm0wFP/WoVEb2sffJ/yOZNNLINsDxJoIqZQVNAJRdOIBRhmKPAb4FSg3Ft1Ii8DKGTqhHhDl55IpiE6GNO6p7PKkJodJhh0oHVMoqmgAou0jHbLW1zsAs/O+WwJ8AI11wAH77q3zy0yNMhTfK6XQwSn7l4ijpgEpZRRMAZRfeOLUfg7tmwB34x8/+JcCppoIXZUVyw6R8U+G9wkDRonwMJlxKeZM/vAgq/1DlpXEcuKvk/RPfru9eDjxiKrjT6eDFG8uICPPtl4hj+yWZOLyo2wDKL/j2b7fyJxuBnV4c7yTgc8D+lW0OFw68Chhbm596Wg5HdY83Fd5rMpPDKM+Plg6rCYDyC5oAKDv5wcvj9Qb+i7t2vi95GOhmKnhxdiT3TCk0Fd7rRvfTcwBKHYkmAMpOvrNgzCJgBu5Og75gDHCpqeBOp4MXfltGZLj/lL0f3TdJOmRX3LcvlPJpmgAoO7EiAQD3DYTPMFRDX1AO7mp/xkryXD3BP5b+D3Z0j3hCQ0Rf6pzIFaxSyjKaACg7sSoBAHehoH9h8FS9h4KAVzD4zrMkN5K7pxSZCm+ZyPAgunUSPwfQXTqgUt6mCYCyk1XAVgvHDwdeB8ZbOIfm3ILBvecgp4OXbiz3+VP/zelbIn7hw9gZDKW8xT9/25Uvs3IVANxNdV7FXo1fjgJuNjnAzecWMKjcf6sl9y2JlQ6pCYDyeZoAKLuxOgEACAXexB513xMwWOoXYGi3eG4+t8BUeFvo10U8ASjHnSwq5bM0AVB2M9/qCewThjsJGGLxPP6EwQ50CTEhvHJLV4KDfKjVXweUF0RLb2+EAb7ZJEGpfTQBUHaz2uoJHCQK+AjoZ9H452L4PMJT13QhNy3c5BC2EBzkoGeRngNQ6mCaACi7WWn1BA4Ri/t2gLePx2cBj5kc4KKTspg40hcLIXaMgXMAXaUDKuVNuoel7KYCqMT94LWLJOA9YBCwywvjOYAXAGMX8svyo3j0is6mwttSD/kVAG8nAE7c1St7AMlAE7AG+Gbf/yrVLpoAKDtahf3uWZcCr+G+HdBoeKyLgONMBQ8PdfLqrd38qtpfWxRlibdO8NbJyVhgKnAZkNHM58wEHsLd7VKpNtEtAGVHdjoHcLDjgT8YHqOT6TH+cFkx3QvFC+PYXlF2pHRIY4czDzIMWADcRfMPf4CBwFvAh2iZYtVGmgAoO1pl9QRacDUwxVBsJ/ASYOzpfMpRKVx2So6p8LaWmRQmveqRiNmW0icBn9C+RONE3L0tAudwh+owTQCUHW22egKteAr3OzNpVxuKC0BOajgv3FCGw79v/DXL4YDCTPFtgDzpgPv0wF2QKqwDf7cL8C7uehZKNUsTAGVHe62eQCtCgL/jPhwopRC4WzDeLwQ5HbxyS1cSY0NMDeETirJ8YhvAibv+Q5QHMQbgLh+tVLM0AVB2VG31BNogC/eLtJTHAPG3p/vden6B33X564iibPEvsYkE4CSgr0CcG7GuhoXyAZoAKDuqsnoCbXQK7hP7nvoVMEYgzhEd3TOB35/j36V+26pY/iCgiS2A84XiBAMv0rFtBBUANAFQdmT3LYCDPYJ7z7WjEvbFMCIpNoSXb+5KkDNAN/4PkZMqXvVQOgFwAscIxusK3C4YT/kRTQCUHflSAhAFvELHD1zdhcET209e04XsFH0DuF9KnPgZiGzheCXIF4C6HpktBeVnNAFQdlRj9QTaqTdwZwf+XlfgYuG5HDBxZBpnjtDbYAdLiRc/GJ8gHM/EgzoIeBqDHSWVb9IEQNmR6FvWgowI8tONna/b71raXxr2UQxV48xICuPJqz3ZmfBPBhIA6Xfrpt6p9wUuNRRb+ShNAJQdiRZXyUkN518P9STJ7BW4EOBJ3HX822IcMMrERBwO+NMNpQF/5e9IIsKcREeIvhGWTgAGCsc72N20XE1QBRhNAJQdiVbCiwp30iU3ivfu6yndE/5Qw4Cz2/B5IRgs9ztlTBYnDkw2Fd7nCa8CROP+fkqIwb2dZEoc8LDB+MrHaAKg7Eh0BSBq3zu+wV3j+Nvvu5quhPcQrb8rnIKh9sIFGRE8fHlgdflrr5R48ZURqVWAIZhv0DYJGGl4DOUjNAFQdiS8AvC/Jd/Tjk41fSc+DffJ/uZEADebGNjpdPDSjWXEROpZr5bY+BzAcKE4rfk/9ECgQhMAZU+yKwCHNIC544JOjB1sdIn8UqBnM//tSiDTxKBTxmRydE/pQ+n+Jz5a/E22VAJwslCc1nQFfu2lsZSNaQKg7Ej0oNKhh76cTgcv39zVRF34/YI48rXAOOAGEwOmJ4bywCXFJkL7nfBQ8Zc9iQSgFM8KSrXXnbh/HlUA0wRA2ZHo/nhm8uG3CuOignnllq6EBBs7EDCWw+uwX4lsA6EDHptaYuKdrV8KDbZlAnCKQIz2SMHQVpTyHZoAKDsqlAzWXPnX/qWx3HGB6FAHcwB3HPT/I4GpJgY6rn8SZwzXgj9tFSa/AiBxqMDbCQC4E1JjvwDK/jQBUHYTA6RLBmyp/vtvf5XHMeb2zU/gf/e6J+N+1yUqJNjBo1foqf/2CAsRf9nzNGA21nTtCwMetGBcZROaACi7EX9HkpvWfALgdDr402/LiAw3dij6Dtz3xK8zEfyyU3IozfOkbXzgMZAAePrDcwptLyAlbTzu+hUqAGkCoOxGdP8/LMRJaivXvgozI7jjgk6Swx7sWOBxDLSNTY4L4bbztc1ve4WFij9rPX0dPV9iEh641+LxlUU0AVB200syWE5qeJsK/1x9ei59SmIlhz7YJSaC3nJeJxJitNxve9lsBaA/0EdqIh00BPd2lQowmgAouxksGawsv23L48FBDp66povpKoFi8tMjuPjkLKun4ZMM3ALwJKCR5LAD7sK6bQhlEU0AlJ2E4H5HJKZXcdtrCvUvjeVXo0TPHxpzx4WdTLyTDQj1jS7pkB1dAYgHzpSciAf6AKdaPQnlXfoKouykJ+7rcmK6F7avqvB9FxWZPBAoorwgirNG+0aiYkf1DU3SITv6A3Mewj/vHroTfSYEFP1mKzsZIh2wZ1H7qgrnpIZzzem50tMQ9ftzCghy6mptR9XVi68AdOR11Il9lv/3K8fdLEgFCE0AlJ0MlQwWGxVMQUZEu//etWfkEhtlz6p6nTIjtOiPh+rkVwA6ko2djndL/7bVbZjvSKhsQhMAZRfhuK/MielZFNOhQ32JsSFcOT5HcipifjMxT9/9e6i2XjwBqG7n5zuBW6UnIaQY668lKi/RBEDZxSiEuwAO69HxEu3XnJFru7a6aQmhXHCCkUaCAcXAFkBVOz//DKBMehKCbsZ9IFf5OU0AlF2Mlw44ondih/9uUmwIvx5rr2t2l56SbaKTXcCpk18BaE8CEIR93/3vlwdMtHoSyjx9NVF2EIxwL/TwUCeDyj3rdnr5qTm2WW4PCXbYLiHxVQbOALQnATgTd+tfu7serQvg9zQBUHZwNMJtcgd3jff43XKnzAjGDk4WmpFnxg1NOWJbY9V+1bWWJQCRwD3SgxvSDTjR6kkoszQBUHZwlnTA4b1kOvzZ5TDgZafYYx7+oKKyXjpkWxOA3wH50oMbdIPVE1BmaQKgrGakGtpx/WUWFEb0TiQ/vf1XCSV1zok02bI44GyXTwD2tuFzioHfSA8McP2kPOKjjdzcGwYMMhFY2YMmAMpq4tXQclLD6SvU2MfhgHOOs7bq3lmj032mR4Ev2LZLPAHY04bP+T9AfA8nLiqY351dwNTTjBWv+q2pwMp6mgAoKzmAi6WDnn5MqugD89zjMix9AE8aqWV/Je3Y7fUVgNMwtJ9+1YRc4qODufr0HOLMFK86Cd84tKg6QBMAZaWjMfDiMuEY2Up5RVmRDCzz7EZBR/XrEktxtp3Kxfu2hkYXu6oapMO2dAYgFXhKekCAmMggrprgPhuSEBPClacZOSfixH0jQPkhTQCUla6QDpidEmbkYX3qUaniMdtC3/3LqqisxyVbB6gSaGlJ4U+4kwBxl5+aQ2Ls/+r1XHO6sRLWZwF6B9UPaQKgrFKOgfajE45JM7JcP25oinzQNjjtaGsSD39l4ADgphb+20W4l9DFRYUHce0Zv9z3T4wN4YpTjawChAJXmwisrKUJgLLKLRj4+Tvv+AzpkID7JH5pXpSR2M3pXhhNblq4V8f0dwYSgI3N/Hkh8Afpwfa7flIeKfGhh/35tWcaK2E9BfDuL4AyThMAZYVS3N3QRA0si2t3+9/2OMnLRYFOHGiPIkT+ZOvOOumQm4/wZxHAPxDubbFfdkoY10/MO+J/S4oN4dJx2SaGjcdAvQ5lLU0AlBWMvPu/6GSz25Qj+3S8t0BHjB2kCYC01ZtqpEMeaQXgSaCP9ED73X9xMZHhzb/Lv2pCLqEhRl7ap6Llgf2KJgDK28pwd0MTFRcVzBnDZU//H2pot3jCzLywHiYxNoSBHvYyUIdbu0U8ATh0BeBq4ALpQfYbUBbHr0a1fDA0MzmMiSOM/C6U4y4OpPyEJgDK2x7G3RFN1Fmj04lq4V2RhMjwIAZ46TrgsB7xtmlE5E9WbxZPAA4+BDgCeEh6gP0cDnj0is5tOuR66AFBQeI3d5R1NAFQ3nQicLx0UKfTYeoO9GG8VZJ3SNd4r4wTaNaYSwBKgddxd7Y04pxjM9rc4bJHUYypLatTgEwTgZX3aQKgvCUYeNBE4FOPSqFLrncOKA8okykx3JqjumsCYIKhFYBM4F8Id7Q8WHpiKI9e0bldf8fQKkAwcL6JwMr7NAFQ3nIF7j1Ecb9p5kS0Cf1LzW8BRIQ56VVs7jZDoKqubTJxC6Aa+Agw+kP45DVdflH0py1OGJBMWb6RxHgK+uzwC/pNVN6QCtxqIvDwXgleLdObHBdCQYbZ7oADSuNMneIOaGs210hXAQR4CeghHvUgZwxPY/yw9heEcjjg6tONrAIUACNNBFbepa8yyhseB4xsnv/2V/kmwraoXxez2wB9DccPVGvkbwAADDQRdL/kuBD+eHVJh//+OcdmkJpweMEgAVNMBFXepQmAMu1k4EwTgQeVx3Fcf2Pbrs3qWhBtNH73QrPxA9WqTdVWT6Hdnr629IgV/9oqPNTJxWbqY5wCWFMfW4nRBECZFIehTmgA915UZCp0iwztqx7QvZMmACYsXdNa1157uXRcNhOO8bwXxJQxWSaulIYCZ0sHVd6lCYAy6SEMdRE7YUCS167kHcpkAhAS7PB6z4FAsWjVHqun0GbdOkXz8OXtO/XfnNy0cI7tZ+RK4Dkmgirv0QRAmTIaQ/uEDgfcPcWad/8AxdmRxg7pdcmN0gOAhixe7RsrANERQbx5Z3ciwuR+Di46yUh/gF5ANxOBlXfoK40yIQn4M4bqhp8xPI3ena27Jhcc5CA/3UyXvvICffdvQlVNI6s3+8YZgGeuK6VzTqRozLGDk8lIChONuY+uAvgwTQCUCU9hqFpYRJiT+yza+z9YnqE2vZ0yZF/4ldvi1VUmrgCKu+aMXM4a3XKt/44IDnJwwQlGfiXPwkBpb+UdmgAoaVMw0Oxnv5vOKjB+D78t8tLNzCHP0MpCoFu0qsrqKbTquP5JPHhJsbH4U8Zm4pQ/DJgJDJcOqrxDEwAlqRh41FTwTpkRXD/Je1X/WmJqBcDU1kKgW7LG3glAeUEUr9/ejeAgcw2gCjIiGNnbyMFZ3QbwUZoAKCnhwGuAsTts/3dlZ8JD7fEjm2soAchLs351wx/ZeQUgJT6U9+/rSWyUsT5CB/z6JGM1ATRz9UH2eDVV/uD/gN6mgo8dnMxJg+1TdyTNQHU1h0O3AExZvNqeCUBUeBDv3tvDa9ta44akmKgMGAscJx1UmacJgJJwDnCxqeCxUcE8dU0XU+E7xJPqbM1Jjgu1zQqHP6mqaWTFevvdAAgNcfLWXd3b3OJXasyzDRwyBE43EVSZpa82ylPlwNMmB3jg4iJyUu31zthEffXkuPZ1e1NtM2dpJY1N9roC4HQ6+Ovvyi0pZT1xpJEE4GRA9698jCYAyhMxwJuAscvrw3okcJGZfUuPmHhYt7fdq2qb73/abfUUfsHhgKeu6cKZI9IsGb9fl1gKM8Wf1THAsdJBlVmaAKiOcgB/BYytzUeEOXn++lITV5c8Fh7qJCpc9vpzYowmACbMXlpp9RQOcDjg8aklphr0tNmZI3QbQGkCoDruFtynf425Z0qReEU0SdERsglAkm4BGGGXBMDpdPD0taVcMT7H6qkwcaSR1YeTASPlBpUZmgCojjgJuM3kAMN6JHDVBOtfKFsinQDoGQB5lVUNLFtn/QFAp9PBn24otfyd/37dOkWbKDsdgxYF8imaAKj26gL8DYM/O4mxIbxyS1dbLv0fLCZS9t52nBfugQea75ftpsniA4ChIU7+9vtyU6V4O+zM4Ua2AU4yEVSZoQmAao8E4J+A0XtLT1/bhewU+68kSq8AhGkXQHGzl1i7/B8TGcQH9/fkV6OMPGw9YugQ4kkYagKm5OkrjmqrYOB1oMTkIOcdn8EZw605Hd1e0nf2Q4L1dVOalfv/6YmhfP5YX0b3TbRsDi3pnBNpoqtmDtBTOqgyQxMA1VaPAaNMDtAlN4o/Xm2vgj8tka7bHqorAOLmLLXmCmBZfhQznuxnadvqtjB0G0C3AXyEvuKotrgCuMzkABFhTv5xezfxZXWTgoXfsYfqCoCo6tomft7o/QOAJw1O4Zun+tFJ/q69uDOGp+KQ/7EbKx5RGaEJgGrNsRjs8LffY1NL6F5orI+QEboCYG8bttd69QCgwwG/O7uAf97T3SuNfSTkp0fQtyRWOmwfIFk6qJKnrziqJaXAP3Dv/xszaWQ6vx5rj+tR7SGdAOgZAN8VFxXMm3d2555fF9r+9sqhxgwSf1Y7MbxdqGRoAqCakwi8C8SbHKRLbhTPXOc7+/4HixW+BpiglQBFZSaFmVjePkyv4hhmP9+f8cNSzQ9mwFj5BAC0LLBP0ARAHUkI8DZQbHKQhJgQ3r+/h88slx4qM1n2qmJmkv2vPvqSiDAn5fnmtpUcDrhyfA5fP9WPoiz7VqxsTe/OsWTI/+wdh14HtD1NANSRPA0cbXIAp9PBK7d09ekXzj6d5fZOYyKDKMn13a+FXZ06LMVI3Ly0cKY/0pvHryrx+RbODgecOFC8K2Em0FU6qJLl2z+5yoRrgcmmB7l7ciEnDPB+K1RJx/ZLJFKoIdDx/ZN9qhBQdW0TS9ZUMWdpJT+t3Ut9g73a4WFFzQAAIABJREFU7e538cnZ4g/oyWMymf/SQEb0tuf9/o4wcA4AYLSJoEqOb669KlPGAA+aHmTCManceFa+6WGMiwwP4pKTs3jk9TUexXE44Lozc4VmZU5tfRN/n76Jlz7awKzFldTVNx34bxFhToZ2i+fCE7M4fXgqQTY5CJeVHMbvzi7g1hdXeBwrIymM568vNfWwtNSoPkmEhTipPeh7KuAY4BHJgEqWPX5LlR10BWYA4neCfjFIQTTfPN3Pp+77t6Sisp7Sc79hy466Dsc4a3Q6L99s79XSz3/YwUUPLWbZur2tfm6PohheurGMXsX2KILT2ORi7G9/4N/fbu/Q3w8OcnDF+Bxuv6CTX/drOO43c/nku459jZqxE0gCRLMKJcc/XoWVp1KA/wBGC5YnxITw6aO9SU/0n8NuEWFBDC6P4+Vpm2jswJ3zbp2ieeeeHrauAfDChxs48/YFbNtV36bP31xRx98+2URpXhSleeId59rN6XBw2tFpzF+xh5/Wtp7AHGx4rwTeu7cn5xyX4fN7/a3ZtrOej2UTgHDcN4k2SQZVcjQBUGHAh0APk4M4nQ7euqs7A0qN9hGyRG5aOP27xPLBN9uoqWv7m52BZXF8cH9PkmLte/3vna+2cM49C9ud3NQ3uHj7yy0UZ0fSrZP1BZ5Cgh1MHJlOUmwIsxZXUl3b8vepvCCK568v476LikhNCPXSLK0VGebkmffWS4ddDMySDqpk6BaAegk43/QgD1xSzA2T8kwPY6nl6/dy7R+X8f7XW1v8vMjwIK49I5ffn1Ng63eVW3bUUXruN1RUtu2d/5EEOR28eGMZ5x6XITgzz+ze28irn27ivRlbmb9iD1t31hHkdJCfEc7AsjjOGJ7GqD6JPlfQx1NNTS7STvmyzSs9bfQOMF4yoJITWD/h6lA3AA+YHuT8EzJ56cYy08PYxndLKnnz881Mn1PB+q217NjTQFpCKF1yIxkzKJkzhqeZuHct7uonfuKxNz074Aju1Z/nflPK5DGZArNSJk24dT5vfbFFMuQ2IBWw5zWRAKcJQOA6GXd2bvQt6FHd45n+SG9b73Grw1XXNpE67gv2VDeKxHM6Hfz5pjLOOdY+KwHqcE/9cx2XP7pEOmw5sEg6qPKcvioHpu7AKxj+/nfKjODtu+19wE0d2X8X7BR7+IN7efnC+xdJv7tUwob3SjARdoCJoMpz+soceJJxv/M3ejIrJjKIf97Tg+Q4+x5wU82bv2K3eMyGRheT7lzAh99sE4+tZJTmRYmXuEYTANvSBCCwhAPvAZ1MDhLkdPD6Hd1tcfpbdczWnaIHwQ6ob3Bx+m3z+Wr+TiPxleeO6Sm+CqAJgE1pAhBYngIGmR7kkSs6c3x/3y7zG+hM3k6orm1i3O/msWhVlbExVMcdLZ8AdAWsLwihDqMJQOC4DLjA9CCTx2Qy9bQc08MowxIN1ybYsbueY6/7nrVbaoyOo9pvYJl4rY5goI90UOU5TQACwyDgUdODjOqTyDPXlZoeRnlBRpL54jfrt9Uy9sYf2FXVYHws1XblBVEmSnUPlA6oPKcJgP9LA94AjL6il+RG8vod3QgO0pul/sBbdQrmr9jD6bfOp6FRr4nbRZDTQb8u4i1BdAXAhjQB8G/BwD+ALJODJMSE8N69PUmI0RP//iI90Xvlb6fNruC6J3/y2niqdQPktwGMlhpXHaMJgH/7A3C0yQFCgh28cUc3OudEmhxGeZm3+xM8/tZanpWvQ686yEDPjiJAXyRsRhMA/zUOmGp6kMenljCyT6LpYZSXRUd4v+3tlY8t4bO5O7w+rjrcwHLxBCAI6CYdVHlGEwD/lA28gOFSz1eOz+GScdkmh1AWCQl2EOblCo71DS4m3DqfVZuqvTquOlx6Yih5aeHSYXUbwGY0AfA/wcCrgNGL+Mf2S+KRKzqbHEJZLDbK+6sAFZX1TLzjR+rq295WWZnRX34bQBMAm9EEwP/cCgw1OUBJbiT/uF1P/Pu70GBrvr+zFu3imj/qoUCrdS8Ur+SpCYDNaALgX4YDvzc5QFJsCB/c35P4aO+/O1Te5bAwv3vqn+t4+ZON1k1AmSjl3VU6oPKMJgD+IxF4GYPf05BgB2/c2Z2iLD3MGwgcVmYAwKWPLGHZur2WziGQGVgBiAPSpYOqjtMEwH88DmQaHWBqial2oUodZk91IxPvWKDnASySnx5h4hyIHhyyEU0A/MPJwFkmB5h6mp74DzT1DdY/eL//aTc3Pbfc6mkEJIcDuhaI9/ApkQ6oOk4TAN+XCDxjcoBhPRL4w2WauAeaqppGq6cAwKNvrOHf3263ehoBycA5AE0AbEQTAN/3BJBhKnh6Yiiv3tqVEItOhCtruFywt8b6FQBwz+XC+xdRUVlv9VQCjiYA/k0TAN92CvArU8FDQ5y8dVcPMpO90xhG2UdNXRONTfZp0LNxey1TH19q9TQCjiYA/k0TAN8VCzxtcoCHLytmcFfxYiDKB1Tstt+77VembeLtL7dYPY2AYuDGTwGgXcNsQhMA33UbBq/UnH1sBleMzzEVXtncpu21Vk/hiC59ZAlbd9ZZPY2AkZEURmR4kGTIYNylypUNaALgm8qAK00FL82L4tnrupgKr3zA5h32fMhu2VHHtU8us3oaAcPhgE4ZEdJhc6UDqo7RBMA3PYahZbSwECev3tpVOutXPmZThT0TAICXP9nItNkVVk8jYBRmiScAedIBVcdoAuB7TgNGmQr+wCVF9CiKMRVe+YjVm2qsnkKLLnposW2uKfq7wkzxBED3Fm1CEwDfEgE8bCr4iQOTmXqars4pWL7e3iV4V22q5q6/rLR6GgGhUP4goL7I2IQmAL7lNxhaPktPDOWlG8ssbQCj7MPuCQDA/72xhg3b7HlY0Z8U6RaA39IEwHfEA9eaCOxwwJ9vKic1IdREeOWDlq+vtnoKraqtb+KxN9dYPQ2/V6CHAP2WJgC+4xrcSYC4C0/M5Lj+SSZCKx+0YVutz1Tde3fGVqun4PcMFALTa4A2oQmAb0gArjIROCMpjIcuLTYRWvmouct2i8YLcjo4ushMF8mla/ayxaZXFv1FVHiQdFfAGNznmZTFNAHwDdfi7qUt7o9Xl5AQo4W51P9IJwCdkiL4yzldiQ4zc7V0ixYGMi4jSXx7MEU6oGo/TQDsLxGYaiLwaUenMn5YqonQyof9sFw2ASjPiCYvMYJ7TjKz0lRbZ4+mRf4sI1F8G0ATABvQBMD+rsVd919UQkwIT1ylfTnU4b7+cZdovPIMd0OZK4blMLhA/hhLTmq4eEz1SxlJ4gmAvvOwAU0A7C0KuMxE4Ht+XWjil1r5uOXr97JRuA9A130JgNPh4IWzygkPkXvZSU0I1dsrXqBbAP5JEwB7Ow/3AUBRJbmRTBmTJR1W+YGv5u8Uj9k/73/HV7qkRXHr8YVisU8/Jk0slmqergD4J00A7MuBoYY/D1xcTEiwVvxRh/tynmwCkBQVQkHSLw98Xz8qn945nu9qBTkd/HpspsdxVOvSEnUFwB9pAmBfIwDxlnxHdY9n3FD93VOHc7ng42+3i8bslxd3WHXJYKeDP5/dlQgPtwImj8nUvhVeEid7DRBAC4/YgCYA9nWhdECHA73zr5o1d9lu8f3/g5f/D9YtM5rHJ5R2OG6fklgevrxzh/++ah8DCUC0dEDVfpoA2FM8cKp00NOPSWNAmZFyAsoPfDRzm3jMYYXNH2GZMjiLJ07vQpCzfdtRfUpi+eD+nkRHaMtqb4mL1gTAH2kCYE8TEa6U5XQ6uP2CTpIhlZ95/2vZsrphwU4Gd2r52t8Vw3L55PI+lKW3/jwIDXa6rpqQ0zjjyb6ky+9JqxbERmoC4I/Ev6tKxETpgOOGpFCaFyUdVvmJlRur+W5JpWjMgflxbdrnH9E5kXk3DeKf87fw2pxNfLNyJxt2ubcigp0O+ubGMqokiUuG5jiy+oV8TQhHiU5UtUpXAPyTJgD2kwHyL3A3nZ0vHVL5kdc/24zLJRtzROfENn9usNPBhJ5pTOjpvtZXXd9EY5Pr8PLBq8mnS1MD+trlVXoGwD/pFoD9nI7w92Vot3j6dREvJqj8yGufbhaPeXxZcof/bkSI88i9A+rIoZZZHkxLdUBwkIPIcNEzF7ocaQOaANjPOOmAl56i3TdV8xaurBKv/58WE0rfXENJ5xpnBqANALwsRvbQpa4A2IAmAPYSAwyVDJiWEMqEo7Xolmrenz5cLx7zhLJknIcWAJBSTSfqdBXA24SLh+kKgA1oAmAvIwHR481njU4nVLD2uvIvtfVN/O3jjeJxx3Y1XGxqtTMVED61oFoSEiz6OqJ3OG1AD9LYy/HSAc8+NkM6pDrEpoo61m+twel0kJ0SRkq871xRe/vLLWyvrBeNGRUa5NH+f5tUU0g93xFCP7MDqf2Cg0RXAPRdiQ1oAmAvwySDlRdE0atYS6WasHBlFU+8vYb3Zmw7rHpeQUYEpx6VwpWn5ZCfLlrOQdyT76wTjzm2awpRoV54g7fJ6SRHjwJ4i4H+IUFAo3RQ1XaahdlHCsK1/08bpp3SpFXVNHL5o0vofuFMnn1v/RFL567cWM0jr6+h81lfc8sLK6hvsOdK9beLK5mxQL7735m908VjHtEO+uDiZ+8MpoRXAECfP5bTb4B9DMHdAVDM2MGGl2EDzNaddQy/ag5P/XMdTU2tP9TrG1zc/deVjPntXKpq7PdG59E3VovHjA0P5gTTy/8H2+6UX8JQRyR8BgD0HIDlNAGwj4GSwTKSwuhbonf/pezYXc/o6+Z2qFretNkVTLrjxzYlDd6yZnMNb36+RTzumb3TCffmodON9MHFHu8NGLh0BcD/6DfAPnpIBhvVJ/GwNqyqYyqrGjj++rnM8+Cu/Ptfb+WZ9+Sv23XUA39fRUOjfEJywcBM8ZgtchFFDXO9O2hgamfPprbQFQCLaQJgH90lgw3r0XITFtU2e2saGXvjD3y72PM6+be9uIK9NtgKWLe1lhc+3CAet0taFIMKLPi52+jQ3vJeUCd/lkWfPxbTb4A9pACib52G9Wi+Datqm5q6Jk75/Ty+mi9zUG7brnreMLDs3l73vbyS2nr50/OTB2WJx2yTPY4yGl0/WTN44KiT/5mRvX+q2k0TAHsQPf2fHBdC55xIyZABp6nJxXn3LmTa7ArRuB/N3CYar73WbK4x8u4/OiyIKYMtLDm9I2iTdYMHhroG8QTg8Cs0yqs0AbCHQslgPYr07r+nbnxuOa9/Jt8gZ8HP1p5X+93zy428+79wYBbxERaWFdlCOdBg3QT8X22d6BZAPVoDwHKaANhDJ8lg3Tppnw1PPPPuOh56Vf6KHMDPG6otuw0wZ2klrxro+ud0OLjy6FzxuO3SQBINzLN2Ev5NeAVA3/3bgCYA9iCaAHQt0ASgoz6auY0rH1tqLH5tfRMbttcZi9+S659eZiT5OLlbCkUpNthy2u6otnoK/kz4DECNZDDVMZoA2INowf6CjHDJcAFj4coqzrx9gZHrcQdbudH7z6l3vtrCZ3N3GIl9zfA8I3HbbaujO/pgMUb4FoCuANiAJgD2IFo6ze715+1oV1UD42+Zx55q89uSi1dXGR/jYFU1jVz9hJlD8n1yYhlWZJMbJ03EUufQbQADXC6kr7BqomYDmgDYg1jv1P0d6VTbuVxw3r0L+WntXq+MN3+Fdw8C3vWXlazZbOb19rqR+UbidliFXi0zYU91o/TKmK4A2IAmAPYgVsgkNjKIUG+WYvUD972yknf/u9Vr481f0fGKgu21aFUVj76xxkjs8oxozuhls4ZTFc4y9HS5uB27xfMq72TbqkX6pLBe6L4PEQkxIVKhAsK02RXc+oJ3G8p9/9Nur3QIbGxyMeXBRSYKuABw99giggzUh/VIgyuRRteP4C68VFGpCwISdu4Rv2Fp5kCKahcLL+6qfURP7CXE6Le0rXbsrufC+xfS6OVreVU1jcxdtpv+pWabNT3yjzV8s3CXkdj98+IY1y3VSOyO2rK7jhe+Wc8rD20sWL5x74F6B+GhTvp1iWXc0BQmj8kiPlp/R9qrQn4FYLt0QNV++ptgPdEN+4gw7a/RVr9+aDHrtlqzFfnfBTuNJgBL1+zltpdWGIt/38nFtmk21eRy8eD0Vdz78Up21zYA/OILW1PXxFfzd/LV/J3c+/Iq7rywE5efmmPNZH3Uzt3iKwAy9bWVR3QLwHqiCYDdVmTt6s//2sBbX1hXl/+r+eZWQBsaXVxw/0Kqa80s/Y/uksSIzolGYrdXVV0jpz7/Aze9t2z/w79FFZX1XPF/SznnnoXGtkb80c494isAsjW2VYdoAmA90fVnh13eltnYyo3VXGXoWlxbfTqnwtgD6JYXVhhb+nc44J6xRUZit5fLBRe+spD3FrT/AOfLn2zkoj8sNjAr/7RDfgVAEwAb0ATAetaUhQtQLpd76b+yytqy8bv3NvLFPPlV0I+/3c6DhsoYA5zZO51+eXHG4rfH41+s4fXvO94D6C//3sjLn2wUnJH/2rxD/GVKEwAb0ATAeqJra3boN29nf/tkI5/Oscdrzwdfy1493LyjjvPvW2is10BMWDB/OKXESOz22lndwF3/9vyMw43PLtffmTZYt1W8joQ9fgkDnCYA1hM9hVa5VxuiNaeisp7fPLXM6mkc8ME3cq2BG5tcTLpjAZsqzC0o3TGmkKx4exSZeuW7jWyv8jx3Xr+tlve/trZFsy/YsE38sKxeA7QBTQCsV4NgG1Orl7bt7IZnlrF1p312XH7eUC22V3/3X1caq/UP0D0rxvqOfwd5/0e5A5zvzfBeEShftV4+AbDuBK46QBMA67kQzIZ37G7AZU23WVubsWAnL360weppHEZiTu9/vZU7/7JSYDZH5nDAk6eXEmyjKybz1suVU/Z2aWZfZOC67DrpgKr9NAGwB7H9sNr6Jrbtss+7XLu44ZlltkyMXvt0k0cNiBatquKcu83t+wOc1z+ToYXxxuK3V5PLxdY9cj/jG7ZrWfqWVFTWS5+TqAA067IBTQDsQfRAjFXFbezq7S+38PWPZq7FeWpPdSNvfr65Q393y446TrxhLrsMbvukRIfy4CmdjcXvCAcOQoLkViPCtHdGiwwkSPru3yb0J98eOvYEaIaBE7s+q6HRxe+eX271NFr0zHvr2/13auubOPXmeaw21OVvv2cmlpISLdaqQoTDAekxcocRM5PtcbDRrgy8oVgrHVB1jCYA9iB6cXv5umrJcD7thQ83sHSNvRuPzVq0i4+/bXtpdJcLpjy42Piqxjn9Mxnfw2bd/vYZ3EluS2JIV3vUNbCrFevFf380AbAJTQDsQTQBWLS6SjKcz6qrb+Luv3q3019H3fHnts/zt88uM17AJichnMcndDE6hidO6S7XiGjc0BSxWP7op7WaAPgrTQDsQTYBWKXnawBenrbJZ85DfLOwbasA9728iocMVvoD9xL7cxPLiI+wb6+w8T1SKUuP9jjOgLI4hveyR18Du9IEwH9pAmAPone4Fq6ssuWJd29qanLxh9fMPCgzYsNwGui5cPtLLa8CPPf+en7/J/PnGS4/Kpfjy5KNj+OJIKeDR8aXePR9CAl28NiVnW3T1dCulq0TTwD0EKBNaAJgD0sBsXs2u6oaWC6/b+dT3puxjcWGtkKenVTGyBL5d40zF+3i1U+PXNv+9c82c9kjS4wndj2yYmx36r85x5UmcZcHjYken1rCgDLd/29JXX0TqzaJHzQ1V7RCtYsmAPawFxDdrJ65yJ7X3rzlwVdXGYl7ao9UTuqawkVDso3Ev/aPP7Fzzy+v9b31xRbOvvtHGg3e9QeIDQ/mjck9iPCha3G/O7aAZyeWtatIUWiIk+evL+WScWa+h/5kxYZq6Z+7vcAayYCq43znN93//SgZbNaiSslwPmXe8t1G2uFGhQYdOBg3rlsq6bHy18c2VdRx7R//16r49c82M/GOBdQ3mN/TeeGscopTIo2PI+2iIdl8cXU/BhW0fjNgRO9EZj7djyljs7wwM99nYPn/J8BMH2zVbvY95RN4fgROlQr2zUL5VrO+4k8fmin5e93IfLLjwwEICXJw6dBsbvvI8450h3rpXxs4fkASjU0uzr1nIQ2N5h/+Vx2Ty4Se9rzy1xaDC+KZcU1/Zq7aybsLtjJ3bSXrd9XiABJig3cdMzAhbtyQFPqUxFo9VZ+yRP4K7RLpgKrjNAGwj7mSweYt30NFZT2JsSGSYW2vuraJV6Z1vEd8c9Jjw7h+ZP4v/uzyYbk8OH0VVXXy7WSnPLiIvTVNxpf9AQbmx/nMvn9LHA4YVBB/+EpAmGMnJY262d8B85bvlg6pCYCN6BaAfcyUDNbY5OI/3wdex823vtjMjt2et4k91K3HdyI6LOgXf5YUFcKUwWaWknfvbfTKwz8zLow3JvcgNMiPXwrqXBnosnOHzF2mCYA/8+Pfep+zEVglGfCT79peXc5f/Pnf8gVysuPDuXDQkR/0147IJyzYN3+NIkODePeiXge2NfyWi1C0/Wy7VdU0mqgBoAmAjfjmK5f/+kYy2LTZoj2GbG/brnq++EF+1eP6Uc0/5HMTwrnY0I0AkxwO+Ms5XembGyB74o2ObVZPwdfMX7FHehWqCfchQGUTmgDYi2gCsGpTdUD1On9vxlbxA3Mp0aH8enDLD/ibj+9ETJhvHae5e2yxTx/6a7dGl/hatr8zsPy/BtBGJTaiCYC9fCYd8K0vAmfl08S/dfKgrFbvxadEh3LdyDzxsU05t38mN40usHoa3lXjqLN6Cr7mB/kEQPSqs/KcJgD2shD3WQAxb38ZGAnArqoGps+R3fIIcjq4eGjblvevH5lPQVKE6PgmjCpJ4vlflQVe+Vv5c6F+b85P4rVE5kgHVJ7RBMBeXMA0yYA/rtxj4iCP7UyfXUFdvexB7xPLkslPbNtDPTI0iMds3D0P3Ffk3r2op3+f+G9OvcO39mgsVlvfxMKV4qW0NQGwmQB8JbC96dIBX/uP/L14u/lsrvzhv3MHZLbr80/qmsKpPeTa1Eoqz4jmg0t6ERka1Pon+6Nal3zZRj/27eJKaoUTamC2dEDlGU0A7GcawneW//rvjX7fHfDzH2SX/+Mighlb3v4+8Y9P6EJCpL2KL+UnRvDxZX1ItNm8vKrBEWX1FHzJjAXilUTXI7y9qTynCYD9bEK4KNCKDdX8V/4X2ja27Khj0SrZ5crxPdII70BTnOz4cJ6dWCY6F0/kJoTzn6l9yYoP8DfAda4Aue8oY8aP4q8XuvxvQ5oA2NM70gH/8m8z9fHt4PMfdoivcIzr1v53//ud3iuNyc0UDvKm7Hj3w98XDica1+hovVOQAsDlgq9/FG+m9Z10QOU5TQDsSTwBeOPzLeyplq9ZbwezhFsfhwU7GVmS5FGMxyZ0oUuadavO2fHhfH5VXwqTfa+7nxFNRKLlgNtk4Sp3HxFhugJgQ5oA2NMKYL5kwMqqBl7+xD+34OYJFzs6uijhsLr/7RW1r8yuFfvu+YkR+vA/nAMtQtMm/51vZLtQEwAb0gTAvt6UDvjkO+ukQ9qCdMey4Z0TReJ0To3krSnebbTTJS2Kr67ppw//I3G5aqyegi+YIb/8vxrtxWBLmgDY199w1wUQ8+PKPXw5z786BK7dUsO2XbLLlUcVJojFOqY4kWcneedQYHlGNP+Z2tf/m/t0mEMTgFa4XPCf78V7iHwhHVDJ0ATAvlYBM6SD+tsqgHSvg7Bgp3iDnPMHZPLwqSWiMQ81uksSM67pT0ZsgJ/2b1mt1ROwuwU/72HDNvEvkyYANqUJgL39TTrg219uYdUm/9kKXSpc5bB7VoyR9r7Xjsjj0fElRkrwThmcxYeX9CYuQovdtciF9gNoxcffGmkh/rmJoMpzmgDY2xsIv2tpaHTx8D/WSIa01GrhZKZbRrRovINdPTyPp8+Uq8PvcMBtJxTy/KRyQoICrbh/B7j0a9Saj78TTwDWAj9LB1UyNAGwtx3Au9JBX/xog/i+uVXWbJHd1i03mAAAXDwkm1fO695qh8HWRIQ4ef3CHtx+YqHQzAKAPv9bVFXTaOIGgHiHUyVHEwD7e0Y64N6aRp54a610WEus3iSbAJSlm7+7P6lPOl9e3b/D1flyE8L54qp+TOiZJjwzFcg+n7vDRP1/3f+3Md00NCMR6A5kAWlANhCFezl/L1C57+MnYBHQ0sm8z4HFQKnkBJ98Zy3XT8ojOsK3m8Os2SybAOS1sfufp/rmxvLd9QM57U/z+GZl2991HVeaxMvndic5OoDr+neYv3fE8IwF+//ZQBlQAsQAsbhfJ0OBKtyvi5tx9xGYD4hfTwh0mgDISABOAIYCRwHltG/BcS3wJfAf3M2ADn577sK9CvCYyEz32V5ZzxNvreWms/Mlw3pVfYOL7cIVy/ISvXeFLiM2jK+u7seTX63lvk9Wsqmy+eMe+YkR3DGmkHP6ZRo5SBgQXLLXav3Nv+UTgDX8cv8/BxgNjACG7fv/beXC/WbpK+C/wEe4t0iVB/SlpOOCgeOB84CTAMn7V0txJwLTce+hOXFnw6Lr04mxIax8bQixUb6ZB27bVU/KyXIrjMnRIWy9b7hYvPaoa2zi48Xb+eynCpZv3cue2kZiwoMoS49meOdERpUk4tQnv2fKG38iyNHZ6mnY0Y8r99DtfNEeZAD/BP4CjNr3IXkXthZ4f1/8fwMNgrEDhm++8lsrBpgKXIl7ed+Ekn0fV+D+wf4Wd7YrmgBUVNbz2JtrueW8AsmwXrOrSvZ3PjkqVDRee4QGOTmpawonde14EyJ1uCaXi3U7a2lodMHGxsj8zAicTk2kDvX2l0YK9Z2y78OEMGDCvo/NwOP7PmQLg/g5TQDaLhK4HLgBSPbiuMHAYFPBH3l9NVeelkN8tO/9KOzaI5sAxOs9er/Q5HLxwY/beG7GOv778w6Mi6SeAAAgAElEQVR2VR/4OcmOjghiYFkcU8ZmcepRKYR6eBvDX7z95Varp+CJNOAe4GrgQeAp3GetVCv0p79tfoW7Qc+DePfhb9zOPQ08/I/VVk+jQ3bukd3/T7CgcY+StXhTFQP+MItxz83lw4VbD374A7CnupHpcyqYeMcCek6eJd5J0het2FAt3k/DIinAQ8ByYJLFc/EJmgC0LAv3PtMrQLrFczHm0dfXmCj/adzeGtkrS1Ghvn0jItBNX7qdvg/NZPaayjZ9/uLVVQy9YjavfrrJ8Mzs7e0v/K5PTwbwd9w1VDItnoutaQLQvCnAQmCs1RMxraqmkVtfXGH1NCwXpHvDPmvWql2c/Oxc9tY1tuvvNTS6OOfuhXz4zTZDM7M/Q/v/dnAy7tfwC62eiF1pAnC4cOBF4HkgzuK5eM2f/7WRBT8H9vkZLafrm2obmrjwlYVUd7CITWOTiwvuX8SWHYHXKmD9tlpmLfbrbZB44AXgZdznuNRBNAH4pRzcd0wvsHoi3tbY5OLGZ5dbPY12kb4V59Brdj7p6a/WsmiTZ8nr1p11PnsWpr227qzjtU83M/mBRQy85NtAKY90Fu6iRO2pPeD39Njz/xwFvAmkWj0Rq3w0cxtXPb6UMYOSOap7AhFhgZUf1jaIl0FVhrlc8Mx/ZVpc/+nDDdx+QaHf/dxX1zbx1fwdTJ9TwbTvKpi3YnegPPQP1Q+Yjfvq4FcWz8UWNAFwOxF4C/fyf0B7/K21PP7WWsJDnQzpFs+oPomM6ptI7+IY292fDhJesm/v/rGy3srt1SzdUiUSq6KyntlLKzmqe7xIPKs0Nbn4ftlups+uYPqcCmYs2ElNnSa3+6QCHwOnAf+yeC6W0wTA/YPwd9z1p9U+NXVNfDqngk/nVHDTc5AUG8KI3u5kYHTfRAoyvFMzvyXSfQw0AfA9c9e17cR/W81e4psJwMqN1UybXcH02RX85/sK8RLZfiYCd5XCicA7Fs/FUoGeAJwNvIR+HVq1vbKeNz7fzBufbwagMDNiXzKQxPBeCSTGev8OfZxwCePKGq0m6mt+2iJb70W6uqQpFZX1fDZ3B9Nmb2f67ApWbKi2ekq+JhR4HXcp979bPBfLBPKDbyLuOtL+teHnJSs2VLPivfU8+956gpwOeneOOZAQDO4aR5gXKqxJJwBbhQsLKfNWVcg++JpsujleW9/E1z/uYvrsCqbN3s73P+2mscmec/UhwcBfgXrgDYvnYolATQCGAX9GH/4iGptcfLekku+WVHLfy6uICHMypGs8o/omMqpPIr0MnR+QbmK0ZbfvFUMKdKu2yyYAKXH22Qn8eUM10+e4l/U//m47lT6yOuFjgnBfEdyOuxtrQAnEBKAM9/6PZPc+dZDq2ib3C9ccd/vu1ITQA4cJR/VJJCdV5qxlbGQQDodcl/fq+ib21DYSHaYVAX3F6ooa0XjZqda9LKzbWntgSf/TORVsDsC6BBYJxb0CMBRYbPFcvCrQEoAM3H2kE6yeSCDZsqOOv0/fxN+nu0uudsqM+EVCkBDTsfMDTqeD1PhQ0RfKNTuqKUuPFounzHG53N8vSdkp3rsIVFXTyDcLdx04rf/9T5WBej3PDhJxPxsGAQFTGzqQEoAQ4G0gz+qJBLqfN1Tz3Ib1PPf+eoKDHPQvjWVUnyRG90tkQGkcIcFt3y7ISQ0XTQBWbtcEwFds3l3b4ep/zclOMbcC0NDoYuai/+3jf7u40t2mWNlFPu7r4MfgPhfg9wIpAbgfGGj1JNQvNTS6+PrHXXz94y7u/MvPRIYHMbg87sDqQO/OsS1W/MtJDWf2UrmrYKu2yy4pK3NWCS//hwQ7SEuQPQNw8D7+tNnb2SncwlqJGwzcDfzW6ol4Q6AkACcD13h70LDQEPqXFlBWkEVKXAwOp4MtOypZ+PN65ixdRXWt7vEdam9N4y/OD2QmhzGqj7v2wKi+SaQn/vIFOkd4z3b5Nm0j7itWC98AyEkN9/iw6qaKOqbP3n7gob/eB7tseltEaDA9CjIoykgkIzGGhsYmduypZuGaLfy4ejPVdV5Pmq4HvgQ+9PbA3hYICUAe7rv+Xitj1zknnfHH9GXs4J7ERB55T7G+oZF5y9cwc+EKZi5czsKVG2hq0mpdh9qwrZa/fryRv368EYCuBdGM7udeHTi6Z4LYgcL9Fm0M7IZIvkT6BkBhZvuLW1XVNPLlvJ0HDu/9uHKP7uO3wul0UJqdQr/iLPoWZdEtP42QoCNfyKquq2f6Dz/z1jcL+Wn9dm9N0YH7ingvYK23BrWCvWq7ynPizuSGeGOwpLhorj3zeMYM7tHuxjKVVdV8t3glMxcuZ+bCFazZ7LUfdp8VGuIkIzGU1ZvlloIz48JYf/fRYvGUOZNfWciLM9eLxbt0XDZPXdulxc9pbHIxe0mlu67+7Aq+WbiLOuFzCP4oJznO/cAvzqJPYQYxEe1buXO5YPq8FTzzr+/YuGO3oVke5kvc5wH8NqXz9xWAS/HCw9/hcHDGiP5cOWF0s+/4WxMbFcHIvmWM7FsGwIZtO/atDqxg1qIV7NytS9OHqqtvEn34A2zYVcuOvfUkRHq/sqFqn3nrZR8ERdlH7ha7bN3eA0v6//m+Qvfx2yA+Kpy+RZn0Lc6iX3EWGQkxHsVzOGB0z0KGluXxxAczeXfWYm+stAwDLgKeNT6SRfx5BSAbWAjEmhwkPDSE2yefygkDuxsbo8nlYunqjQe2C+b+tJraen0RMuWzqX05pjjR6mmoFjQ0uYj5zafUCL77fvfeHpw8JIVtu+r5dN85lOmzK1i1ScvstiY0OIgeBen02/fAL85MwmmwvfZXi1Zzx6ufsbfW+GH9Xbhrx2wwPZAV/DkBeBf34T9jMpLj+b+pZ9ElL8PkMIepratn7rI1zPxxOTMXrWDp6o22LWHqix4Y15kbRuVbPQ3VgkWb9lB+z9eiMSeNTGfp2ip+WL6HJi2z2yKnw0FxZtKBB373/DTCQry7oLxiUwU3vPSJN7YE3gHGmx7ECv6aAEzAcG3n/IxkXrhpCslx1t8Z37l7L7MWrTiwZbBh2w6rp+TTJvRM443JPayehmrBa3M2MenP862eRkDJSIg5sI/ftyiT+Cjru6dv372XK5/9kFVbdpoe6jTcdWT8ij8mAOHAUiDX1AC5aUm8cNNkUhOM7i502LqtFe6zA/s+dlXpEmZ75CaEs/rOYVZPQ7XgpveWcf+0lVZPw69FhIbQNS/1wGn9LtnJVk/piHbsqWbqcx+xYlOFyWHWAZ0Bv3ox9ccE4AbgAVPBs1MSeeF3k0lPjDM1hKimpiYWrtxw4HbBvOVrqG/QvvetKUqJZFRJEqO7JDK8OFEPBdrMmGe+56OF26yehl8JCXLSNS/twLJ+aXaKkSZeJlTsqeaiP77Lhgqj2wG/AR42OYC3+cZ3t+0SgeUYqvUfExnO32+/lNy0JBPhvaK6to45S1e5zw8sXMHy9Vtw6fmBFgU5HfTJiWV0lyRGlSQyuFM8oc3cW1bekXPLl6zbqVUbPeFwQKe0xAMP/J6dMogI9d2LYau37OTip96jcq+x4ksVQCFgfL/BW/wtAfgDcJ2JwE6HgyeuPYeh3TubCG+Zbbv2MGvf6sDMhSvYskOurK6/igoNYlhRAqNK3AlBt8yYFssVK1nbq+pJvvEzq6fhk1LiouhXlLVvLz+TpJgjX330VXN/3shVz39EQ6Ox2gwPADeaCu5t/vSylQcswX0GQNzU00czeaz/F4j5ef0WZu47UDh78UqqarSUaWvSYkLdyUCXJEaXJJEVr52mTVi/s5bpS7fzzvwtvDt/i9XT8QmRYSH0LsygX5H78F5Bmv83Qv37F/P544ezTIWvxn0WYJ2pAbzJnxKAp3AX/hE3sm8ZD18xqd3V/XxdY2MT81esPVB/YMHP62g0l1n7jdL0qH3nB5I4pjiBmDDfXVa10u7aBj5ftoPpS7Yzbel2Fm+qsnpKthfkdFKWk0L/zu4HftfcVIKcgbVd5XLBjX/5hK8WrTY1xBPAVFPBvclfnmjJwGpAfD0rISaKd+6bSkJMlHRon1NVXct3S1YeOD+wcuNWq6dke8FOBwPy4/adH0hiQH4cwT5ysMrbGppczFq1i+lLtzN96XZmrtxFg97Hb1Vearx7Wb9zFr07ZRAVLtvR0BdV7q3lrEfeZHulkQqqVbhvmRm9duAN/vJKdDtwm4nAD10+kWP7dzUR2udt37WHOUtXMWvhCr6av5TNFXp+oDVRoUEMKohnVEkio7ok0Tu75XbH/u7nbdUHHvjTlmxnZ7VWuGxNfFQ4vQsz6VecxYDO2aQnWF+LxI5mLF7D9S99bCr8LbjbBvs0f3jpicD97j9FOvAxvbrw2NVnS4f1WwfXH5ixYBlV1Xp+oDVpMaEHDhSeWJ5Mdrz1xVVM2rqnzr2sv3Q7Hy/eLt7S1x+FhQTTPT/twH38kqzkgE4a2+P2Vz/jk7nLTYTeAuTj43UB/OHH6BLgaROBH7zsTEb0KSMkOMhEeL9W19DAvGVrDtwuWLRK2x23xuGAbpkxjN53u2BYUQKRob79s7e3rpEvl+9g+tIKpi3dzoINu7VdbiucTgclWcn033c9r1temr4GddCOPdWc+eDr7KmpMxH+IuB5E4G9xR8SgMVAyz08PRARFkqfknwGlhcyoLyQ4uy0gDsMKGFXVTXfLf7ZnRD8uJy1W3x++8y4sGAngwriD9Qf6JMTS5DNzw80NrmYs7aS6UsrmL5kO1+v3EltgyZ+rclKiqVfcRb9i7PoXZhJbKTeJJHy6pcLeOKDmSZCLwR8en/Y3q8mrRsMzPDmgAkxUfQrLWBAeSFDuhaTkRzvzeH9xradu/n+p9XMWriCz39YwradXuvx7bOiw4IYmP+/8wN9cuxRivrgffxPl1ZQsdd4hzafFxcZTp+izANFeDITPWuXq5rX0NjE2Y+8yZqtu0yEHwB8ayKwN/h6AvAc8GsrJ9ApM4UB5YUMKi+ib2kBUeGaubdXk8vFktUbD9wu+GGZtjtui4L/b++8o+Oqrr79aNSb1Wx1yeqyJctdLnQwHUIIoSaEJIQ0khdS3iSkkeTlg5BOSSEJgUASWiCYFoNtMGBsy5IsNxVLmlEf9Wr1kTTz/XGlkVw1ks7VvXd0nrXuWlhlz2Yk3bPvOXv/fhH+znHDSzLCiQicH7nijv4R3qvoZMcxZdGv7jD0Mei84OPlycqkaHLTY8lNjycjTl27XMmJfFBcw/ef3aFG6CdQafx8PjDyb6A/ikezbh7BTSYTyxKj2ZSdxsbsVNZlJsmzu1kwYXe8f1x/4Ji0O3aJrOggPpazhEszwzkvJQw/bzHz36N2B4etvew81sEbxW3sq+6RPw8XiA0Pdj7hb8pMIMBX+klohcMBX3h8K8cahI8u9wAxGLQZ0MgFwKeBf2qdxNlYFOjPlRtzuPHiDWQmRmudjmHp6u1XioFSC3nFFpo63EaKWzX8vU2cnxrGpeP6A6viglx+4rQ7HBy29inb+sc62G3pYnBEnuNPR1RoEBsy4pyqe3qwy5VMouIuwG3AC2oEVhsjFwA7gEu1TsIVTCYTt27ZyD03XYa/rxTpmCu1ze1OdcL80mr6BqUpzHQsCfJhS2a488ggMezExamua8i5pf9ueSdtfap0TbsVQX4+rE2NVVT30uJIXGIMh9CFisMBn33kFcxNwhuQ3wGuFB10PjBqAbAEaAIMtb++On0pf/j2Zwjyl08GorDb7RRXW539A4fN9YyOSbvj6ciIVOyOAXaWd1DRqopimlvhNWGXmxbLhox4Q9nlShTeKqzgwZc+EB12DIgCOkQHVhuj/vZ+Fvi71knMhvXLkvnrfXfKBiCVGBiycaC82qk/YG5o0ToliYFJiQ5TzvHT4liTGoO/jzzHNzK20TGuf/A5uvuF7xreAfxDdFC1Meoq9DLwSa2TmC3fuPkKPn/N+VqnsSBo7+51FgP7Ssxy3FByViIWBTgFeHLT4ohY5F52uRL489sFPPPeIdFhXwZuEh1UbYxYAPgCbYBhB2cXBfrzzm+/Q4A07Zh3LNZWpRgoNnOgvJoBdRTCJAbB38ebNakxzkV/IdjlLnSau/q48eEXRE+y9KIcTRtK/9yIBcCVwDatk5grP/7cx7nx4lyt01jQjI6NccRcz75x/4Liaml37O54mkwsT1jiVN3LTozEy3Nh2eVK4Ot/fpMiS5PosFeiNAQaBiMalX9M6wREsL/UIgsAjfHy9GRtZhJrM5P42g1b6BscIr+0mv2lSkNhTVO71ilKBJC4JMQ5j782NZYgufO24LlybboaBcDHMFgBYMQdAFW1/+eLhMhw3vzVt7ROQ3IWmjq6x8WILOwvtdB5vF/rlCQuEBbkz/opMrtRodIuV3Ii/UM2rn3gX6IVR8sx2NpktAIgAuX832h5n0JESBDvPXaf1mlIXMThcFBR3+zsHzhYUcuQTWre6wE/by9WJkc7z/HTYiKkXa5kWu57ZgcfltSIDOkAolGsgg2B0Y4ANuMGiz8gHQUNhoeHB5mJMWQmxvDZq87DNjrKoYo69pWY2V9ioaymUcrjzhMmDw8y4hY7z/FzkqLwkZLbkhlyXlai6ALAAzgXeFVkUDUxWgFwrtYJiCIperHWKUjmgI+XFxuyUtiQlQI3KfoDRyz1TnfDKqthHgIMwVRd/XVpsYQESDEtydw4d3kiJg8P0YW7LABUZLPWCYgiJyVe6xQkAgnw82FTdiqbslO59+bLaWjrJK9YkSvefbhCHhfMkEUBvqxLnTzHj4vQh/WxxH0IC/JnecISSuqEFuuGEngxUgHgDbhN2/zV56zSOgWJSvT0D1JW00RZTSNlNU1y8XcBby9PcpZGOc10MuMWS5ldierkpseJLgDWAH6AIQxKjFQArAaEynJ99ROX0NXbP+8jXxeuWUZGgnQHdBcm+gEmDIpkP8D0eHhAanSEco6fEceq5Gj8vI10O5K4AzlLo0SH9AaWAwdFB1YDI/3FrRYZzMPDg09ffg7B42eJ8zXyFeTvx//edpUqsSXzw9SJgLwSC0XlNfIp3wWiQgNZnxbHhox41qfFEhbkr3VKkgXOiqWRavQBrEAWAMJJFxksMSrCufgDxESEcv0F67j+gnWqjXz5eHnxi7tvJjEqYs6xJPNLc2eP03FQagK4RqCfD2tTY8a79eOlXa5EdwT7+7I0MpTqli6RYVeIDKYmRioAMkQGW5Ecd8bPnTzyNTwyyuHKuY18hQUH8quv3ULu8pS5pi6ZB/oGhygoqyavRKoCuoqXp4nsxEhn415WwhI8TVJmV6JvcpKiZAFgAITuAGTPoAvf1/vEka/uvgHyS6ucRwYNbZ1n/l4fb647bw1fv+FSQoOls5hemfAFyCu1kFcsfQFcJTkqbIrMrrTLlRiH9uMDFFRaqRG7+IOBCgCjtNmagH6U7kohPPOjL7E6PVFIrPrWTgrLqimtsdLe04enyYMloYtYmZbAOTnphATKs049MuEMmFdipvCYdAZ0hYjgANanx7IhPZ7c9DgWS7tciUEYtI1QZGmioNJKQaVV9FP/VByAPwZwBjRKAZAEVIsKZvLwYN9f7sdPPq0sKNq7e52Ne3klZtq6e7VOSff4+3ixOmXyHD8lWtrlSozBmN1OaX2bc8EvqWtldP529VIQuGaphVGOAISe/0eEBMnFfwEwZBvhUGXd+FGNmbLaJhxyPO+smEweZMRGsD5N2dZfnRyNt5TZlRiExs5e54JfUGmld1Czh/AEZAEgjDN37M2CmIhQkeEkOsFut3Osrpm88WbNovJabKNC3b7ckqkyu7npcQT7+2qdkkTiEt39QxRZGimotLK/ooHmrj6tU5rAEFKvRikAhK7YUeFSVtRdqG1ud27rF5RV0TtgCAEuTQkN9Bu3y1XO8aPDpF2uxDi09vSz7UAl7x6uwtLcgU439WQBIBChB4/R4XIe2ah09fYrW/qlyqLf1N6tdUq6x9fbi1VJUawfP8dPiw3HJN0oJQZjaGSUv20/wAu7ixmz635CJ0brBFxhQRYAUfIIwDAM20Yoqqh1Nu5V1DVLmd1pUOxyJ8/xVyVHS7tciaHp6B3gm09uw9x05pFrnRGsdQKuYJQCQOwRQJg8AtArdoeDY7VNigBPsYVDlbUMj8hz/OmICQsmd9xIZ11aLKGB0i5X4h70D9n42hNvUtfWo3UqM8EQ52pGKQCE7gD4+/qIDCeZI9a2Luc5fn6phe6+Aa1T0j3B/r6sS40hN0M5x4+XdrkSN+U3W/cabfEHWQAIRWgBIMeatOV4/yD5ZVWKrn6JhbqWDq1T0j3eniZykqKcZjrLpF2uZAFQVt/G20WVWqcxG+QRgECECorLAmB+sY2OcsRcz75xM53Smkbs+m/i0RTFLjec3PQ41qfFsTolBn8fo/y5SiRieH73Ua1TmC2BWifgCka5owg9BJYFgPo0tHU6n/D3HK2kXztBDsMQHuTvVN3bvCyByBBD3EMkElWwOxzklddrncZsMUSnslEKAKFm696esgAQTUvncadz3v5SCx09uhHk0C0Bvt7jdrnKOX5SpJxOkUgmqG3tpm/QsP4chuhcXpAFgIecgZ4z/YPDFByrdnbrVze1aZ2S7vE0mchOXDKuuBdPdqK0y5VIzsRxY+8aCl2z1MIoBYDQaqqnX3aZz5SxMTtHLPXObv2jVfXSLtcFkiJDp9jlxhLgKz0oJBJXMPj9RRYAAhH6ZvbIMTOXqGpsc27rF5ZV0z9k6Ip8XggP8lca99Lj2JAexxJ5ji+RzIo4Y4+2ygJAIEIF3nv6BkWGcxvae/rYX2ohb7xbv7XruNYp6Z4Ju9wJ1b3U6HDkCZNEMnciQ4IICfCjx5j+Hoa4eRqlAGgSGUwKzShIu9yZI+1yJZL5wcMDLspJ4rX9x7ROZTY0a52AKxilAGgUGayrt19kOMNgt9spqW50busfNtcxMjqmdVq6Jz5ikXKOnxHPutQYaZc7D/QP2SiyNFFotlLZ1Eldazdjdgchgb5kxC0mNy2Oy9ak4udtlFuYZDbceG42bxSUY7cb7sHEEF3RRvnrEVoAVDe1iwyna+paOpxGOgVl1Rzvl8cf0xEa6Me6tFhy0+LIzYgjJswQol6GZnTMTkldKwWVVgoqrZTWt53W8a1nYIi6th52HrLwp2353HnZWj65OVseu7gpqdHh3LApi5f3lqj2GiYPDzxNHoyIbTpsFRlMLYxSAFhFBqusN8TuzKzo7h0gv8zCvmKlW7+xvUvrlHSPj5cnq5Kjnap7GXER0i53Hqhu6XIu+EWWJgZtM+ub6u4f4rdb97LvWD0PfuZSuRvgpvzPtRs5Zm2nuLZFWMzY8GBno+66tFi+8NhWGjt7hcVHFgBCEboD0NbdS3ffAKFBASLDasLwyCgHK2rZX2JhX4mZ8tomaZc7DSYPD9Jiw9mQHs/69DhWJUXhKxcP1enoHaCwspH8ygYKKq20HxfTi7PvWD33PbODX33+Crw9pa6Cu+Ht5cnvvnAlP/jHTgoqZ/csGOzvq+zqjS/6UycM+odsNHUJXfwBakUHVAOj3PWsKNKKwh7LzA0trF+WLCrcvGF3OCivbXIq7hVV1DI8wyenhUh0WJBTgGe9tMudF4ZGRjla00JBpZVCs5Vyaztq1ab5FQ088+5B7rp8nTovINGUQD8ffveFq3hpTzFP7SyaViHQ28uTnKWRTpXNs5lnmZs7Rf9e2gFDdC4apQDoB2oAYSt2WU2jYQqApvZu9k2R2e3ulVMM0xHk78O61FinCE/C4hCtU3J77HYHZQ1tzm394toW0eeqZ+Ufuw5x1bp0o8+PS86AyeTBrefn8PGNy9hxyEJ+hRVLcyfdfUP4eHsSGx5MVkIkuemxrEp23TzrcLXwI+FawBA3aaMUAAAHEFgA7D5cwWeuPFdUOKEMDNk4Yql3jueV1gg9AXFLPE0m0mPDneN5a1Ji8JLbwapjtyuGLW8XVZJX0aCpdvvImJ3X9h/j7qs3aJaDRH38fby5bsMyrtuwTEi8gxahU+YAZaIDqoXRCoAbRQUrqqihf3CYQB2MdI2MjnHYXOc8xy+plna5rpASHcaG8S0+aZc7/xypaeEXr+ymukU/jaY7DllkASBxmaGRUY7UCN8BkAWAChwQGWxkdIw9Ryu5fMMKkWFdZqpd7t6jZvoGDal2Na9MtcvdlJlAVKiU2dWKV/aW8rvX9uqu4bSlu4/ewWGp1SBxiX3H6hm0CTfuKxQdUC2MVAAUiQ74/sFj81YAtHX3sm9cYnd/iZl2aZc7Lf4+E3a5yrZ+clSY1ilJgK15Zfxm6x6t0zgjjZ29ZMbJAkAyPbuOVqsRdrcaQdXASAVAB1CNwD6AHfnFfPvWK4kICRIV0kn/0DAHjtUoi36phSqrIcZCNcXTZCIrYYlzwc9OjJTn+DqjuqWLR9/I0zqNsyItliWu0N0/xAfFNaLDWhCsW6MmRioAAHYhsACwjY7ywrv7+doNW+Ycy263c6yumbwSM/tLLBwor5Eyuy4QGx7sXPBz0+Pk1q3O+cN/8xkeEb5lKpSQAPk7JJme1/OPqXGPNszTPxivAHgHuFNkwJfe289d116Ar8/Mfdqrm9qc5/j5ZVX0D0q73OkIC/JnfVosGzLiWZ8WJ8/xDURNazf7jtVpncZZiQoNkhbMkmkZtI3y749UkRf+UI2gamG0AmAnMIrAvLt7B3jh3f189qrzpv3ajgm73PFFv7mzR1QabouftxerkqPZkDFhlxshddsNSl55vWpCPqI4d3mi1ilIDMCLu4/SIV5PZRR4U3RQNTFaAdAJvA9cKjLon7fu4qpNK4kMO1FAZMg2woHyGmfjXkV9i7TLnQaTyYPMcbe2DRlx5CyNkna5bkJxrb77WEweHtx8njZTPRLj0NjZyz92HVYj9HsYxAVwAqMVAAD/RnAB0D80zEnzoeUAACAASURBVI/+8gp//N87KK9rdnbrH66swzaq7/NOPRA3YZebHse61FgWyTNYt+T4gL6PuG48N5vEJVLxUXJm7HYHD/37wxkbT7nIi2oEVRMjbsYuBhoA4auMv68Pg8PaKZkZhZAAP6exRm56HLHh0i53IfC1J97kYJVw1TQhLE9Ywp+++jF85G6T5Cz87vV9/PujYjVC24BoQD+qWC5gxB2AdmArcIvowHLxPz0+Xp7kJEWxYXzBz4hbLO1yFyBxEYt0WQCsTIri15+/Ui7+kjPicMCTOw6otfiDcvZvqMUfjFkAAPwFFQoAiYKHB6TFRDitM1cmR0uvdQnpMeFap3ACPl6efG7LGj590SppAyw5I8cHhvnN1j3sOGRR82UeUTO4Whj1Mc4DOAzkaJ2IuxAVGuTc0l+fFktYkL/WKUl0RmtPPzc89Lym8r8TTaaXrU7lyrXp0tZZckZauvvZdqCClz4qprtfVan1AsCQBhRGfaxzAL8E/qF1IkbF38eLFUujxhf8ODLjFsvxPMlZiQwJ5OKVybx7uGpeX3eiyXRDehxrZZOp5AwMjYxytKaFgkorhWYr5db2+Rpb/e28vIoKGLUACAGGEKwJ4M54eZrITox0nuMvT1giJVMlM+arV21g37F6BoZV6aIGZJOpxDXsdgdlDW0UVFopqLRSXNvCyNi8u6iOjl8hgOGEYYzyzOcJrEYZ/7sUuADw0TQjAzBVZndDRjxBfvItk8ydD0tq+MGzO4UdBfh4ebIyKZrc9FjZZCo5K42dvc4Fv6DSSq9+1FfHgEMoYnU7USSBdZPcmdDzX1kKkwv+5SgVluQshAX5s0ba5UrmgfeLa/jpc+9hm4WW+kST6cRu1KrkaHxlk6nkNHT3D1FkaaSg0kp+hZWmrl6tU3KVAWAvkwVBEcrRta7QUwEQCVyIsuBfBSRom47+8fP2IidJnuNLtKGurYdfv7qHQvP05mcTTaYb0uNYnx4nm/ckp2V4ZJQjU87xK6wdmjadCqQV+AClGNgG1GubjoKWy0UAcA6TT/lrNc5H95hMHmTERrA+TXlyWp0cLWV2JZpzrKGddw9bOFLTQkt3H0Mjo4QH+ZMaE87qZGVHSir0Sc5EY2cvH5XWsqesjsPVzbPaVTIgVUzuDmxHo/6B+VxwTz7HPx8V1PzcDWmXK5FI3ImO4wMcrmmmoNLKnrI62o8LN+UxGif3D3yIoiyoOmoXAIHAx8evK5Dn+NMSGujH+vQ4p5lOVGiQ1ilJJBLJrOkdHOaApYmCigYKKq00dBzXOiW90w28A7wGvA70q/VCahUAGcA3gU8Bi6b52gWN77hdbu74op8eK+1yJRKJcRkZs3O0poVCs5X8igaOWdux293iHF8LeoDnULQGzKKDi15qkoAHUWR65eH0aTB5eJARF0Fuejy56bGsTIqWGuYSicSwOBxgae50Nu4dqmpi0CZdVAUzBjwP/AioFRVUVAHgDfwA+B4gNWRPYuo5/rq0WEICZAe0RCIxLm09/eRXWikcn8fv7BvUOqWFwiDwMPBzYM5qXCIKgBXAs8AaAbHcgkUBvqxNjXXOOcdFyFMQiURiXAaGR5zz+AWVVmpau7VOaaFzELgdKJ1LkLkWALcAf0Np9luweJpMpMeGO8fz1qTE4CXdySQSiUGx2x1UNHZQaFYW/ENVTVrI7ErOziDwFZQH8FkxlwLgPuChOcYwJB4ekBodMb6tH8vqlBhplyuRSAxNTWu3co5faeWApVFVvweJMBzAT4AHZvPNs128fwz83yy/15BEhgRO2uWmxxEu7XIlEomB6ewbdC74BZVWWntUmzaTqM/jwL3MUG54NgXAT1EqDrdG2uVKJBJ3QkO7XMn88Dhwz0y+YaZL2n0o3Yduh6fJxIrESNanKwI8WdIuVyKRGBi73cExa/t4414DR2tbGVkYMrsLme+jTAm4xEwKgCuAt3Cj+f7kqLBx1b1Y1qbGEuDrrXVKEolEMmsaOo47O/UPmBv1ZJerSxYF+nO8361GGMeAq1H8BabF1QIgGSgEwmeZlG5IjQ7ntgtzyE2LY0nIgh5ekEgkBqe7f4gD5kYKzMpZfmOnYexyNSPQ35cLVmXy8fPXsjE7lfbuXvJKLDy77SMqG1q0Tk8EHcB6oGa6L3Sldd0feAU3WPwB6tt7iAoJkou/RCIxHLbRMY7UNJNf4XZ2uarh4eFBRkI0m1eksSk7lfXLkk9wUY0MW0RU+CJqmzs0zFIoEShr9rnA0Nm+0JUdgJ+jnP27DX7eXjzyxatZmRSldSoSiURyVho7e53b+nnl9XI8zwUWhwSxNjOJjdmpXLAqk8iwM4uxHbU08OVfPk3/kNsdlzyIIh18RqYrANKBo7ihbW+Qvw9/+PK1pMdGaJ2KRCKROOnoHeBwtbTLnQn+vj6sSktgY3Yqm7LTyEqKden7Khta+MJDT9LjXn0AE9iAVcCxM33BdAXATmCLyIz0xJKQQJ6653oiggO0TkUikSxQ+gZtHBiX2S00W6lr69E6Jd3j5enJqrQENmWnsjE7lZyUeEwznNpq6+7l1p/8kfZut+6b2AlcdqZPnq0AuA3FhtCtWbE0ij98+ZoTzoQkEolELcbsdiobO50yuwermhiVMrvTEr8k3Lngn5OTRpD/7E3VRsfG+OIvnqaovEZcgvrlFuCl033iTAWAF1CJYu/r9ly/aTnfveE8rdOQSCRuSlVzF/mVDU5dfWmXOz2LQ4PZlJ3K5myleW9xaLCw2D97aiv/+aBQWDydUw1kAKf80p1pCuAWFsjiD7A1r4zMuMV8fOMyrVMxDCOjYxytbaHQ3EhFYwcN7T2MjtkJ8vchM24xuWlxXJiTjLc0RZIsQDr7BjlU1eRs3GvpljK70+Hn483q9ETnOf7ypTF4qCC/+uK7+xfS4g/KGP+NwAsnf+J0764HUASsVjOjtVnpXHleLsnx0URHhDNks1Hb1MrB0kp27iuipaNLzZc/BW8vT56653pSo91i2lE4DgdYmjvGu5EbOVTVxNDI2Z9iIkMCuevydVybmzlPWUok2jBoG6HI0uTs1q9umd/7lxHx9DSxIjl+fMFPZVVaAl6e6h7Fltc1c/vPnsA2Or87MFERYVy6eS1rstJJio3C19ub5o5Oqhua2bY7n4NlZrVTKALWnfzB0xUAVwBvq5VFWmIcD9zzOTbknPlp2+5w8H7+If7y0lsUFJerlcqpucVE8Ld7rpdPreO09vQ7b2iFlVY6+2bXKXtxTjI/ue1ifGSfhcRNGLPbKa1vc/59lNS1ynN8F1gavZjNK1LZmJXGhqzkOZ3jzxTb6Cif+smf5lXsZ0POMr508zVcmLsK01l2M/YfOcb9jz+Nua5RzXQuB3ZM/cDpMtoBXKrGq192zjp+d9/d+Pv6uPw9O/cV8eCf/0VdU6saKZ3C7Ret4u6rN8zLa+mN/iEbRVVNFFRYKTBbqW3tFhb7vKxEHvrMZXjJ4kpiUOraepzn+EWWJvqHbFqnpHvCFwWyMSvV2bwXExGqWS6/feFtntn20by81tLYKH745U+zZdMal79nYGiYb/z8D7ybd1CttN4Brpz6gZMLgDigDhB+l77i3PX8/sf3nLUKOhMDQ8P8/C/P8dxb74lO6xRMJg/+8JVrWZUUrfpraY3d7qCiscPZjXyoqokRFZ9ivnTFej63xfU/CIlES7r6Bik0N5Jf0UCh2SrP8V3A18ebtRlLnap7GQnRqpzjz5QD5TXc9fO/zYtq4u0fu5T7vnjbjB50Jxiz27n7/x5l574iFTLDDsQDTRMfOPkn8w3gd6JfNSttKS/99v5ZvSFT+fc7H/Djx/7OiMrnNwmLQ/jntz7plqOB1S1div+3WXmKmU9VMR8vT57735uIDRfXzSuRiGJoZNQpwJNfYcXS3CHtcqfB5OHB8qRYNo53669KT8TX2xWF+fljeGSUT/7gMepbO1V9HW8vLx68904+efn5c4ozMDTMLd96gFJLraDMTuBe4LGJf5xcAOwDNol8NR9vL177/QNkJMULiXegpIIv/+wRunrUFW/48pW5fPYSVfsg5wWHA47UNrPtQCX7jtXT1qPtU8wdF6/mK1flapqDRAJKr1GFdXIH7HB1MzZplzstE+N5F65exoasFEKD9C2k9uetu/jjq++q+hohQYH88f572LQqS0g8c10j133tRwzbhD+g7UXxCABOLACWoswLCt2v+eYdn+Trn75eZEiqGpr43Pd/ibW1XWjcqfh5e/H8d24iKjRItddQG3NTBw+/vJvS+jatU3ESFRrEqz+4Tes0JAuUxs5e8iuUc/wDlkaOD7id/rtwQgL92ZCVwqbsNDZmp5IQaZxJqcb2Lq7//mNqLKRO4qMW8/RD3yUlPkZo3Eee/Q+P/+tVoTEBB8qIfx2cuNh/G/i1yFdaHBbCrr//hgA/8VYCtY0t3Prt/0drp7hGtZO5KCeZhz6jSj+k6rxTZOb/vfQBY3b9dSa//dM7WBTgdvYSEh1yfGCYA5ZG56Iv7XKnx8fLi1XpiWxeMTmPP1OZXb3wzcee470DparFj4oI44Xf/IjEmEjhsfsHh7j4c9+mo/u46ND/C/wGThQCEq75/6WbrlFl8Qely/KZn3+P277zIN3H+1R5jfePVlNotrI+LU6V+Gqx/aCZB158X7c2oY2dx1kUsETrNCRuyMjoGEdqWpRz/EorFdZ23f4d6AXFLjeKjdlpbM5OZW1mEn4+3lqnNWf2FZtVXfzDQoJ59uHvqbL4AwT6+/HFm67h4b8+Lzr0Fk4qADyZci4gggA/X2664kKRIU8hIymev/7sW3zqOw+p1hj4xLYC/vr1OHTQyOoSjZ29/OrVPbq+6Zk8jPk0IdEfDody1DUxj3+4unlagSoJRIeHOAV4NmWnEb4oUOuUhOJwOHj85R3Tf+Es8fH24q8/+xZpieo+HN585YU8+uwrDA4LHTk9B2XNH5soAFYDZzZMngXXXXwOi+ahOWRtVjo//dod/PDRp1SJX1rfxkdltZyftVSV+KL5w1v7dT+fHBwwt2kQycKmpbtvUqDK3EjXLAWqFhKB/r5sWJ7iXPSTY9x7B25X0TFKqq2qxf/Z1z/HmuVpqsWfICQokI9dvJmX3v5AaFhgJXBwogAQ/qj+sYuFDhOclVuvvphicw3Pq6QT8Je3Czl3eeKsNAzmk8bOXj4oqdE6jbMSERxATJgcA5S4zqBtlOLaFqddbrm1XY7nTYPJZGJZYrSzcW9dZpJbjjWfDofDwRNb1ev6v/1jl3Lzlerubk/l2ouEFwAAFzClANgsMnJYSDC5K+ZX//3+r36GotJKyqvrhce2NHfyQXENF+ckC48tkn3H6rHb9X1n3JQpZhxU4r6MjtkpqWslf/wpv6y+TZfNrHolNCiA393zKdZmJmmdiiZszy+mvK5ZldjLkhP44Zc/rUrsM7Fp5TLCQoJFj75vBh6dKACyRUa+cP1KPFU2dTgZH28vfv2dL3PDPT9VpR/g6Z1FXLQiWde9AEdr50/jejZ4eMAt5+donYZEh1S3dDkb9w5amhhUcWzL3enuG+ALDz/F/9x4KXdec4HW6cwrDoeDP7+2S5XY3l5e/OZ7X8VnnoWOPD09uWBdDq+9t1dk2GxQmgC9AaGHGfP99D9BVupS/uf26/nt318WHtvc1MkBi74nAnr6h7RO4axcsz6TtBjjzBBL1KPj+AAF4wI8+ZVWOo4PaJ2SW2G323n0pe309g9x782Xa53OvJFXYsFiVcc35ht33MCy5ARVYk9H7opM0QVAOuDlhbL4C535WK9RAQDwlZuvZduH+ZRV1QmP/dJHxbouANTU8Z8ryVFhfPPjQk+aJAZi0DbCQUuTc9GvapZ2ufPBU299SHpCFFdvXqV1KvPCv7YLXSSdZKUt5Ys3XaNKbFfIzRG+pvoCqV6AGO3CcUIXBZGaIFYRaSZ4enpy/92f4VPfeQiH4E6hvWX1NHQcJz5C6MCEMGLDgymyaJ3FqSRHhfHYF6/G3w1miyWuYbc7KGtoUwR4zI0U17ZIu1yN+PXz27hw9TIC/d1bfKu2uZ09RyqFx/Xw8OAnX70DTw3FkFITYgkJCqSnT6iU+/KJHQBhpCfGae7+tCFnGddetIk3du0TGtfucPDvPSV88zp9Psmm62x73dNk4pbzV3DX5evw05lBiEQ8dW09FJoVI50iSyN9Oh9HXSh09PTxyvsF3HHVeVqnoirP7diniv7JdRdvZv2KDOFxZ4KHhwdpS+M4UFIhMmy6FyDU9zZFw6f/qXz/rtvYufeAaAEF/ltYwVevytXlgnbBimQefSNPcxGgpMhQtqxK5Zr1GUSHGddLQXJ2uvuHnM6S+RVWWrrVUeSUzJ239h126wJgcNjG6x8dFB7X39eH7911q/C4syElPkZ0ARDlBUSJjJgs2BBhtkQtDuNT127hb69sExq3f8jGh8U1XL5GfRGImRIVGsgF2Ut5v7hmXl83PMif3PQ41qfHkZseR2SIe6mKSRSGR0adMruFZisV1g7Ni02Ja1TUtzBkG3ELid/TsbOwhAEVdpxuv+4yoiLChMedDcnxQp/VASK9AKGSUPFRi0WGmxNfvvlann/rPQaGxDp+vV1k1mUBAHD3NRvZX9HAoE09OVQ/by9Wp8SQO77gp0aH63o8UjI7JuxyCyobKKhs5EiNtMs1Kna7HWtbF6lx6ujWa81bew8Ljxng78eXNGz8O5n4aOHqjZHCdwDCQ/TTIBcRuojbr7uUv7z0ltC4+ZUNdBwfIGKR/nyw4yMW8YObLuT+594VppZmMnmwLG7x+IIfT87SyAWjKrbQ6Dg+wOGaZgoqrXxUVifH89wIdxVTauvuZX9plfC4n/34ZYSH6Ee1NHyR8FwivYAIkRHDFunrzPcLN1zF3199B5tAgxC73cH2QxZuu0CfojZbVqUwarfz0EsfzHo0MD5ikfMJf11aLMFu3kG8UOkdHOaAudE5j2/tEG496nZM2OUmRoVTUFZNXUuH1im5RHCAn9YpqMKbew5hF1zc+Pp4c+cNVwmNOVfCxBcji70Aoc4soTorABaHhXDtRZv5z47dQuNuP2jWbQEAcMWaNFKjw/nFK7spqZteGCMkwI/16bHkpiln+bHh+ql8JeIYGR3j6LiufkGllWPWdt3LR2uNh4cH6fFRbFqRxqZxXf2pZ+mN7V3klVjYV2whv8xCd6/+dk0C/X2JDg/ROg1V+O8+8dv/1118jq6e/gHCgoWvrT4TSoDCCPDT35Pi56+/QngBUG5tp7mrT9dd7mkx4fz16x/ncHUzOw5ZOFLTTEt3P0O2EUIC/UiPjWBNSgzr0+LIiIvQvdmRZHY0dvY6F/z9FQ26d4vUAxEhQazLTGJjdirnr8wkKvzMR5uxi8O44cL13HDhegAa2jrJK7Gwv8TCniOV9AvuQZoNF6zK1Hw8Ww2aOrqpqBev+//Z6/WnnujnJ9xF1dsLRQ5YGHpcRLLSlpK7IpOC4nKhcfeV1/OJTcuFxlSDVcnRrEoW3kEq0SmtPf2TdrmVVjqlXe60BPr7krssmU3ZaWxaMTe73Pgl4dx4UTg3XpTLsG2Eoopa9pdYyCu1UF7bpMnkxERx4m58cFDsPR1g48plLE9JFB53rqggROQtfAfAQ0O1pLNxy1UXCS8APiqtNUQBIHFv+odsFFU1UTh+jl/b2q11SrrH09NETkoCm1eksik7lZyUBDw9xd+7fH282bwijc0rlKmh7t4B9pdalCODEjNN7er/rM5bmcGGrBTVX0cLPjx0THjMm6+8SHhMEZjEr61eXoDQdm497gAAXHHueu5//O9CRwIPmBsZtI3i76M/USCJ+zJmt1Nc16qI8FRaKamTdrmukBK7RHnCz05l/fJkAjU4rgwNDuCKjTlcsVHpH6pr6RjvHzBTUFZF74BYQ6/FocH89AufEBpTLwwM2SgoqxYaM8Dfj8vP1eduiQprq5cXMAQIU24Zto3gq0OxiQB/Py47Z51QRyXb6BiFlVbOz14qLKZEcjqqW7qcqntFliYGhqVd7nQsDgliY1aqs3kvMkw/I8oTJEZFkBgVwc2XbMBut1NS3UheiZm8EguHzXWMzEF3YXFoMH/89mdZEqqvZjZR5JVYsAm2fr/inHW67GMDGB4R/jc/5AX0I7AA6B8cZFGQ/ubjAa7fcq5oS0WKqhplASARTkfvAIWVynhegdlKW49QExC3xN/Xh3WZSWzKTmVjdirp8VGGanwzmUzkpMaTkxrPF6+7iMFhGwfKa8grVgoCs7XVZYOzzSvS+Mmd1xMTEapy1tpRUCZ+9v/6S/Url9w3ILyXp88L6AOEyUP1D+rXk/6c1dkEBwbQ2y9uTOdwdYuwWJKFy6BtlENVTc7mvaqWTmFCTu6KyWQiKymWzeNP+KvSEt1KoMrf14fzVmZw3krFiKa9p4/947sDeSUWWruOn/L1G7JSuHXLRs7JSdci5XnlYGWt0HghQYFsXqXfnq6+fuEFQO9EASAuovgkheHl5ckF61fy1gd5wmJWNnYwaBuRVreSGTFhlzux4BfXtsxatGkhkRgVwcbsVDZnp5G7PJlFgf5apzRvLA4J4ppzVnPNOasBRQHP2tbF6NgYYcGBLI2OwMvTfQqgs9E/OEx5ndjxvwtyV+Kp4/dPhbW1b+IIQBgd3T0iwwlny6Y1QguAMbud4tpWctPjhMWUuCdT5/ELzVaOD2g/H653QoMD2LA8xbnoxy3RhzGLHlgSGuy25/vTcchcJ1z975KNq4XGE01bl/CJkV4voF1kxMZWfctiXjhe5Y2NiTM1OVLTLAsAySl09w9RaG50dus3dfVqnZJh8PPx5rZLN3HHVecRvki6S0pO5FCF2O1/T09ld1jPNLV1ig7Z4QXUi4zYKD5JoYQGB5GVmsjRCnHjI8W100vtStyfqXa5BZVWKhulXe5sGbKN8PR/d/PMto/IXBrD5uw0NmansiZjKb7ecux2oXPYLHTZIjt1KaHipXaF0tQm/OG6wQtoEBlR7zsAAOuzM4UWAFUtXcJiSYzF1G39vPJ6OZ4nGLvDQVlNI2U1jTz11of4+nizJj2RjdmpbMpOY9nSGN1qj0jUo7JB7Pl/bk6m0HhqoMLaWi+8AKi2NokMpwq5OZk8/erbwuK19fTTMzBEiJu6bUkmmWqXu6esjnZplzuvDNtGnF3wj7Jd9ggsQLp7B+g8LnYsNneF/guAaqtwz4MG4UcA5lorY2Njuu6mzF2hGGO4OlPrCtXNXaxOiREWT6IPBm0jFNe2Ohv3jjUIbZmRzJHu3gG25xezPb8YUHT4J3QANmanErKApgQWCqLNfzw8PFibpe+xydHRMarqhT9cN3gBQrspbCOjVFtbSEuMFRlWKOEhwcRFRtDQIu5mXtUiCwB3YGTMTvEUu9yyhjZpl2sgGto6efn9Tl5+vwCTyUR2cqxT/tfddAIWKhar2J6r+OglRITqTyVyKlUNTYwIVj0E6iYKAKFqgOU19bouAAAykxPEFgDNsg/AiDgcUNXS6VzwD1U1MWgT/ocm0QC73c5RSwNHLQ389fX3J5UCx4WD0uIiDaUUKFEwN4gVX8tMihcaTw3Kq8U2PQK9jPcA2IFSIFdU5JLKGq65YKOocKqQmZzAu3kHhcVr7JQjXkahraefAvOEXW4jHb3yHH8hMDhs46MjFXx0pAIY9woY3x3Qq1eA5FSs7WIftjKTE4TGU4MSc43wkIBjYp6mGIEFQGFJhahQqpGZJPaH3tojVFBRIpBB26hzW7/QbKXc2i5ldiW09/Tx1t5DvLX3EHBi/8DmFWkEy6ZeXdLcIVZsbllyotB4aqDCmnoUYGoBIIwj5VUMDtvw9/URGVYoyfHRQuO1SrMW3WC3O6ho7KDQPLmtL2V2JdNxcv/AssRoNo3rD6zLTJL9AzrhZA+EuSJ6LRDN0LCN4soa0WGLYbIAOCoy8sjoKEfKq9i4cpnIsEKJi1wsNF7foE16AmhIbWu3sq1fYaWoqon+IZvWKRmBiW4qYWZg7oLdbqe0ppHScf2BQH9fcpclO/sHkmOWaJ3igqRvcIj+IbES2rGREULjieZwuUWNBsATCoADKL0AJlHR8w6X6roACF0URICfLwMCf5naegZIXBIiLJ7kzHT2DToldgsqrXIHxjUGgN3AzvHr8PjHVwGXjl/nA/r089aQ/sFh3j94jPcPHgMgKnyRc7pgY1YqESH6VpFzF1o6xT79BwX4ExKkb6npvMNlokPaUdZ8ZwHQidIUkCPqFd7bf4h7P3ODqHCqEBsZgbmuUVi8zl5ZAKjF0MiEXW4jBZVWLM0d8hx/euxAEbADZcHfA5yu4j00fv0a8AXORSkGLgPWIvDBwF1o6TzOa7uLeG13ER4eHmQkRDkbCtdlJuEndwJVoUNwr5Xen/5BWUsFcxTogckCAOAjBBYAJeYaWtq7iFqsX2WuiNBFQgsAKQMrDrvDQYV18hz/cHUztlFxBk5uTBWTT/jvATPVDx0e/773gB8AQcAmJncI1gnL1E1wOByU1zVTXtfMs9s+wtPTRGbCZP/A+mVJC8amV21Eb/8vDtP3A1tLR5caEwAfTfzHyQXAV0W9gsPhYFfBIW696mJRIYUTHCh2p1POj88NaZc7K/qAPJQF/w2UkV7R8ScKCoAUJouBSwD9P0LNM2NjJ/YPBPj5sDI1welfkJWkb40UPTM4LLa3JzhA30qR7+UdFKpYO85pC4Ddol9lx94DC6oAkDsAM6NnYIgD5kbyK60UVlqlloJrDKNs5U8syhP9O/NFFfCX8cuEsiMwURCci3KEIJnCwJDtBP+CuCVhTnfDDVkphAbJlgtXGRR8jxW9Bohm+94DaoTdM/EfUwuAepQ/7hRRr7L7QDEd3cd1K7MouvobsskC4GzYRsc4UtM8fo7fQIVV2uW6gAM4wuQ5/m6UZj49YAcK8IPLqwAAEQFJREFUxq+fozQPns9k/8BKQErtnYS1rYuX3y9Qxg09PFi2NMY5XbA6Xdodnw3ROwBBOvaKaOvqYc/BEtFhq5ji/3Pyb9pbwP+IeqWxsTHe2LWPz33iClEhheIleK53aEQeAUzF4YDKxg6n6t7h6maG5XvkCvUoi/0O4F0mx/X0zgDwzvgFynjhFiYLAv1Lrs0zdodj8rjgTcXueG3G0nF1wjQyE6OlXPEUhkfEPmR5mfTbm/HGrn2MjQnve3pr6j9OLgDeRGABALD1vT26LQBEP3yaTLJZuqN3gMPVil3u3mP1tMnxPFfoB/Yxua1fhPLkb3RagefHLzixf+BSQL8dwhoxbBthX7GZfcVm4J0T7I7PWZFGrI6bqucD0cWQnmurV9/9aPovmjmvT/3HyQXABygmAcGiXu1oRTVlVXUsT9G/3OJc8TTp+LdJJfqGbBRZGsmvUBr36trEynS6KSNMNu7tBPKBhbA1MrV/wAtFfvwylGJgEyBn507iZLvjpdGLnbsDG7KSCfJfWHLF3gtkmqLUXEupWahRLyhr+4dTP3ByATAMbAc+KfJVn31tOz//5l0iQwphzC62d8rL0/13AEYn7HLNjeRXNEi7XNcpYXLBfx+lu34hM4qy67EP+D+UccOLmNwdyNYsMx1T29xObXM7L767H5PJxIrkOGf/wKq0BLcfNxT9/yd6DRDFM69tVyPsO8AJTRSn6zZ5E8EFwOu79vHdO28hLETYxoIQevvF9lJ5uekRQFVzlzKeZ7Zy0NLEoGx2dIUmJhf8nYA4wQn3pA/l3vPm+L9jOfG4IEajvHSL3W7niKWeI5Z6/vLaLgL8fFiXmex0N0yLj9I6ReGIfsjq7R8UGk8EnT29vPH+PjVCv3HyB05XAGwF/gQI21saGrbx/H93cfdt14kKKQTRBYC7mIV0HB8gf0Jm12yl47hems51TT/KEdpEt75Qg60FSCPw7PgFsILJZsILUHYMJFMYGLKx+3A5uw+XA7A4NNhZDGzOTmNxqL4ewGaD6Hvs8T799Sg9/9/3GBb/kDUIvHbyB09XAHSjNArcLPLVn31tO5+/4UpdOQSKLgAWBRhzBHrQNsJBS5Nz0a9uEeu37aaMoYy/TXTr53HS9ppEKMXj1yOAD0rPwET/QC7gHtW3QNq7e3lzzyHe3KNIyabGRSrFwIo01mUmE+Cnn3uxq4QI1kzoHdDXDsDA0DB/f/Wd6b9w5rzOuPzvVM40cPoPBBcAbV09/OvNndz1yatFhp0Tze1iF7rwIP3OlE7lFLvc6mZGpMyuK0yV2d0JyEpJG2wozUwfAj9GyhW7hMXaisXayr+27zOs3XH4IrHGPa0d+voT/ufrO+nsUUUQ7dnTffBMBcDbQDMg1Cj5iRff5LarLyFQB52rdoeDpraZyqSfnfBg/RYAU2V2Cyqt9A5KmV0XaAd2oSz224EaTbORnImT5YqjmRQkugaI0ygv3XKy3bG/rw+r0iblipcvjdGl/kD4IrEnPw0t7TgcDl38vw4MDfPkK/9VI3Qryi7lKZypABgFXgC+ITKLrp5enn1tB1+99WMiw86Kto5ubIJFaUJ1pCrV1TdIobnRueC3dC/0pnOXGETRyZ44xz/M/MrsSsTQDPx7/DJxqt2xfv5QdcLg8IlyxTERoePFgGJ3LPrJe7ZECC4AhoZttHcfZ4kOTIGe/s/bdHSLtTse53mU0eNTOJvm5F+BexEs5fnEi2/wycvPJzI8VGTYGWOpF9uU7e/jjb+PdhKeQyOjTgGegkor5iZpl+sCduAgk+f4e4AhTTOSiGbiZ3wQ+BVKc/NUu+M1SLvjU2jq6GbrhwfY+uGBcbvjaGf/wJqMpZrZHQf4+eDv6yNUEriqvknzAqC5vZMnXjylSV8EDuCJM33ybCtWKcrc4JUis+kbGOSXT77Ar7/7FZFhZ4xoi8XEJfP7CyTtcmdNE8pT/k6UkTM5nrewGEKRV34X+D6Km+ElTBYEydqlpk8Uu+MmyuuaeOY0dse5y5LxnEcNlMSoCMrrmoTFKzHXsHHlMmHxZsPDT77AgGCr43HeBo6d6ZPTPbI+guACAGDre3v51LVbWJuVLjq0y5Ra6oTGWxqp/o7GxDl+fkUDRZYmegbkw6oLdKF420+cEZu1TUeiMzqYPC4ASGVyuuASpFzxKZxsdxwaFMCGrBTnkUH8knBVXz8ldonwAkBL9h8p483389QK/9jZPjldAbAdZScgS1g6KBXlDx75G6/9/gF8NdpKOlhWKTRekgoFwPGBYQ5YGp2LvrTLdYlhFHW5iXP8AygjexKJK1jGrydQRgun2h2fg7Q7PoXuvhPliuOXhLNpxYRccQohgnujkmOWCI1XVCp2LZgJg8M27vvtkzjUOa89xqQx12mZrgBwoFQQZzxDmC2VtVZ++/eX+f6XbhMdelpqrM3UN7cJjSmiABgZHeNITYtTgKfc2i5ldqfHARxlcsH/EP3Y5UqMzRiKT0M+8BCK3fEFTB4X5CDtjk+hoa2Tl3d18vKuAkwmE8uXxrApe9zuOCMRH6+59Uolx4otAOqaWqlvaiUhJlJoXFf49dMvUdekmtnnY0xjKubKT+JZlFlb4aM0T/1nG1s2r2FDzvyev+w+IF6kLSV65tteDgdYmjvIr5g8x5eWwi7RwIl2uS3apiNZIAygnKm+Pf7vKBS744kjg3iN8tItdrudkmorJdVW/vbmB/j5eLM2M8lpaJSREDXjETw1JI53FxXzqWsuER73bOw9WMKzW1XR/AflHvnUdF/kSgEwCDwI/HGuGZ2M3eHg2798gtd+/wDh8+gTsH1vodB4oYF+JCx2rQmwpbufQrOypV9obqSrT19KVDrlOIqBzsSif8amFolkHmkBnhu/AJYxWQxcBCzSJi39MmQbYe/RSvYeVbbdwxcFsjEr1WloFB0+/X00OWYxoUEBdPeJ2+jbvqdwXguAlo4uvvmLP2FXb1TrIZTj0LPiaunlA5QDSXNI6IxsXLmcfzz8PTznwcmqub2T82//htA3/oLsJB7+7GWn/Vz/kI0iS5Nyjl/ZIO1yXWOUE+1y97Mw7HIl7oMXsJHJ/oFNuPbAtaBJilnM5vHpgg3LUwj0P33LxTce/Re7isqEva6nycTufz5CVIT6PZ9jY2Pc/r2HyT+q2nNMHZCOC9Lkrv5C2lAsO6fdUpgN+4+U8dBfn+fHX7ldjfAnsPXdPcKrrpVJk1tSo2N2SupanfP4pfVturWc1BllTJ7jv4/iXS2RGJVRFF2JPcDPgGBOtDsW2ljtLtQ0tVPT1M7zO/Pw9DSRkxKvTBdkpbJyit3xmoylQguAMbud19/byxdvukZYzDNx/++fUXPxB2XH3iWhhJkcvnihmHFkziYjV/jhlz/NnTcInzp0YhsZ5aLPfosWwfrPP7rlQvoGbRRUWimSdrmu0oxyfj+x6Fu1TUcimVfiONHuWKjsujsS4OfD+mXJbMpOI8jfl/uf/I/Q+DFLItj191/jPccmxbPxxItv8KunXlItPsrx6ErOoPx3MjPtYL0aeGumGbmKh4cHD957J7dcdZEq8V/47y5++KgqmxiS6elH6dCfOMcvZpoOVYlkgeDBqXbH+tDeXWA8/K27uOmKC1WJ/eK29/nho0+pNfI3wZVMM/o3ldmMsLwKXD+L73MJT5OJX/7vl7h+y7lC4/YNDHL5Xd8T/vQvOSNjQCGT5/h7kXa5Eokr+ACbmWwoXI+0O54XoheHs+PJXxAg2LDuubfe4/7H/6724r8V+MRMvmE2v1T7gS8Bqij4OBwOduw9QKC/n1ClwF899RIfFYkf/5OcgBl4EXgYuBv4PYoKXw1SjEcicZUxoBblb+dJlHnuAqATCEWRL5aoQN/AICMjY5y/LkdYzCdefIMH//yc2ov/EHAd0D2Tb5pNAdCNsnOg6szE7gNH6Trey7lrV+BpmpvO9IeFR3jgT/9U+wewEGlH0dN/BMU46gGUI6IypKmORCKKIZS/qbeAx4FngBKUEe1oFIEiiSAOl1tYk5VO4hyFgWwjo9z3uyf52yvbBGV2Vh4AXpvpN81WxcoXRWI1e5bf7zIrM1J47IdfJyF6dupPVQ1N3Hjvz+jp6xec2YJkiEkjnR3AIaRdrkSiJSZgNZP9A+ci7Y7nTOiiIF555Cckxc2uN9NcZ+Vbv3hivnwGilDGTGfcfT4XGcvVKMcBPnOI4RL+vj7c+5kbuPOGK2ekFVBWVcfnfvBL2rvk7P0ssaMs8hPn+B+hPHVIJBJ94o9SBEz0D6xG2h3PiiVhITzz8++RmZzg8vfYRkZ5+tW3efQf/2F4fqbBhlF6RGZ1vj1XHevvAr+YYwyXWRobxd23Xcf1l5yLl9eZCwG7w8E/39jJr556iYFBuRM9Q2qZHM17F2WbXyKRGJPFKHLFE+OGSZpmYzAC/f347hdu4VPXbsF0FsnioWEbb36Qx+P/fJWGlnm9Zd7HHNbguRYAJmAXytjKvBG6KIirzt/AuWuyWZGWxKJgZWLG2txO3pEyXty2C3OdtHl3kW6Un+HEoq+dNZZEIlGbdCaLgYuRdscukZYYxy1XXcTGlctIiotmdGyMnt5+jlZUse9wGf/9YL8Wx8y7UX6Gs26wFuFktRTlDEJdE2iJKGycaJdbiOzQl0gWIp4o28dT7Y5VP9KVCKEJxaq6aS5BRFlZbkFxyJJa1/qkislz/O2AbIqQSCQnE4BSBEwUBGuRdsd6ZBRlzf1Q60Sm8g0UZTd5aX81Ay+h6DW43sEikUgkkywBbgL+jNIbpPV9TV7Kdc/Zfmha8jTavzkL8ToOvI7yiyFNRiQSiRosR7nHvI5yz9H6vrcQr79O+1OaAaK3d3xRdIgvFBxXciKjQD6T5/h5SLtciUQyf3ihzJ5PHBdsRB4Bq80bwA0IvNercb4TiNIPcJ4KsRcyU8/xdzBDyUeJRCJRkUAU/wLZP6AO+1HO/Q2haBeOIiCj9XaJka9m4F/A54H4mb39EolEoinxwOdQ7mHNaH8/NfJ1BANO2UWieBNr/eYZ5eoHtgHfBlYhq2eJROIeeKB41H8b5R7Xj/b3W6Nc+Rhw8Z8gAsUGVus3UY/XhF3uwyhbZmL9JyUSiUSfeKHMsH8P5TjThvb3Yz1eHwKLZvke64YglKpP6zdTD5cZeAL4JAau6iQSiUQgYSj3xD+hKJFqfZ/Ww/UGbuTy6A08hfZv6nxf7UzO4yfP+V2USCQS9ycZ+CLwIso9VOv7+HxeduAh3NTA6Q7c+/xnhBO39eVYjEQikcyNbCaPCwbR/j6v1jUIfEbQe6ZbVgMVaP9mi7jswEHgl8DlSB9uiUQiURN/FKvjX6J40Iyh/Tog4joE5Ah8n3RNMPA4xvzh1QJ/A25FkcqUSCQSiTYsQbkXPwnUoP36MNNrBPh/LFATpk0oM45a/xDOdnUDrwJ3AxnqvA0SiUQiEUAGyr36P0AX2q8fZ7sOALnqvA3GwRv4OmBF+x+IA2Uk5QPgxygFiqd6/+sSiUQiUQlPlHv4j1Du6cNov744UHaRb8dNG/1miz/wLaCF+f+BHAV+B1yDMrYokUgkEvciELga5V5/lPlfZ2pQxJCk5stZ8EGxoNyB0mSnxg+iBWmXK5FIJAuZSObH7vij8deRU2EzJBVlV2A7MMTsfwC9wJvAvSgjJRKJRCKRTCUbZY14A2XNmO16Y0MxbfsfYOm8/h/MECPpzQeiWE6uGL+yUKSGQ8YvO0rTRzfQAZSgNFkUjf+3tMuVSCQSiSt4oRQE61CcDXNQ1pswIBSlv6CbyTWnDDg8fhUBx+c/5Znz/wGXLZWYkotVrAAAAABJRU5ErkJggg==;" vertex="1" parent="sAZEsEQ7PZzyUVMXOdmO-1">
                    <mxGeometry x="390" y="660" width="62" height="62" as="geometry"/>
                </mxCell>
            </root>
        </mxGraphModel>
    </diagram>
</mxfile>